<mxfile host="app.diagrams.net" modified="2023-11-12T13:17:59.585Z" agent="Mozilla/5.0 (Macintosh; Intel Mac OS X 10_15_7) AppleWebKit/537.36 (KHTML, like Gecko) Chrome/119.0.0.0 Safari/537.36" etag="KjKjXnDPqua15oCTfzua" version="22.1.0" type="google" pages="8">
  <diagram name="Page-1" id="1SryGLxj1VvhN-KbX7CX">
    <mxGraphModel grid="1" page="1" gridSize="10" guides="1" tooltips="1" connect="1" arrows="1" fold="1" pageScale="1" pageWidth="827" pageHeight="1169" math="0" shadow="0">
      <root>
        <mxCell id="0" />
        <mxCell id="1" parent="0" />
        <mxCell id="kVBq_HGAaodhJ9MUtQRK-1" value="High level feature flow" style="swimlane;whiteSpace=wrap;html=1;" vertex="1" parent="1">
          <mxGeometry x="18" y="10" width="790" height="360" as="geometry" />
        </mxCell>
        <mxCell id="l7DrEvwMmx4xEpD8p_7T-1" value="/&lt;br&gt;Landing page (unauth)" style="rounded=0;whiteSpace=wrap;html=1;" vertex="1" parent="kVBq_HGAaodhJ9MUtQRK-1">
          <mxGeometry x="20" y="87.25" width="60" height="70" as="geometry" />
        </mxCell>
        <mxCell id="l7DrEvwMmx4xEpD8p_7T-2" value="is login?" style="rhombus;whiteSpace=wrap;html=1;" vertex="1" parent="kVBq_HGAaodhJ9MUtQRK-1">
          <mxGeometry x="110" y="82.25" width="80" height="80" as="geometry" />
        </mxCell>
        <mxCell id="l7DrEvwMmx4xEpD8p_7T-3" style="edgeStyle=orthogonalEdgeStyle;rounded=0;orthogonalLoop=1;jettySize=auto;html=1;entryX=0;entryY=0.5;entryDx=0;entryDy=0;" edge="1" parent="kVBq_HGAaodhJ9MUtQRK-1" source="l7DrEvwMmx4xEpD8p_7T-1" target="l7DrEvwMmx4xEpD8p_7T-2">
          <mxGeometry relative="1" as="geometry" />
        </mxCell>
        <mxCell id="l7DrEvwMmx4xEpD8p_7T-73" style="edgeStyle=orthogonalEdgeStyle;rounded=0;orthogonalLoop=1;jettySize=auto;html=1;entryX=0.5;entryY=0;entryDx=0;entryDy=0;" edge="1" parent="kVBq_HGAaodhJ9MUtQRK-1" source="l7DrEvwMmx4xEpD8p_7T-5" target="l7DrEvwMmx4xEpD8p_7T-70">
          <mxGeometry relative="1" as="geometry">
            <Array as="points">
              <mxPoint x="411" y="78.5" />
              <mxPoint x="411" y="203.5" />
              <mxPoint x="451" y="203.5" />
            </Array>
          </mxGeometry>
        </mxCell>
        <mxCell id="l7DrEvwMmx4xEpD8p_7T-5" value="Dashboard&lt;br&gt;Landing page (Auth)" style="rounded=0;whiteSpace=wrap;html=1;" vertex="1" parent="kVBq_HGAaodhJ9MUtQRK-1">
          <mxGeometry x="244" y="56" width="120" height="45" as="geometry" />
        </mxCell>
        <mxCell id="l7DrEvwMmx4xEpD8p_7T-6" style="edgeStyle=orthogonalEdgeStyle;rounded=0;orthogonalLoop=1;jettySize=auto;html=1;" edge="1" parent="kVBq_HGAaodhJ9MUtQRK-1" source="l7DrEvwMmx4xEpD8p_7T-2" target="l7DrEvwMmx4xEpD8p_7T-5">
          <mxGeometry relative="1" as="geometry" />
        </mxCell>
        <mxCell id="l7DrEvwMmx4xEpD8p_7T-10" value="yes" style="edgeLabel;html=1;align=center;verticalAlign=middle;resizable=0;points=[];" vertex="1" connectable="0" parent="l7DrEvwMmx4xEpD8p_7T-6">
          <mxGeometry x="-0.1069" y="-1" relative="1" as="geometry">
            <mxPoint as="offset" />
          </mxGeometry>
        </mxCell>
        <mxCell id="l7DrEvwMmx4xEpD8p_7T-21" style="edgeStyle=orthogonalEdgeStyle;rounded=0;orthogonalLoop=1;jettySize=auto;html=1;entryX=0.5;entryY=1;entryDx=0;entryDy=0;" edge="1" parent="kVBq_HGAaodhJ9MUtQRK-1" source="l7DrEvwMmx4xEpD8p_7T-7" target="l7DrEvwMmx4xEpD8p_7T-5">
          <mxGeometry relative="1" as="geometry" />
        </mxCell>
        <mxCell id="l7DrEvwMmx4xEpD8p_7T-7" value="Sign-in service" style="rounded=0;whiteSpace=wrap;html=1;" vertex="1" parent="kVBq_HGAaodhJ9MUtQRK-1">
          <mxGeometry x="244" y="143.5" width="120" height="45" as="geometry" />
        </mxCell>
        <mxCell id="l7DrEvwMmx4xEpD8p_7T-8" style="edgeStyle=orthogonalEdgeStyle;rounded=0;orthogonalLoop=1;jettySize=auto;html=1;entryX=0;entryY=0.5;entryDx=0;entryDy=0;" edge="1" parent="kVBq_HGAaodhJ9MUtQRK-1" source="l7DrEvwMmx4xEpD8p_7T-2" target="l7DrEvwMmx4xEpD8p_7T-7">
          <mxGeometry relative="1" as="geometry" />
        </mxCell>
        <mxCell id="l7DrEvwMmx4xEpD8p_7T-11" value="no" style="edgeLabel;html=1;align=center;verticalAlign=middle;resizable=0;points=[];" vertex="1" connectable="0" parent="l7DrEvwMmx4xEpD8p_7T-8">
          <mxGeometry x="0.0918" y="1" relative="1" as="geometry">
            <mxPoint as="offset" />
          </mxGeometry>
        </mxCell>
        <mxCell id="l7DrEvwMmx4xEpD8p_7T-13" value="Profile service" style="whiteSpace=wrap;html=1;rounded=0;" vertex="1" parent="kVBq_HGAaodhJ9MUtQRK-1">
          <mxGeometry x="500" y="56" width="120" height="45" as="geometry" />
        </mxCell>
        <mxCell id="l7DrEvwMmx4xEpD8p_7T-14" value="" style="edgeStyle=orthogonalEdgeStyle;rounded=0;orthogonalLoop=1;jettySize=auto;html=1;" edge="1" parent="kVBq_HGAaodhJ9MUtQRK-1" source="l7DrEvwMmx4xEpD8p_7T-5" target="l7DrEvwMmx4xEpD8p_7T-13">
          <mxGeometry relative="1" as="geometry" />
        </mxCell>
        <mxCell id="l7DrEvwMmx4xEpD8p_7T-15" value="Matching service" style="whiteSpace=wrap;html=1;rounded=0;" vertex="1" parent="kVBq_HGAaodhJ9MUtQRK-1">
          <mxGeometry x="500" y="117.25" width="120" height="45" as="geometry" />
        </mxCell>
        <mxCell id="l7DrEvwMmx4xEpD8p_7T-16" style="edgeStyle=orthogonalEdgeStyle;rounded=0;orthogonalLoop=1;jettySize=auto;html=1;entryX=0;entryY=0.5;entryDx=0;entryDy=0;" edge="1" parent="kVBq_HGAaodhJ9MUtQRK-1" source="l7DrEvwMmx4xEpD8p_7T-5" target="l7DrEvwMmx4xEpD8p_7T-15">
          <mxGeometry relative="1" as="geometry" />
        </mxCell>
        <mxCell id="l7DrEvwMmx4xEpD8p_7T-24" value="user trigger" style="edgeLabel;html=1;align=center;verticalAlign=middle;resizable=0;points=[];" vertex="1" connectable="0" parent="l7DrEvwMmx4xEpD8p_7T-16">
          <mxGeometry x="-0.0114" y="-3" relative="1" as="geometry">
            <mxPoint as="offset" />
          </mxGeometry>
        </mxCell>
        <mxCell id="l7DrEvwMmx4xEpD8p_7T-22" style="edgeStyle=orthogonalEdgeStyle;rounded=0;orthogonalLoop=1;jettySize=auto;html=1;entryX=0.5;entryY=0;entryDx=0;entryDy=0;" edge="1" parent="kVBq_HGAaodhJ9MUtQRK-1" source="l7DrEvwMmx4xEpD8p_7T-17" target="l7DrEvwMmx4xEpD8p_7T-5">
          <mxGeometry relative="1" as="geometry">
            <Array as="points">
              <mxPoint x="710" y="36.5" />
              <mxPoint x="304" y="36.5" />
            </Array>
          </mxGeometry>
        </mxCell>
        <mxCell id="l7DrEvwMmx4xEpD8p_7T-23" value="session end" style="edgeLabel;html=1;align=center;verticalAlign=middle;resizable=0;points=[];" vertex="1" connectable="0" parent="l7DrEvwMmx4xEpD8p_7T-22">
          <mxGeometry x="-0.7357" relative="1" as="geometry">
            <mxPoint as="offset" />
          </mxGeometry>
        </mxCell>
        <mxCell id="l7DrEvwMmx4xEpD8p_7T-17" value="Colab service" style="whiteSpace=wrap;html=1;rounded=0;" vertex="1" parent="kVBq_HGAaodhJ9MUtQRK-1">
          <mxGeometry x="650" y="117.25" width="120" height="45" as="geometry" />
        </mxCell>
        <mxCell id="l7DrEvwMmx4xEpD8p_7T-19" style="edgeStyle=orthogonalEdgeStyle;rounded=0;orthogonalLoop=1;jettySize=auto;html=1;" edge="1" parent="kVBq_HGAaodhJ9MUtQRK-1" source="l7DrEvwMmx4xEpD8p_7T-15" target="l7DrEvwMmx4xEpD8p_7T-17">
          <mxGeometry relative="1" as="geometry" />
        </mxCell>
        <mxCell id="l7DrEvwMmx4xEpD8p_7T-107" style="rounded=0;orthogonalLoop=1;jettySize=auto;html=1;edgeStyle=orthogonalEdgeStyle;dashed=1;endArrow=none;endFill=0;" edge="1" parent="kVBq_HGAaodhJ9MUtQRK-1" source="l7DrEvwMmx4xEpD8p_7T-69" target="l7DrEvwMmx4xEpD8p_7T-17">
          <mxGeometry relative="1" as="geometry" />
        </mxCell>
        <mxCell id="l7DrEvwMmx4xEpD8p_7T-69" value="Question service" style="whiteSpace=wrap;html=1;rounded=0;" vertex="1" parent="kVBq_HGAaodhJ9MUtQRK-1">
          <mxGeometry x="500" y="201" width="120" height="45" as="geometry" />
        </mxCell>
        <mxCell id="l7DrEvwMmx4xEpD8p_7T-71" value="yes" style="edgeStyle=orthogonalEdgeStyle;rounded=0;orthogonalLoop=1;jettySize=auto;html=1;" edge="1" parent="kVBq_HGAaodhJ9MUtQRK-1" source="l7DrEvwMmx4xEpD8p_7T-70" target="l7DrEvwMmx4xEpD8p_7T-69">
          <mxGeometry relative="1" as="geometry" />
        </mxCell>
        <mxCell id="l7DrEvwMmx4xEpD8p_7T-74" style="edgeStyle=orthogonalEdgeStyle;rounded=0;orthogonalLoop=1;jettySize=auto;html=1;entryX=1;entryY=0.75;entryDx=0;entryDy=0;" edge="1" parent="kVBq_HGAaodhJ9MUtQRK-1" source="l7DrEvwMmx4xEpD8p_7T-70" target="l7DrEvwMmx4xEpD8p_7T-5">
          <mxGeometry relative="1" as="geometry" />
        </mxCell>
        <mxCell id="l7DrEvwMmx4xEpD8p_7T-75" value="no" style="edgeLabel;html=1;align=center;verticalAlign=middle;resizable=0;points=[];" vertex="1" connectable="0" parent="l7DrEvwMmx4xEpD8p_7T-74">
          <mxGeometry x="-0.5463" relative="1" as="geometry">
            <mxPoint as="offset" />
          </mxGeometry>
        </mxCell>
        <mxCell id="l7DrEvwMmx4xEpD8p_7T-70" value="is Admin?" style="rhombus;whiteSpace=wrap;html=1;" vertex="1" parent="kVBq_HGAaodhJ9MUtQRK-1">
          <mxGeometry x="411" y="263.5" width="80" height="80" as="geometry" />
        </mxCell>
        <mxCell id="kVBq_HGAaodhJ9MUtQRK-2" value="Matching Service (High level)" style="swimlane;whiteSpace=wrap;html=1;" vertex="1" parent="1">
          <mxGeometry x="18" y="400" width="792" height="350" as="geometry" />
        </mxCell>
        <mxCell id="9Ybj6tYB74JC5NjAdHQ6-7" value="Matching card" style="rounded=0;whiteSpace=wrap;html=1;labelPosition=center;verticalLabelPosition=top;align=center;verticalAlign=bottom;" vertex="1" parent="kVBq_HGAaodhJ9MUtQRK-2">
          <mxGeometry x="191" y="45" width="140" height="80" as="geometry" />
        </mxCell>
        <mxCell id="l7DrEvwMmx4xEpD8p_7T-115" value="User select custom options for matching" style="whiteSpace=wrap;html=1;" vertex="1" parent="kVBq_HGAaodhJ9MUtQRK-2">
          <mxGeometry x="201" y="55" width="120" height="60" as="geometry" />
        </mxCell>
        <mxCell id="9Ybj6tYB74JC5NjAdHQ6-29" style="edgeStyle=orthogonalEdgeStyle;rounded=0;orthogonalLoop=1;jettySize=auto;html=1;entryX=0;entryY=0.5;entryDx=0;entryDy=0;" edge="1" parent="kVBq_HGAaodhJ9MUtQRK-2" source="9Ybj6tYB74JC5NjAdHQ6-3" target="9Ybj6tYB74JC5NjAdHQ6-7">
          <mxGeometry relative="1" as="geometry" />
        </mxCell>
        <mxCell id="9Ybj6tYB74JC5NjAdHQ6-3" value="Dashboard" style="whiteSpace=wrap;html=1;" vertex="1" parent="kVBq_HGAaodhJ9MUtQRK-2">
          <mxGeometry y="55" width="120" height="60" as="geometry" />
        </mxCell>
        <mxCell id="9Ybj6tYB74JC5NjAdHQ6-12" value="Waiting Lobby Modal" style="rounded=0;whiteSpace=wrap;html=1;labelPosition=center;verticalLabelPosition=top;align=center;verticalAlign=bottom;" vertex="1" parent="kVBq_HGAaodhJ9MUtQRK-2">
          <mxGeometry x="361" y="45" width="266" height="270" as="geometry" />
        </mxCell>
        <mxCell id="9Ybj6tYB74JC5NjAdHQ6-23" value="exceed time limit" style="edgeStyle=orthogonalEdgeStyle;rounded=0;orthogonalLoop=1;jettySize=auto;html=1;entryX=0.902;entryY=0.704;entryDx=0;entryDy=0;entryPerimeter=0;" edge="1" parent="kVBq_HGAaodhJ9MUtQRK-2" source="l7DrEvwMmx4xEpD8p_7T-111" target="9Ybj6tYB74JC5NjAdHQ6-12">
          <mxGeometry x="0.6116" y="-30" relative="1" as="geometry">
            <Array as="points">
              <mxPoint x="571" y="155" />
              <mxPoint x="601" y="155" />
            </Array>
            <mxPoint as="offset" />
          </mxGeometry>
        </mxCell>
        <mxCell id="l7DrEvwMmx4xEpD8p_7T-111" value="found &lt;br&gt;match" style="rhombus;whiteSpace=wrap;html=1;" vertex="1" parent="kVBq_HGAaodhJ9MUtQRK-2">
          <mxGeometry x="531" y="60" width="80" height="50" as="geometry" />
        </mxCell>
        <mxCell id="9Ybj6tYB74JC5NjAdHQ6-16" value="Add to matching queue (loading state)" style="rounded=0;whiteSpace=wrap;html=1;" vertex="1" parent="kVBq_HGAaodhJ9MUtQRK-2">
          <mxGeometry x="371" y="55" width="120" height="60" as="geometry" />
        </mxCell>
        <mxCell id="l7DrEvwMmx4xEpD8p_7T-113" value="Colab service" style="whiteSpace=wrap;html=1;" vertex="1" parent="kVBq_HGAaodhJ9MUtQRK-2">
          <mxGeometry x="672" y="55" width="120" height="60" as="geometry" />
        </mxCell>
        <mxCell id="l7DrEvwMmx4xEpD8p_7T-114" value="" style="edgeStyle=orthogonalEdgeStyle;rounded=0;orthogonalLoop=1;jettySize=auto;html=1;" edge="1" parent="kVBq_HGAaodhJ9MUtQRK-2" source="l7DrEvwMmx4xEpD8p_7T-111" target="l7DrEvwMmx4xEpD8p_7T-113">
          <mxGeometry relative="1" as="geometry" />
        </mxCell>
        <mxCell id="l7DrEvwMmx4xEpD8p_7T-117" value="yes" style="edgeLabel;html=1;align=center;verticalAlign=middle;resizable=0;points=[];" vertex="1" connectable="0" parent="l7DrEvwMmx4xEpD8p_7T-114">
          <mxGeometry x="-0.4618" y="2" relative="1" as="geometry">
            <mxPoint as="offset" />
          </mxGeometry>
        </mxCell>
        <mxCell id="l7DrEvwMmx4xEpD8p_7T-119" value="" style="edgeStyle=orthogonalEdgeStyle;rounded=0;orthogonalLoop=1;jettySize=auto;html=1;entryX=0.5;entryY=1;entryDx=0;entryDy=0;" edge="1" parent="kVBq_HGAaodhJ9MUtQRK-2" source="l7DrEvwMmx4xEpD8p_7T-111" target="9Ybj6tYB74JC5NjAdHQ6-16">
          <mxGeometry relative="1" as="geometry">
            <mxPoint x="581.0322580645159" y="200" as="targetPoint" />
            <Array as="points">
              <mxPoint x="571" y="155" />
              <mxPoint x="431" y="155" />
            </Array>
          </mxGeometry>
        </mxCell>
        <mxCell id="l7DrEvwMmx4xEpD8p_7T-120" value="no" style="edgeLabel;html=1;align=center;verticalAlign=middle;resizable=0;points=[];" vertex="1" connectable="0" parent="l7DrEvwMmx4xEpD8p_7T-119">
          <mxGeometry x="0.0849" y="-1" relative="1" as="geometry">
            <mxPoint as="offset" />
          </mxGeometry>
        </mxCell>
        <mxCell id="9Ybj6tYB74JC5NjAdHQ6-19" style="edgeStyle=orthogonalEdgeStyle;rounded=0;orthogonalLoop=1;jettySize=auto;html=1;" edge="1" parent="kVBq_HGAaodhJ9MUtQRK-2" source="l7DrEvwMmx4xEpD8p_7T-115" target="9Ybj6tYB74JC5NjAdHQ6-16">
          <mxGeometry relative="1" as="geometry" />
        </mxCell>
        <mxCell id="9Ybj6tYB74JC5NjAdHQ6-22" value="" style="endArrow=classic;html=1;rounded=0;exitX=1;exitY=0.5;exitDx=0;exitDy=0;entryX=0;entryY=0.5;entryDx=0;entryDy=0;" edge="1" parent="kVBq_HGAaodhJ9MUtQRK-2" source="9Ybj6tYB74JC5NjAdHQ6-16" target="l7DrEvwMmx4xEpD8p_7T-111">
          <mxGeometry width="50" height="50" relative="1" as="geometry">
            <mxPoint x="451" y="145" as="sourcePoint" />
            <mxPoint x="501" y="95" as="targetPoint" />
          </mxGeometry>
        </mxCell>
        <mxCell id="9Ybj6tYB74JC5NjAdHQ6-24" value="prompt change option or retry later (fail state)" style="rounded=0;whiteSpace=wrap;html=1;" vertex="1" parent="kVBq_HGAaodhJ9MUtQRK-2">
          <mxGeometry x="501" y="235" width="120" height="60" as="geometry" />
        </mxCell>
        <mxCell id="9Ybj6tYB74JC5NjAdHQ6-27" style="edgeStyle=orthogonalEdgeStyle;rounded=0;orthogonalLoop=1;jettySize=auto;html=1;entryX=0;entryY=0.75;entryDx=0;entryDy=0;" edge="1" parent="kVBq_HGAaodhJ9MUtQRK-2" source="9Ybj6tYB74JC5NjAdHQ6-25" target="9Ybj6tYB74JC5NjAdHQ6-7">
          <mxGeometry relative="1" as="geometry" />
        </mxCell>
        <mxCell id="9Ybj6tYB74JC5NjAdHQ6-30" value="yes" style="edgeLabel;html=1;align=center;verticalAlign=middle;resizable=0;points=[];" vertex="1" connectable="0" parent="9Ybj6tYB74JC5NjAdHQ6-27">
          <mxGeometry x="-0.5074" relative="1" as="geometry">
            <mxPoint as="offset" />
          </mxGeometry>
        </mxCell>
        <mxCell id="9Ybj6tYB74JC5NjAdHQ6-33" style="edgeStyle=orthogonalEdgeStyle;rounded=0;orthogonalLoop=1;jettySize=auto;html=1;" edge="1" parent="kVBq_HGAaodhJ9MUtQRK-2" source="9Ybj6tYB74JC5NjAdHQ6-25" target="9Ybj6tYB74JC5NjAdHQ6-3">
          <mxGeometry relative="1" as="geometry">
            <Array as="points">
              <mxPoint x="420" y="320" />
              <mxPoint x="59" y="320" />
            </Array>
          </mxGeometry>
        </mxCell>
        <mxCell id="9Ybj6tYB74JC5NjAdHQ6-25" value="change &lt;br&gt;option" style="rhombus;whiteSpace=wrap;html=1;rounded=0;" vertex="1" parent="kVBq_HGAaodhJ9MUtQRK-2">
          <mxGeometry x="381" y="225" width="80" height="80" as="geometry" />
        </mxCell>
        <mxCell id="9Ybj6tYB74JC5NjAdHQ6-26" value="" style="edgeStyle=orthogonalEdgeStyle;rounded=0;orthogonalLoop=1;jettySize=auto;html=1;" edge="1" parent="kVBq_HGAaodhJ9MUtQRK-2" source="9Ybj6tYB74JC5NjAdHQ6-24" target="9Ybj6tYB74JC5NjAdHQ6-25">
          <mxGeometry relative="1" as="geometry" />
        </mxCell>
        <mxCell id="vpRYPz_QuTeY_KTGAnoL-1" value="Matching Service (Socket level)" style="swimlane;whiteSpace=wrap;html=1;" vertex="1" parent="1">
          <mxGeometry x="827" y="400" width="752" height="350" as="geometry" />
        </mxCell>
        <mxCell id="vpRYPz_QuTeY_KTGAnoL-2" value="Frontend" style="rounded=0;whiteSpace=wrap;html=1;horizontal=0;" vertex="1" parent="vpRYPz_QuTeY_KTGAnoL-1">
          <mxGeometry y="30" width="30" height="310" as="geometry" />
        </mxCell>
        <mxCell id="vpRYPz_QuTeY_KTGAnoL-21" style="edgeStyle=orthogonalEdgeStyle;rounded=0;orthogonalLoop=1;jettySize=auto;html=1;entryX=1.067;entryY=0.274;entryDx=0;entryDy=0;entryPerimeter=0;" edge="1" parent="vpRYPz_QuTeY_KTGAnoL-1" source="vpRYPz_QuTeY_KTGAnoL-20" target="vpRYPz_QuTeY_KTGAnoL-2">
          <mxGeometry relative="1" as="geometry" />
        </mxCell>
        <mxCell id="vpRYPz_QuTeY_KTGAnoL-22" value="room" style="edgeLabel;html=1;align=center;verticalAlign=middle;resizable=0;points=[];" vertex="1" connectable="0" parent="vpRYPz_QuTeY_KTGAnoL-21">
          <mxGeometry x="0.1878" y="-3" relative="1" as="geometry">
            <mxPoint y="1" as="offset" />
          </mxGeometry>
        </mxCell>
        <mxCell id="vpRYPz_QuTeY_KTGAnoL-9" value="" style="endArrow=classic;html=1;rounded=0;entryX=0;entryY=0.5;entryDx=0;entryDy=0;exitX=0.973;exitY=0.139;exitDx=0;exitDy=0;exitPerimeter=0;" edge="1" parent="vpRYPz_QuTeY_KTGAnoL-1" source="vpRYPz_QuTeY_KTGAnoL-2" target="vpRYPz_QuTeY_KTGAnoL-12">
          <mxGeometry width="50" height="50" relative="1" as="geometry">
            <mxPoint x="32" y="80" as="sourcePoint" />
            <mxPoint x="152" y="130" as="targetPoint" />
          </mxGeometry>
        </mxCell>
        <mxCell id="vpRYPz_QuTeY_KTGAnoL-10" value="match(user, preference)" style="edgeLabel;html=1;align=center;verticalAlign=middle;resizable=0;points=[];" vertex="1" connectable="0" parent="vpRYPz_QuTeY_KTGAnoL-9">
          <mxGeometry x="-0.229" relative="1" as="geometry">
            <mxPoint x="10" as="offset" />
          </mxGeometry>
        </mxCell>
        <mxCell id="vpRYPz_QuTeY_KTGAnoL-29" value="" style="endArrow=classic;html=1;rounded=0;entryX=0;entryY=0.5;entryDx=0;entryDy=0;exitX=0.973;exitY=0.139;exitDx=0;exitDy=0;exitPerimeter=0;" edge="1" parent="vpRYPz_QuTeY_KTGAnoL-1">
          <mxGeometry width="50" height="50" relative="1" as="geometry">
            <mxPoint x="30" y="180" as="sourcePoint" />
            <mxPoint x="213" y="182" as="targetPoint" />
          </mxGeometry>
        </mxCell>
        <mxCell id="vpRYPz_QuTeY_KTGAnoL-30" value="userReady" style="edgeLabel;html=1;align=center;verticalAlign=middle;resizable=0;points=[];" vertex="1" connectable="0" parent="vpRYPz_QuTeY_KTGAnoL-29">
          <mxGeometry x="-0.229" relative="1" as="geometry">
            <mxPoint x="10" as="offset" />
          </mxGeometry>
        </mxCell>
        <mxCell id="vpRYPz_QuTeY_KTGAnoL-33" value="Backend" style="swimlane;startSize=0;labelBackgroundColor=default;" vertex="1" parent="vpRYPz_QuTeY_KTGAnoL-1">
          <mxGeometry x="192" y="30" width="548" height="310" as="geometry" />
        </mxCell>
        <mxCell id="vpRYPz_QuTeY_KTGAnoL-40" value="handleCancel" style="rounded=0;whiteSpace=wrap;html=1;" vertex="1" parent="vpRYPz_QuTeY_KTGAnoL-33">
          <mxGeometry x="20" y="260" width="98" height="30" as="geometry" />
        </mxCell>
        <mxCell id="vpRYPz_QuTeY_KTGAnoL-43" style="edgeStyle=orthogonalEdgeStyle;rounded=0;orthogonalLoop=1;jettySize=auto;html=1;entryX=0.019;entryY=0.911;entryDx=0;entryDy=0;entryPerimeter=0;exitX=1;exitY=0.5;exitDx=0;exitDy=0;" edge="1" parent="vpRYPz_QuTeY_KTGAnoL-33" source="vpRYPz_QuTeY_KTGAnoL-40" target="vpRYPz_QuTeY_KTGAnoL-15">
          <mxGeometry relative="1" as="geometry">
            <mxPoint x="118" y="264.71000000000004" as="sourcePoint" />
            <mxPoint x="329" y="264.71000000000004" as="targetPoint" />
          </mxGeometry>
        </mxCell>
        <mxCell id="vpRYPz_QuTeY_KTGAnoL-44" value="closeRoom(roomId)" style="edgeLabel;html=1;align=center;verticalAlign=middle;resizable=0;points=[];" vertex="1" connectable="0" parent="vpRYPz_QuTeY_KTGAnoL-43">
          <mxGeometry x="-0.0886" y="-2" relative="1" as="geometry">
            <mxPoint as="offset" />
          </mxGeometry>
        </mxCell>
        <mxCell id="vpRYPz_QuTeY_KTGAnoL-15" value="RoomManager" style="rounded=0;whiteSpace=wrap;html=1;horizontal=0;" vertex="1" parent="vpRYPz_QuTeY_KTGAnoL-33">
          <mxGeometry x="510" y="10" width="30" height="290" as="geometry" />
        </mxCell>
        <mxCell id="oDhxU44QmrWIvLrXyX4e-6" value="handleRoomCreated" style="rounded=0;whiteSpace=wrap;html=1;" vertex="1" parent="vpRYPz_QuTeY_KTGAnoL-33">
          <mxGeometry x="20" y="100" width="150" height="30" as="geometry" />
        </mxCell>
        <mxCell id="vpRYPz_QuTeY_KTGAnoL-20" value="handleMatched" style="rounded=0;whiteSpace=wrap;html=1;" vertex="1" parent="vpRYPz_QuTeY_KTGAnoL-33">
          <mxGeometry x="20" y="70" width="150" height="30" as="geometry" />
        </mxCell>
        <mxCell id="vpRYPz_QuTeY_KTGAnoL-27" value="" style="endArrow=classic;html=1;rounded=0;entryX=1;entryY=0.5;entryDx=0;entryDy=0;exitX=0;exitY=0.266;exitDx=0;exitDy=0;exitPerimeter=0;" edge="1" parent="vpRYPz_QuTeY_KTGAnoL-33" source="vpRYPz_QuTeY_KTGAnoL-15" target="vpRYPz_QuTeY_KTGAnoL-20">
          <mxGeometry width="50" height="50" relative="1" as="geometry">
            <mxPoint x="90" y="160" as="sourcePoint" />
            <mxPoint x="140" y="110" as="targetPoint" />
          </mxGeometry>
        </mxCell>
        <mxCell id="vpRYPz_QuTeY_KTGAnoL-28" value="matched(room)" style="edgeLabel;html=1;align=center;verticalAlign=middle;resizable=0;points=[];" vertex="1" connectable="0" parent="vpRYPz_QuTeY_KTGAnoL-27">
          <mxGeometry x="0.059" y="-2" relative="1" as="geometry">
            <mxPoint as="offset" />
          </mxGeometry>
        </mxCell>
        <mxCell id="vpRYPz_QuTeY_KTGAnoL-12" value="handleMatching" style="rounded=0;whiteSpace=wrap;html=1;" vertex="1" parent="vpRYPz_QuTeY_KTGAnoL-33">
          <mxGeometry x="20" y="30" width="150" height="30" as="geometry" />
        </mxCell>
        <mxCell id="vpRYPz_QuTeY_KTGAnoL-25" style="edgeStyle=orthogonalEdgeStyle;rounded=0;orthogonalLoop=1;jettySize=auto;html=1;entryX=0.024;entryY=0.12;entryDx=0;entryDy=0;entryPerimeter=0;" edge="1" parent="vpRYPz_QuTeY_KTGAnoL-33" source="vpRYPz_QuTeY_KTGAnoL-12" target="vpRYPz_QuTeY_KTGAnoL-15">
          <mxGeometry relative="1" as="geometry" />
        </mxCell>
        <mxCell id="vpRYPz_QuTeY_KTGAnoL-26" value="findOrCreateRoom(socketId, options)" style="edgeLabel;html=1;align=center;verticalAlign=middle;resizable=0;points=[];" vertex="1" connectable="0" parent="vpRYPz_QuTeY_KTGAnoL-25">
          <mxGeometry x="-0.0886" y="-2" relative="1" as="geometry">
            <mxPoint as="offset" />
          </mxGeometry>
        </mxCell>
        <mxCell id="oDhxU44QmrWIvLrXyX4e-8" value="" style="endArrow=classic;html=1;rounded=0;entryX=1;entryY=0.5;entryDx=0;entryDy=0;exitX=0;exitY=0.266;exitDx=0;exitDy=0;exitPerimeter=0;" edge="1" parent="vpRYPz_QuTeY_KTGAnoL-33">
          <mxGeometry width="50" height="50" relative="1" as="geometry">
            <mxPoint x="510" y="116" as="sourcePoint" />
            <mxPoint x="170" y="114" as="targetPoint" />
          </mxGeometry>
        </mxCell>
        <mxCell id="oDhxU44QmrWIvLrXyX4e-9" value="created(room)" style="edgeLabel;html=1;align=center;verticalAlign=middle;resizable=0;points=[];" connectable="0" vertex="1" parent="oDhxU44QmrWIvLrXyX4e-8">
          <mxGeometry x="0.059" y="-2" relative="1" as="geometry">
            <mxPoint as="offset" />
          </mxGeometry>
        </mxCell>
        <mxCell id="vpRYPz_QuTeY_KTGAnoL-34" value="handleReady" style="rounded=0;whiteSpace=wrap;html=1;" vertex="1" parent="vpRYPz_QuTeY_KTGAnoL-33">
          <mxGeometry x="20" y="140" width="150" height="50" as="geometry" />
        </mxCell>
        <mxCell id="oDhxU44QmrWIvLrXyX4e-16" value="handleStart" style="rounded=0;whiteSpace=wrap;html=1;" vertex="1" parent="vpRYPz_QuTeY_KTGAnoL-33">
          <mxGeometry x="20" y="200" width="150" height="50" as="geometry" />
        </mxCell>
        <mxCell id="vpRYPz_QuTeY_KTGAnoL-41" value="" style="endArrow=classic;html=1;rounded=0;entryX=0;entryY=0.5;entryDx=0;entryDy=0;exitX=0.997;exitY=0.696;exitDx=0;exitDy=0;exitPerimeter=0;" edge="1" parent="vpRYPz_QuTeY_KTGAnoL-1">
          <mxGeometry width="50" height="50" relative="1" as="geometry">
            <mxPoint x="30.00000000000008" y="300.76" as="sourcePoint" />
            <mxPoint x="212.09" y="300" as="targetPoint" />
          </mxGeometry>
        </mxCell>
        <mxCell id="vpRYPz_QuTeY_KTGAnoL-42" value="cancel" style="edgeLabel;html=1;align=center;verticalAlign=middle;resizable=0;points=[];" vertex="1" connectable="0" parent="vpRYPz_QuTeY_KTGAnoL-41">
          <mxGeometry x="-0.229" relative="1" as="geometry">
            <mxPoint x="10" as="offset" />
          </mxGeometry>
        </mxCell>
        <mxCell id="vpRYPz_QuTeY_KTGAnoL-50" value="" style="endArrow=classic;html=1;rounded=0;" edge="1" parent="vpRYPz_QuTeY_KTGAnoL-1">
          <mxGeometry width="50" height="50" relative="1" as="geometry">
            <mxPoint x="30" y="310" as="sourcePoint" />
            <mxPoint x="30" y="330" as="targetPoint" />
            <Array as="points">
              <mxPoint x="70" y="310" />
              <mxPoint x="70" y="330" />
            </Array>
          </mxGeometry>
        </mxCell>
        <mxCell id="vpRYPz_QuTeY_KTGAnoL-51" value="error" style="edgeLabel;html=1;align=center;verticalAlign=middle;resizable=0;points=[];" vertex="1" connectable="0" parent="vpRYPz_QuTeY_KTGAnoL-50">
          <mxGeometry x="0.0102" y="-1" relative="1" as="geometry">
            <mxPoint as="offset" />
          </mxGeometry>
        </mxCell>
        <mxCell id="oDhxU44QmrWIvLrXyX4e-1" value="" style="endArrow=classic;html=1;rounded=0;exitX=0.973;exitY=0.139;exitDx=0;exitDy=0;exitPerimeter=0;" edge="1" parent="vpRYPz_QuTeY_KTGAnoL-1">
          <mxGeometry width="50" height="50" relative="1" as="geometry">
            <mxPoint x="30" y="50" as="sourcePoint" />
            <mxPoint x="192" y="52" as="targetPoint" />
          </mxGeometry>
        </mxCell>
        <mxCell id="oDhxU44QmrWIvLrXyX4e-2" value="connect" style="edgeLabel;html=1;align=center;verticalAlign=middle;resizable=0;points=[];" connectable="0" vertex="1" parent="oDhxU44QmrWIvLrXyX4e-1">
          <mxGeometry x="-0.229" relative="1" as="geometry">
            <mxPoint x="10" as="offset" />
          </mxGeometry>
        </mxCell>
        <mxCell id="oDhxU44QmrWIvLrXyX4e-10" style="edgeStyle=orthogonalEdgeStyle;rounded=0;orthogonalLoop=1;jettySize=auto;html=1;entryX=1.067;entryY=0.274;entryDx=0;entryDy=0;entryPerimeter=0;" edge="1" parent="vpRYPz_QuTeY_KTGAnoL-1">
          <mxGeometry relative="1" as="geometry">
            <mxPoint x="210" y="150" as="sourcePoint" />
            <mxPoint x="30" y="150" as="targetPoint" />
          </mxGeometry>
        </mxCell>
        <mxCell id="oDhxU44QmrWIvLrXyX4e-11" value="room" style="edgeLabel;html=1;align=center;verticalAlign=middle;resizable=0;points=[];" connectable="0" vertex="1" parent="oDhxU44QmrWIvLrXyX4e-10">
          <mxGeometry x="0.1878" y="-3" relative="1" as="geometry">
            <mxPoint y="1" as="offset" />
          </mxGeometry>
        </mxCell>
        <mxCell id="oDhxU44QmrWIvLrXyX4e-13" style="edgeStyle=orthogonalEdgeStyle;rounded=0;orthogonalLoop=1;jettySize=auto;html=1;entryX=1.067;entryY=0.274;entryDx=0;entryDy=0;entryPerimeter=0;" edge="1" parent="vpRYPz_QuTeY_KTGAnoL-1">
          <mxGeometry relative="1" as="geometry">
            <mxPoint x="210" y="204.71000000000004" as="sourcePoint" />
            <mxPoint x="30" y="204.71000000000004" as="targetPoint" />
          </mxGeometry>
        </mxCell>
        <mxCell id="oDhxU44QmrWIvLrXyX4e-14" value="partnerReady" style="edgeLabel;html=1;align=center;verticalAlign=middle;resizable=0;points=[];" connectable="0" vertex="1" parent="oDhxU44QmrWIvLrXyX4e-13">
          <mxGeometry x="0.1878" y="-3" relative="1" as="geometry">
            <mxPoint y="1" as="offset" />
          </mxGeometry>
        </mxCell>
        <mxCell id="oDhxU44QmrWIvLrXyX4e-17" value="" style="endArrow=classic;html=1;rounded=0;entryX=0;entryY=0.5;entryDx=0;entryDy=0;exitX=0.973;exitY=0.139;exitDx=0;exitDy=0;exitPerimeter=0;" edge="1" parent="vpRYPz_QuTeY_KTGAnoL-1">
          <mxGeometry width="50" height="50" relative="1" as="geometry">
            <mxPoint x="30" y="240" as="sourcePoint" />
            <mxPoint x="213" y="242" as="targetPoint" />
          </mxGeometry>
        </mxCell>
        <mxCell id="oDhxU44QmrWIvLrXyX4e-18" value="ownerStart" style="edgeLabel;html=1;align=center;verticalAlign=middle;resizable=0;points=[];" connectable="0" vertex="1" parent="oDhxU44QmrWIvLrXyX4e-17">
          <mxGeometry x="-0.229" relative="1" as="geometry">
            <mxPoint x="10" as="offset" />
          </mxGeometry>
        </mxCell>
        <mxCell id="oDhxU44QmrWIvLrXyX4e-20" style="edgeStyle=orthogonalEdgeStyle;rounded=0;orthogonalLoop=1;jettySize=auto;html=1;entryX=1.067;entryY=0.274;entryDx=0;entryDy=0;entryPerimeter=0;" edge="1" parent="vpRYPz_QuTeY_KTGAnoL-1">
          <mxGeometry relative="1" as="geometry">
            <mxPoint x="210" y="270" as="sourcePoint" />
            <mxPoint x="30" y="270" as="targetPoint" />
          </mxGeometry>
        </mxCell>
        <mxCell id="oDhxU44QmrWIvLrXyX4e-21" value="broadcast(redirect)" style="edgeLabel;html=1;align=center;verticalAlign=middle;resizable=0;points=[];" connectable="0" vertex="1" parent="oDhxU44QmrWIvLrXyX4e-20">
          <mxGeometry x="0.1878" y="-3" relative="1" as="geometry">
            <mxPoint y="1" as="offset" />
          </mxGeometry>
        </mxCell>
      </root>
    </mxGraphModel>
  </diagram>
  <diagram id="TXbSoaHbihyttyw99PNo" name="getUserByEmail flow">
    <mxGraphModel grid="1" page="1" gridSize="10" guides="1" tooltips="1" connect="1" arrows="1" fold="1" pageScale="1" pageWidth="850" pageHeight="1100" math="0" shadow="0">
      <root>
        <mxCell id="0" />
        <mxCell id="1" parent="0" />
        <mxCell id="pFlyOmWqd4z21U9GxsCo-1" value="Cloud" style="ellipse;shape=cloud;whiteSpace=wrap;html=1;" vertex="1" parent="1">
          <mxGeometry x="60" y="210" width="120" height="80" as="geometry" />
        </mxCell>
        <mxCell id="pFlyOmWqd4z21U9GxsCo-4" value="CORS &lt;br&gt;Middleware" style="rounded=0;whiteSpace=wrap;html=1;" vertex="1" parent="1">
          <mxGeometry x="220" y="220" width="70" height="60" as="geometry" />
        </mxCell>
        <mxCell id="pFlyOmWqd4z21U9GxsCo-5" value="" style="endArrow=classic;html=1;rounded=0;exitX=1;exitY=0.5;exitDx=0;exitDy=0;entryX=-0.088;entryY=0.636;entryDx=0;entryDy=0;entryPerimeter=0;" edge="1" parent="1" source="pFlyOmWqd4z21U9GxsCo-4" target="pFlyOmWqd4z21U9GxsCo-7">
          <mxGeometry width="50" height="50" relative="1" as="geometry">
            <mxPoint x="400" y="330" as="sourcePoint" />
            <mxPoint x="560" y="250" as="targetPoint" />
          </mxGeometry>
        </mxCell>
        <mxCell id="pFlyOmWqd4z21U9GxsCo-9" value="" style="group" connectable="0" vertex="1" parent="1">
          <mxGeometry x="306" y="225" width="80" height="69" as="geometry" />
        </mxCell>
        <mxCell id="pFlyOmWqd4z21U9GxsCo-7" value="" style="sketch=0;aspect=fixed;pointerEvents=1;shadow=0;dashed=0;html=1;strokeColor=none;labelPosition=center;verticalLabelPosition=bottom;verticalAlign=top;align=center;fillColor=#00188D;shape=mxgraph.mscae.enterprise.router" vertex="1" parent="pFlyOmWqd4z21U9GxsCo-9">
          <mxGeometry x="15" width="50" height="39" as="geometry" />
        </mxCell>
        <mxCell id="pFlyOmWqd4z21U9GxsCo-8" value="App Router" style="text;html=1;align=center;verticalAlign=middle;resizable=0;points=[];autosize=1;strokeColor=none;fillColor=none;" vertex="1" parent="pFlyOmWqd4z21U9GxsCo-9">
          <mxGeometry y="39" width="80" height="30" as="geometry" />
        </mxCell>
        <mxCell id="pFlyOmWqd4z21U9GxsCo-10" value="Auth &lt;br&gt;Middleware" style="rounded=0;whiteSpace=wrap;html=1;" vertex="1" parent="1">
          <mxGeometry x="400" y="220" width="70" height="60" as="geometry" />
        </mxCell>
        <mxCell id="KFt2AJulzjA8qmtgGQLa-3" value="" style="endArrow=classic;html=1;rounded=0;exitX=1;exitY=0.5;exitDx=0;exitDy=0;entryX=0;entryY=0.5;entryDx=0;entryDy=0;" edge="1" parent="1" source="pFlyOmWqd4z21U9GxsCo-10" target="KFt2AJulzjA8qmtgGQLa-4">
          <mxGeometry width="50" height="50" relative="1" as="geometry">
            <mxPoint x="820" y="250" as="sourcePoint" />
            <mxPoint x="870" y="250" as="targetPoint" />
          </mxGeometry>
        </mxCell>
        <mxCell id="KFt2AJulzjA8qmtgGQLa-4" value="GET User &lt;br&gt;Handler" style="rounded=0;whiteSpace=wrap;html=1;" vertex="1" parent="1">
          <mxGeometry x="500" y="220" width="80" height="60" as="geometry" />
        </mxCell>
        <mxCell id="KFt2AJulzjA8qmtgGQLa-6" value="Email Validator" style="rounded=0;whiteSpace=wrap;html=1;" vertex="1" parent="1">
          <mxGeometry x="613" y="220" width="120" height="60" as="geometry" />
        </mxCell>
        <mxCell id="KFt2AJulzjA8qmtgGQLa-7" value="" style="endArrow=classic;html=1;rounded=0;exitX=0.5;exitY=1;exitDx=0;exitDy=0;entryX=0.5;entryY=0;entryDx=0;entryDy=0;" edge="1" parent="1" source="KFt2AJulzjA8qmtgGQLa-6" target="KFt2AJulzjA8qmtgGQLa-10">
          <mxGeometry width="50" height="50" relative="1" as="geometry">
            <mxPoint x="470" y="270" as="sourcePoint" />
            <mxPoint x="660" y="320" as="targetPoint" />
          </mxGeometry>
        </mxCell>
        <mxCell id="KFt2AJulzjA8qmtgGQLa-9" value="" style="group" connectable="0" vertex="1" parent="1">
          <mxGeometry x="623" y="319.88" width="100" height="50" as="geometry" />
        </mxCell>
        <mxCell id="KFt2AJulzjA8qmtgGQLa-10" value="" style="rounded=0;whiteSpace=wrap;html=1;" vertex="1" parent="KFt2AJulzjA8qmtgGQLa-9">
          <mxGeometry width="100" height="50" as="geometry" />
        </mxCell>
        <mxCell id="KFt2AJulzjA8qmtgGQLa-11" value="" style="shape=image;verticalLabelPosition=bottom;labelBackgroundColor=default;verticalAlign=top;aspect=fixed;imageAspect=0;image=data:image/png,iVBORw0KGgoAAAANSUhEUgAAAWcAAACNCAMAAABczkvvAAAAkFBMVEX///8MNEsALEUAEzYAJUAAHTsAFTcAMEifqK8AKENqeoby9PUAIj67wcYAGjn5+vuGkpvP1NizusAAGDjf4+UAHTwADjPJztLV2dxzgYxOYnGOmaEsSFuWoKh8iZMfP1RfcH1BWGhYangAAC+krLPBx8zd4eMAACg1TmASOE48VGUxS14jQlZTZnUAACFufYiG9o1pAAAN40lEQVR4nO1d6WKyOhQsYYkI4oLijtpqv9rl9v3f7qKQPWELVkuZn6xhCMk5k0l4eqqL8bq/jwe1T+9QCotz4AII/PB475K0GoMXaKRwlvcuS4vx+mJghL17l6a92EDCs2F69y5OW3G0KZoNd3Tv8rQUXmgwCIf3LlE7sQcsz9b23iVqJeaOwcG6d5FaCQPyPPtdEN081hZPs2HAexeqfZhGIs2GPbl3sVqHA5DwDHf3LlbbMAkkNCcV+nTvgrULQ0njfK3Qb/cuWbuwdOU8G+H43kVrExZ8JwhQjAdX9y5bm7DhQme//4ykDvP13oVrD3o+1/tNn54GWccI9vcuXWvgcQl3Su17VsfN6Z2L1xo88/rRVeE/oQrdDaw0gxOvH9nz6/ZPVKE7vb8RQF4/ilLdeZJ1hZ3e3whGfIqCk220odP7G4CoH4HvbNcxC0M6vb8BvAuqs4VVZ1TT/XsWsB2YzHiaDXuBdm4zoju9XxdDW6DZiMheJOJ1er8m+qJ+REt0o2y33+n9WhibYnUGMdnvmVwI0qEWdkInyNXdZZYqdnq/Dra+SLMR0gIdivo6vV8DnqTVMAyHOQZ5Zzq9vz5W0qHXA3PMa/YuQKf318UglNAsqBkrpCYt5FfpUARZbU66QW7KxDhT8zq9vyZi+dBryMv6KDGPOr2/Dl5l/iNDomV0er8WPiSh84XNZ+FIpPdHnd5fHUeJsHHtBkUNtNP764O37mPIEj+0z+n0/qrgrfsYssHATu+vi7k0E0wApQpop/fXhGjdR91gX3Z4p/fXg8y6nzUN0smZWO8HP13SXw2pdT+FLZeLOr2/Dg6qVgNbN3g8mN4/2O+MzfLRBReFdT+XR6T3zx5hwYi9A6ABwctjT0AfysR91P6qcutH0vsHyKf28tAJqtK6b9DWDR5Y75/r3n8fzSjYM7A7xMcqbcA3iv0furcQrPs0AuXzNqf39/kUCUJgBXZc2s+OhyceOm/irfsMIvV5jen9As/ZC4z2JZsBnMuqv777g7fuszUrp/VtTO9X8Jxc2Sk3qI6yJiN63IiDt+6zcOOcU98a0vuVPCeXLtXgDsO0JL4o4T4MeOs+i9yOBev93zkHlUAOz8ZLqRo6fYtse/bywOMOgnWfhTBmxaAhvZ/wDC9gCgDP5a4xnZ/GjyzS5vWBF55zT8Z6f17rUgzMM/zcJXCjgAo02zFxX7DusyiK2fCSa1pVCfPsZhumW4tU8Y3OpR8EOfpR+uDr/POx3l9wXD4wz2S1miFZLKENs+hE6z4L3rohAH0Otk4pJDxTDRrqiufjC+boy1msV2cLfFx3euk+am8KbzB6fjNcYBz66wHzurKLZf3K9Lj/gO75sDzSB43XX58A7FYjRXA5ncRfn3YYhv5mv81NiiXWfRZOUV3Cer+OgiPl+YheYfZNDf+zL/iXPtDrwXQvZ9nXxGTwz07xH90hDw6R76bT0iFwfccYEYk3uh6e6k7Tr8gCl+4XAj9aofjmeA7ddKNrh+J483zphr6bddpJ+jqbjZTBQJ5+JD64/BJo9FZH75fyPMVXTqO1YZrmp5l1LwL0BzdAD+KQZ51uAv5jdcNzL6vwaUd77X62ER1WwujKqfdh02dbgAkvhz0jEGJR11Ql/RLrPguJdYNHE3q/lOcnPGKzT5/NJNQs8dh8OoFUwvM8kjWJ0Mh2Z6WOhk8xP84fJMGTZ3E0QiaOj+XB8ExOl8y6z6KELOMheVRD75fzjNqN7GVnPF8izRGRy4Or1iTyrOjg8XAmqh3ziUiZOXjaCbUVulTRPJVzSzqWKrPus7BLSJ4x8vfX1/sL6nNaeMRz8DqnnjK8EivyrPBWzVA/mfEMRUIvW2XKGhNSKZyIhiMhQWrd504rkedhvf+jKr0Y8vYZ8ZwlQYhnEH9SLKQTcwWex7gxAHZoOqFtQepST5hnA/VjgOFbthXSPVBaoZN+M3AS2CTYF7PXfP0oQxWW6uv9Up63iIpM60Q8k4VtLml66h8ReB7hk/dzb+hN59t3M6GahOJ0fYThrr/cAy5jc53D93IVkpsF9ID0EhgggN+T1+SGw/kKV1lxkoPUus9Cbt3ggfX+Q/Gxcsh49rDbL3u+IdubANvxz2c/jdsFnr8yesAXuWBvF5ESUjy772kXt2YGScP4eimP5EuMwcL7Z8cUpXhESkjs5NZ9FnLrhoCvrChOXfFXwrNHOo8sBWJ4hs7ylPKQPgzPM1Js2ceeE2YIz0RaGFHkB3jAALfVrCo5YDMipH7BrycWxbVZad3ggfX+uuqvoG94axL7ooFgmmfrwHYcAs8oz4WfilsSSmeEMNJhUUMXJ/Rh5a6/hTvGs2J7HsqqQ7rr+WCewXa9Xo/6nw5VOjSIQPFs8e2ZwDMeyAJf8mfAN6BrPNFn6TwY5czKd3YBzl5ZgVNl3WeQe2Eauno/eT73AkBHVS7S7gnPYmSj7gcNMFvLmMb7A2qwF5PF3AF7iPKU8AkqgclsfisMnY0q0yI01/PJGU8hgRLhWezTBZ7nVO9jBbH4nWGe6fp3Qpdh/PPIEATV0dfQw6+I4Vll3WdRPpUe6On9ap6hjynCPEsyTzFPYXIw1zzw+QOOn9+pjWNEC/Pk6NsQeF4cR/v3HbQC03FwUEjz7BXJdCnU1g0ByNVbJrERoeTZOpOaSOJn8WWKPI/ZhhHYgI2dEM9M6Ip5ZvJgOc+DZzu4qIH8UlI0z0rrPov8MSsGenq/0r9BM4p5lng0JDpSj+uBoM+ch+NduoXAPNONtpTnCbAVHFI8K637XMnoT6oIbvZaa/n7JTzDJA9ZMs0q5lnSnMl00UHIX9V+J3sxz7RSRnim7yzheaX2fVI8n8t0ghUnUyG9v2Rqw4LwnKr1QRhuYi4RqMzzk7c3OaYBxLtxXl6H5zcq7ITAtSzfJ6Ns+Lx1sX6keh410Go/sI7eT+Ln8fyChSwOr8xz0lF9cUwDPKarw/OIEOg6u/66dzwORuhGmOeioVeMfOsGj7WG3i/XRTnU4Dl52KVj0V+vj2jV4JkSn8M1ut9AiJ9zrPssqjW1SP4r62uhcTuek9O2rk89MbqDBs/YzAddcpiQp+RY91lUtduiTL6G3n9LnhMcXSJ5hlmsqsEzFjpnVPQn8GyVrc5F1g0eeMJKdV/LjXlOqMJaOzpZg2fS5FMH9bh8MM+6z8Kvus5Ufb3/5jxjgxrmVYNn1DwzduQ+2w/mWvdZVE7tpqhCV9b7b88zzsOb5JlKJfF0yoznXOs+i+oBGnL4Vtb7m+f5yPONen+UFGrwjHVSStTrs/FzrnWfo3lfhiEGi7p6f/M8r16emTwHL8aAFl/Q4BnX1RDXp5jocheeSw29ygpQEqjSVPX3N8/zFwS+edgi/9wJp8DIqa3B8zdRy9OXdvqghnAvPOdb91mUsW7wQKpvufFbglvwfCHGtR3/bbXaONjDhceeNHiekEbBt99Wm5BxiCU8L8rpR2yJKwF9UhX9/TfiOWWHUS4jNESgk3fTI9jo6u4n4fm7QnWuk9bV1vtvyTMDH48Q6fC8FUdJ/CVKH8zCKRIMqn76GVA7aFby9/8UzzbpoLX0unc+CbH3eDalSRY1KoOaEx6R3l8tmWye54MksAIRJfRq8fz0xlw+tfJm33JFnmc1F2lFY9WV/P37wEph5hw0/JcdJJlSOIiyff+QQX8EQx/glhkmXaL5TZPnoDsyPL9kW1/o8ZQ4O9anasE6QvoFdMPPlKswLUG1dqPuxJ5eHb1/0EPIO2qbHbMV06BXvI8U+/W4PEDHdMLQMeEhPrEPhO9I16cpvgzdj59kpfN6B9tMrmwdRigwS59iS+Zjl0D9SU5I73eLD/0ReAlud2lpbZyUchNcIRlTLgkdvb8tKDaWI9RnSUfvbwvKq3VB/V85auj9rUGcP/uVYFb/HnjCShvmsdaF8CM2OapLyBT0/f2/HyUtMlrr4OIJKzov67ejcMrgFYXTjXNRW+9vEYalxmGrWTd41Nb724Qy81KKpxvnA82d+dPr95cQ+4XJLBVRV+9vFbxio0xV64aAmnp/u1Bs5tf+RRjSKTXX8/nlKHTY1XPl00Dho9byJ78d8p+FEchXiq8EdIcKUy9aiAIbh/7/lPCQsF4g/uuhWDUhQy1PPo0j7mr/+M8g873mdawbGN5kH5LPpXB9pZYjd9m6mrMtEyy2b5FPx+d//q/IOXOBaq7AMzzFIOSyeq1VwFqBsbrlqDNLe3r8MsUZdaDsBPEWQ204r2zdGI92jkyeco2/nA4iKGWOSjGvN+nbtitrhNxo/8jr1/4YlAsSl7duvPbeTV/2voDlGOVX1285FLO8y/6nYx5DvtvLSPbNVe+Px3M0FKtelrFueJPn0JY18NANrG9+xvBfx0Qq+RdaNxbbjaK18M3N+k8LGgpIl1YL89rV4WkJQmm3B+zwWZh90+EK6a9K1VLm9LhypBUZWiGM/7aSkQ+J5K9yA1yDZEVr8b7tYot8vIurGEusG5cgeSZrLaA78/uTrrUohCjcCYrx61YdJO9GNe3ofw7CormsdeOkDpKd1bELksvjk2MxxK2Ad0yCZGm35wZg2QXJ1cCvzJh5ChbrLkhuFrxX147ng2836ILkpsH/uRvYXZB8C5Tx6nZBcgP4zvfqJkGy3QXJDSDPq9sFyQ1ioJD8L0pyFyQ3CIlXNwmS3S5Ibhj8QsVdkHwjLKi/Qbm289x1ezfC9DO4LDUALkHyH56P9gM4xRt43nfdnjb+B1UqyZ0I5iskAAAAAElFTkSuQmCC;" vertex="1" parent="KFt2AJulzjA8qmtgGQLa-9">
          <mxGeometry x="11.810000000000002" y="10" width="76.38" height="30" as="geometry" />
        </mxCell>
        <mxCell id="KFt2AJulzjA8qmtgGQLa-12" value="" style="endArrow=classic;startArrow=classic;html=1;rounded=0;exitX=1;exitY=0.5;exitDx=0;exitDy=0;" edge="1" parent="1" source="KFt2AJulzjA8qmtgGQLa-10">
          <mxGeometry width="50" height="50" relative="1" as="geometry">
            <mxPoint x="770" y="344" as="sourcePoint" />
            <mxPoint x="800" y="345" as="targetPoint" />
          </mxGeometry>
        </mxCell>
        <mxCell id="KFt2AJulzjA8qmtgGQLa-13" value="PostgreSQL" style="shape=cylinder3;whiteSpace=wrap;html=1;boundedLbl=1;backgroundOutline=1;size=15;" vertex="1" parent="1">
          <mxGeometry x="803" y="321.88" width="101" height="50" as="geometry" />
        </mxCell>
        <mxCell id="KFt2AJulzjA8qmtgGQLa-14" value="" style="shape=image;verticalLabelPosition=bottom;labelBackgroundColor=default;verticalAlign=top;aspect=fixed;imageAspect=0;image=https://www.vectorlogo.zone/logos/supabase/supabase-ar21.svg;clipPath=inset(20% 0% 21.67% 0%);" vertex="1" parent="1">
          <mxGeometry x="803" y="311.13" width="126" height="36.75" as="geometry" />
        </mxCell>
        <mxCell id="KFt2AJulzjA8qmtgGQLa-15" style="edgeStyle=orthogonalEdgeStyle;rounded=0;orthogonalLoop=1;jettySize=auto;html=1;exitX=0.5;exitY=1;exitDx=0;exitDy=0;" edge="1" parent="1">
          <mxGeometry relative="1" as="geometry">
            <mxPoint x="866" y="349.88" as="sourcePoint" />
            <mxPoint x="866" y="349.88" as="targetPoint" />
          </mxGeometry>
        </mxCell>
        <mxCell id="KFt2AJulzjA8qmtgGQLa-16" style="edgeStyle=orthogonalEdgeStyle;rounded=0;orthogonalLoop=1;jettySize=auto;html=1;exitX=0.5;exitY=1;exitDx=0;exitDy=0;exitPerimeter=0;" edge="1" parent="1">
          <mxGeometry relative="1" as="geometry">
            <mxPoint x="853.5" y="373.88" as="sourcePoint" />
            <mxPoint x="853.5" y="373.88" as="targetPoint" />
          </mxGeometry>
        </mxCell>
        <mxCell id="KFt2AJulzjA8qmtgGQLa-17" value="" style="endArrow=classic;html=1;rounded=0;exitX=0;exitY=0.5;exitDx=0;exitDy=0;entryX=0.75;entryY=1;entryDx=0;entryDy=0;" edge="1" parent="1" source="KFt2AJulzjA8qmtgGQLa-10" target="KFt2AJulzjA8qmtgGQLa-4">
          <mxGeometry width="50" height="50" relative="1" as="geometry">
            <mxPoint x="470" y="270" as="sourcePoint" />
            <mxPoint x="520" y="220" as="targetPoint" />
            <Array as="points">
              <mxPoint x="560" y="345" />
            </Array>
          </mxGeometry>
        </mxCell>
        <mxCell id="KFt2AJulzjA8qmtgGQLa-18" value="" style="endArrow=classic;html=1;rounded=0;exitX=0.25;exitY=1;exitDx=0;exitDy=0;entryX=0.52;entryY=1.073;entryDx=0;entryDy=0;entryPerimeter=0;" edge="1" parent="1" source="KFt2AJulzjA8qmtgGQLa-4" target="pFlyOmWqd4z21U9GxsCo-8">
          <mxGeometry width="50" height="50" relative="1" as="geometry">
            <mxPoint x="470" y="270" as="sourcePoint" />
            <mxPoint x="520" y="220" as="targetPoint" />
            <Array as="points">
              <mxPoint x="520" y="340" />
              <mxPoint x="348" y="340" />
            </Array>
          </mxGeometry>
        </mxCell>
        <mxCell id="KFt2AJulzjA8qmtgGQLa-19" value="" style="endArrow=classic;html=1;rounded=0;entryX=0.55;entryY=0.95;entryDx=0;entryDy=0;entryPerimeter=0;" edge="1" parent="1" target="pFlyOmWqd4z21U9GxsCo-1">
          <mxGeometry width="50" height="50" relative="1" as="geometry">
            <mxPoint x="330" y="300" as="sourcePoint" />
            <mxPoint x="520" y="220" as="targetPoint" />
            <Array as="points">
              <mxPoint x="330" y="340" />
              <mxPoint x="126" y="340" />
            </Array>
          </mxGeometry>
        </mxCell>
        <mxCell id="KFt2AJulzjA8qmtgGQLa-21" value="&lt;b&gt;1&lt;/b&gt;" style="text;html=1;align=center;verticalAlign=middle;resizable=0;points=[];autosize=1;strokeColor=none;fillColor=none;" vertex="1" parent="1">
          <mxGeometry x="178" y="223" width="30" height="30" as="geometry" />
        </mxCell>
        <mxCell id="KFt2AJulzjA8qmtgGQLa-22" value="&lt;b&gt;2&lt;/b&gt;" style="text;html=1;align=center;verticalAlign=middle;resizable=0;points=[];autosize=1;strokeColor=none;fillColor=none;" vertex="1" parent="1">
          <mxGeometry x="288" y="221" width="30" height="30" as="geometry" />
        </mxCell>
        <mxCell id="KFt2AJulzjA8qmtgGQLa-23" value="&lt;b&gt;3&lt;/b&gt;" style="text;html=1;align=center;verticalAlign=middle;resizable=0;points=[];autosize=1;strokeColor=none;fillColor=none;" vertex="1" parent="1">
          <mxGeometry x="370" y="220" width="30" height="30" as="geometry" />
        </mxCell>
        <mxCell id="KFt2AJulzjA8qmtgGQLa-26" value="&lt;b&gt;4&lt;/b&gt;" style="text;html=1;align=center;verticalAlign=middle;resizable=0;points=[];autosize=1;strokeColor=none;fillColor=none;" vertex="1" parent="1">
          <mxGeometry x="470" y="220" width="30" height="30" as="geometry" />
        </mxCell>
        <mxCell id="KFt2AJulzjA8qmtgGQLa-32" value="&lt;b&gt;6&lt;/b&gt;" style="text;html=1;align=center;verticalAlign=middle;resizable=0;points=[];autosize=1;strokeColor=none;fillColor=none;" vertex="1" parent="1">
          <mxGeometry x="670" y="281.13" width="30" height="30" as="geometry" />
        </mxCell>
        <mxCell id="KFt2AJulzjA8qmtgGQLa-33" value="&lt;b&gt;7&lt;/b&gt;" style="text;html=1;align=center;verticalAlign=middle;resizable=0;points=[];autosize=1;strokeColor=none;fillColor=none;" vertex="1" parent="1">
          <mxGeometry x="740" y="314.51" width="30" height="30" as="geometry" />
        </mxCell>
        <mxCell id="KFt2AJulzjA8qmtgGQLa-34" value="&lt;b&gt;8&lt;/b&gt;" style="text;html=1;align=center;verticalAlign=middle;resizable=0;points=[];autosize=1;strokeColor=none;fillColor=none;" vertex="1" parent="1">
          <mxGeometry x="570" y="317.88" width="30" height="30" as="geometry" />
        </mxCell>
        <mxCell id="KFt2AJulzjA8qmtgGQLa-35" value="&lt;b&gt;9&lt;/b&gt;" style="text;html=1;align=center;verticalAlign=middle;resizable=0;points=[];autosize=1;strokeColor=none;fillColor=none;" vertex="1" parent="1">
          <mxGeometry x="420" y="311.13" width="30" height="30" as="geometry" />
        </mxCell>
        <mxCell id="KFt2AJulzjA8qmtgGQLa-36" value="&lt;b&gt;10&lt;/b&gt;" style="text;html=1;align=center;verticalAlign=middle;resizable=0;points=[];autosize=1;strokeColor=none;fillColor=none;" vertex="1" parent="1">
          <mxGeometry x="205" y="311.13" width="40" height="30" as="geometry" />
        </mxCell>
        <mxCell id="KFt2AJulzjA8qmtgGQLa-37" value="User Service" style="swimlane;whiteSpace=wrap;html=1;" vertex="1" parent="1">
          <mxGeometry x="180" y="143.13" width="600" height="276.87" as="geometry" />
        </mxCell>
        <mxCell id="pLG9VIcLoABuIZMHOQpT-4" value="authenticate" style="text;html=1;align=center;verticalAlign=middle;resizable=0;points=[];autosize=1;strokeColor=none;fillColor=none;" vertex="1" parent="KFt2AJulzjA8qmtgGQLa-37">
          <mxGeometry x="162" y="35.870000000000005" width="90" height="30" as="geometry" />
        </mxCell>
        <mxCell id="KFt2AJulzjA8qmtgGQLa-27" value="&lt;b&gt;5&lt;/b&gt;" style="text;html=1;align=center;verticalAlign=middle;resizable=0;points=[];autosize=1;strokeColor=none;fillColor=none;" vertex="1" parent="KFt2AJulzjA8qmtgGQLa-37">
          <mxGeometry x="400" y="76.87" width="30" height="30" as="geometry" />
        </mxCell>
        <mxCell id="pLG9VIcLoABuIZMHOQpT-2" value="" style="endArrow=classic;startArrow=classic;html=1;rounded=0;entryX=0.5;entryY=1;entryDx=0;entryDy=0;" edge="1" parent="1" target="pLG9VIcLoABuIZMHOQpT-3">
          <mxGeometry width="50" height="50" relative="1" as="geometry">
            <mxPoint x="430" y="220" as="sourcePoint" />
            <mxPoint x="390" y="100" as="targetPoint" />
            <Array as="points">
              <mxPoint x="430" y="180" />
              <mxPoint x="380" y="180" />
            </Array>
          </mxGeometry>
        </mxCell>
        <mxCell id="pLG9VIcLoABuIZMHOQpT-3" value="Auth Service" style="rounded=0;whiteSpace=wrap;html=1;" vertex="1" parent="1">
          <mxGeometry x="320" y="48" width="120" height="60" as="geometry" />
        </mxCell>
        <mxCell id="eEsX-ZVwQeLURF7r1dFS-1" value="" style="endArrow=classic;startArrow=classic;html=1;rounded=0;entryX=0;entryY=0.5;entryDx=0;entryDy=0;" edge="1" parent="1">
          <mxGeometry width="50" height="50" relative="1" as="geometry">
            <mxPoint x="370" y="249" as="sourcePoint" />
            <mxPoint x="400" y="249" as="targetPoint" />
          </mxGeometry>
        </mxCell>
        <mxCell id="eEsX-ZVwQeLURF7r1dFS-2" value="" style="endArrow=classic;startArrow=classic;html=1;rounded=0;entryX=0;entryY=0.5;entryDx=0;entryDy=0;" edge="1" parent="1" source="KFt2AJulzjA8qmtgGQLa-4" target="KFt2AJulzjA8qmtgGQLa-6">
          <mxGeometry width="50" height="50" relative="1" as="geometry">
            <mxPoint x="583" y="250" as="sourcePoint" />
            <mxPoint x="625" y="250" as="targetPoint" />
          </mxGeometry>
        </mxCell>
        <mxCell id="eEsX-ZVwQeLURF7r1dFS-4" value="" style="endArrow=classic;startArrow=classic;html=1;rounded=0;exitX=0.875;exitY=0.5;exitDx=0;exitDy=0;exitPerimeter=0;" edge="1" parent="1" source="pFlyOmWqd4z21U9GxsCo-1" target="pFlyOmWqd4z21U9GxsCo-4">
          <mxGeometry width="50" height="50" relative="1" as="geometry">
            <mxPoint x="470" y="270" as="sourcePoint" />
            <mxPoint x="520" y="220" as="targetPoint" />
          </mxGeometry>
        </mxCell>
      </root>
    </mxGraphModel>
  </diagram>
  <diagram id="FX6pdzQrq8p-GI4c3Nc-" name="createQuestion flow">
    <mxGraphModel grid="1" page="1" gridSize="10" guides="1" tooltips="1" connect="1" arrows="1" fold="1" pageScale="1" pageWidth="850" pageHeight="1100" math="0" shadow="0">
      <root>
        <mxCell id="0" />
        <mxCell id="1" parent="0" />
        <mxCell id="Y7c0XTEK5JKsz9khL395-1" value="Cloud" style="ellipse;shape=cloud;whiteSpace=wrap;html=1;" vertex="1" parent="1">
          <mxGeometry x="60" y="210" width="120" height="80" as="geometry" />
        </mxCell>
        <mxCell id="Y7c0XTEK5JKsz9khL395-3" value="CORS &lt;br&gt;Middleware" style="rounded=0;whiteSpace=wrap;html=1;" vertex="1" parent="1">
          <mxGeometry x="220" y="220" width="70" height="60" as="geometry" />
        </mxCell>
        <mxCell id="Y7c0XTEK5JKsz9khL395-4" value="" style="endArrow=classic;html=1;rounded=0;exitX=1;exitY=0.5;exitDx=0;exitDy=0;entryX=-0.088;entryY=0.636;entryDx=0;entryDy=0;entryPerimeter=0;" edge="1" parent="1" source="Y7c0XTEK5JKsz9khL395-3" target="Y7c0XTEK5JKsz9khL395-6">
          <mxGeometry width="50" height="50" relative="1" as="geometry">
            <mxPoint x="400" y="330" as="sourcePoint" />
            <mxPoint x="560" y="250" as="targetPoint" />
          </mxGeometry>
        </mxCell>
        <mxCell id="Y7c0XTEK5JKsz9khL395-5" value="" style="group" connectable="0" vertex="1" parent="1">
          <mxGeometry x="306" y="225" width="80" height="69" as="geometry" />
        </mxCell>
        <mxCell id="Y7c0XTEK5JKsz9khL395-6" value="" style="sketch=0;aspect=fixed;pointerEvents=1;shadow=0;dashed=0;html=1;strokeColor=none;labelPosition=center;verticalLabelPosition=bottom;verticalAlign=top;align=center;fillColor=#00188D;shape=mxgraph.mscae.enterprise.router" vertex="1" parent="Y7c0XTEK5JKsz9khL395-5">
          <mxGeometry x="15" width="50" height="39" as="geometry" />
        </mxCell>
        <mxCell id="Y7c0XTEK5JKsz9khL395-7" value="App Router" style="text;html=1;align=center;verticalAlign=middle;resizable=0;points=[];autosize=1;strokeColor=none;fillColor=none;" vertex="1" parent="Y7c0XTEK5JKsz9khL395-5">
          <mxGeometry y="39" width="80" height="30" as="geometry" />
        </mxCell>
        <mxCell id="Y7c0XTEK5JKsz9khL395-8" value="Auth &lt;br&gt;Middleware" style="rounded=0;whiteSpace=wrap;html=1;" vertex="1" parent="1">
          <mxGeometry x="400" y="220" width="70" height="60" as="geometry" />
        </mxCell>
        <mxCell id="Y7c0XTEK5JKsz9khL395-10" value="" style="endArrow=classic;html=1;rounded=0;exitX=1;exitY=0.5;exitDx=0;exitDy=0;entryX=0;entryY=0.5;entryDx=0;entryDy=0;" edge="1" parent="1" source="Y7c0XTEK5JKsz9khL395-8" target="Y7c0XTEK5JKsz9khL395-11">
          <mxGeometry width="50" height="50" relative="1" as="geometry">
            <mxPoint x="820" y="250" as="sourcePoint" />
            <mxPoint x="870" y="250" as="targetPoint" />
          </mxGeometry>
        </mxCell>
        <mxCell id="Y7c0XTEK5JKsz9khL395-46" value="" style="edgeStyle=orthogonalEdgeStyle;rounded=0;orthogonalLoop=1;jettySize=auto;html=1;" edge="1" parent="1" source="Y7c0XTEK5JKsz9khL395-11">
          <mxGeometry relative="1" as="geometry">
            <mxPoint x="660" y="250" as="targetPoint" />
          </mxGeometry>
        </mxCell>
        <mxCell id="Y7c0XTEK5JKsz9khL395-11" value="POST question handler" style="rounded=0;whiteSpace=wrap;html=1;" vertex="1" parent="1">
          <mxGeometry x="500" y="220" width="80" height="60" as="geometry" />
        </mxCell>
        <mxCell id="Y7c0XTEK5JKsz9khL395-13" value="Validator" style="rounded=0;whiteSpace=wrap;html=1;" vertex="1" parent="1">
          <mxGeometry x="613" y="220" width="120" height="60" as="geometry" />
        </mxCell>
        <mxCell id="Y7c0XTEK5JKsz9khL395-14" value="" style="endArrow=classic;html=1;rounded=0;exitX=0.5;exitY=1;exitDx=0;exitDy=0;entryX=0.5;entryY=0;entryDx=0;entryDy=0;" edge="1" parent="1" source="Y7c0XTEK5JKsz9khL395-13" target="Y7c0XTEK5JKsz9khL395-16">
          <mxGeometry width="50" height="50" relative="1" as="geometry">
            <mxPoint x="470" y="270" as="sourcePoint" />
            <mxPoint x="660" y="320" as="targetPoint" />
          </mxGeometry>
        </mxCell>
        <mxCell id="Y7c0XTEK5JKsz9khL395-15" value="" style="group" connectable="0" vertex="1" parent="1">
          <mxGeometry x="623" y="319.88" width="100" height="50" as="geometry" />
        </mxCell>
        <mxCell id="Y7c0XTEK5JKsz9khL395-16" value="" style="rounded=0;whiteSpace=wrap;html=1;" vertex="1" parent="Y7c0XTEK5JKsz9khL395-15">
          <mxGeometry width="100" height="50" as="geometry" />
        </mxCell>
        <mxCell id="Y7c0XTEK5JKsz9khL395-17" value="" style="shape=image;verticalLabelPosition=bottom;labelBackgroundColor=default;verticalAlign=top;aspect=fixed;imageAspect=0;image=data:image/png,iVBORw0KGgoAAAANSUhEUgAAAWcAAACNCAMAAABczkvvAAAAkFBMVEX///8MNEsALEUAEzYAJUAAHTsAFTcAMEifqK8AKENqeoby9PUAIj67wcYAGjn5+vuGkpvP1NizusAAGDjf4+UAHTwADjPJztLV2dxzgYxOYnGOmaEsSFuWoKh8iZMfP1RfcH1BWGhYangAAC+krLPBx8zd4eMAACg1TmASOE48VGUxS14jQlZTZnUAACFufYiG9o1pAAAN40lEQVR4nO1d6WKyOhQsYYkI4oLijtpqv9rl9v3f7qKQPWELVkuZn6xhCMk5k0l4eqqL8bq/jwe1T+9QCotz4AII/PB475K0GoMXaKRwlvcuS4vx+mJghL17l6a92EDCs2F69y5OW3G0KZoNd3Tv8rQUXmgwCIf3LlE7sQcsz9b23iVqJeaOwcG6d5FaCQPyPPtdEN081hZPs2HAexeqfZhGIs2GPbl3sVqHA5DwDHf3LlbbMAkkNCcV+nTvgrULQ0njfK3Qb/cuWbuwdOU8G+H43kVrExZ8JwhQjAdX9y5bm7DhQme//4ykDvP13oVrD3o+1/tNn54GWccI9vcuXWvgcQl3Su17VsfN6Z2L1xo88/rRVeE/oQrdDaw0gxOvH9nz6/ZPVKE7vb8RQF4/ilLdeZJ1hZ3e3whGfIqCk220odP7G4CoH4HvbNcxC0M6vb8BvAuqs4VVZ1TT/XsWsB2YzHiaDXuBdm4zoju9XxdDW6DZiMheJOJ1er8m+qJ+REt0o2y33+n9WhibYnUGMdnvmVwI0qEWdkInyNXdZZYqdnq/Dra+SLMR0gIdivo6vV8DnqTVMAyHOQZ5Zzq9vz5W0qHXA3PMa/YuQKf318UglNAsqBkrpCYt5FfpUARZbU66QW7KxDhT8zq9vyZi+dBryMv6KDGPOr2/Dl5l/iNDomV0er8WPiSh84XNZ+FIpPdHnd5fHUeJsHHtBkUNtNP764O37mPIEj+0z+n0/qrgrfsYssHATu+vi7k0E0wApQpop/fXhGjdR91gX3Z4p/fXg8y6nzUN0smZWO8HP13SXw2pdT+FLZeLOr2/Dg6qVgNbN3g8mN4/2O+MzfLRBReFdT+XR6T3zx5hwYi9A6ABwctjT0AfysR91P6qcutH0vsHyKf28tAJqtK6b9DWDR5Y75/r3n8fzSjYM7A7xMcqbcA3iv0furcQrPs0AuXzNqf39/kUCUJgBXZc2s+OhyceOm/irfsMIvV5jen9As/ZC4z2JZsBnMuqv777g7fuszUrp/VtTO9X8Jxc2Sk3qI6yJiN63IiDt+6zcOOcU98a0vuVPCeXLtXgDsO0JL4o4T4MeOs+i9yOBev93zkHlUAOz8ZLqRo6fYtse/bywOMOgnWfhTBmxaAhvZ/wDC9gCgDP5a4xnZ/GjyzS5vWBF55zT8Z6f17rUgzMM/zcJXCjgAo02zFxX7DusyiK2fCSa1pVCfPsZhumW4tU8Y3OpR8EOfpR+uDr/POx3l9wXD4wz2S1miFZLKENs+hE6z4L3rohAH0Otk4pJDxTDRrqiufjC+boy1msV2cLfFx3euk+am8KbzB6fjNcYBz66wHzurKLZf3K9Lj/gO75sDzSB43XX58A7FYjRXA5ncRfn3YYhv5mv81NiiXWfRZOUV3Cer+OgiPl+YheYfZNDf+zL/iXPtDrwXQvZ9nXxGTwz07xH90hDw6R76bT0iFwfccYEYk3uh6e6k7Tr8gCl+4XAj9aofjmeA7ddKNrh+J483zphr6bddpJ+jqbjZTBQJ5+JD64/BJo9FZH75fyPMVXTqO1YZrmp5l1LwL0BzdAD+KQZ51uAv5jdcNzL6vwaUd77X62ER1WwujKqfdh02dbgAkvhz0jEGJR11Ql/RLrPguJdYNHE3q/lOcnPGKzT5/NJNQs8dh8OoFUwvM8kjWJ0Mh2Z6WOhk8xP84fJMGTZ3E0QiaOj+XB8ExOl8y6z6KELOMheVRD75fzjNqN7GVnPF8izRGRy4Or1iTyrOjg8XAmqh3ziUiZOXjaCbUVulTRPJVzSzqWKrPus7BLSJ4x8vfX1/sL6nNaeMRz8DqnnjK8EivyrPBWzVA/mfEMRUIvW2XKGhNSKZyIhiMhQWrd504rkedhvf+jKr0Y8vYZ8ZwlQYhnEH9SLKQTcwWex7gxAHZoOqFtQepST5hnA/VjgOFbthXSPVBaoZN+M3AS2CTYF7PXfP0oQxWW6uv9Up63iIpM60Q8k4VtLml66h8ReB7hk/dzb+hN59t3M6GahOJ0fYThrr/cAy5jc53D93IVkpsF9ID0EhgggN+T1+SGw/kKV1lxkoPUus9Cbt3ggfX+Q/Gxcsh49rDbL3u+IdubANvxz2c/jdsFnr8yesAXuWBvF5ESUjy772kXt2YGScP4eimP5EuMwcL7Z8cUpXhESkjs5NZ9FnLrhoCvrChOXfFXwrNHOo8sBWJ4hs7ylPKQPgzPM1Js2ceeE2YIz0RaGFHkB3jAALfVrCo5YDMipH7BrycWxbVZad3ggfX+uuqvoG94axL7ooFgmmfrwHYcAs8oz4WfilsSSmeEMNJhUUMXJ/Rh5a6/hTvGs2J7HsqqQ7rr+WCewXa9Xo/6nw5VOjSIQPFs8e2ZwDMeyAJf8mfAN6BrPNFn6TwY5czKd3YBzl5ZgVNl3WeQe2Eauno/eT73AkBHVS7S7gnPYmSj7gcNMFvLmMb7A2qwF5PF3AF7iPKU8AkqgclsfisMnY0q0yI01/PJGU8hgRLhWezTBZ7nVO9jBbH4nWGe6fp3Qpdh/PPIEATV0dfQw6+I4Vll3WdRPpUe6On9ap6hjynCPEsyTzFPYXIw1zzw+QOOn9+pjWNEC/Pk6NsQeF4cR/v3HbQC03FwUEjz7BXJdCnU1g0ByNVbJrERoeTZOpOaSOJn8WWKPI/ZhhHYgI2dEM9M6Ip5ZvJgOc+DZzu4qIH8UlI0z0rrPov8MSsGenq/0r9BM4p5lng0JDpSj+uBoM+ch+NduoXAPNONtpTnCbAVHFI8K637XMnoT6oIbvZaa/n7JTzDJA9ZMs0q5lnSnMl00UHIX9V+J3sxz7RSRnim7yzheaX2fVI8n8t0ghUnUyG9v2Rqw4LwnKr1QRhuYi4RqMzzk7c3OaYBxLtxXl6H5zcq7ITAtSzfJ6Ns+Lx1sX6keh410Go/sI7eT+Ln8fyChSwOr8xz0lF9cUwDPKarw/OIEOg6u/66dzwORuhGmOeioVeMfOsGj7WG3i/XRTnU4Dl52KVj0V+vj2jV4JkSn8M1ut9AiJ9zrPssqjW1SP4r62uhcTuek9O2rk89MbqDBs/YzAddcpiQp+RY91lUtduiTL6G3n9LnhMcXSJ5hlmsqsEzFjpnVPQn8GyVrc5F1g0eeMJKdV/LjXlOqMJaOzpZg2fS5FMH9bh8MM+6z8Kvus5Ufb3/5jxjgxrmVYNn1DwzduQ+2w/mWvdZVE7tpqhCV9b7b88zzsOb5JlKJfF0yoznXOs+i+oBGnL4Vtb7m+f5yPONen+UFGrwjHVSStTrs/FzrnWfo3lfhiEGi7p6f/M8r16emTwHL8aAFl/Q4BnX1RDXp5jocheeSw29ygpQEqjSVPX3N8/zFwS+edgi/9wJp8DIqa3B8zdRy9OXdvqghnAvPOdb91mUsW7wQKpvufFbglvwfCHGtR3/bbXaONjDhceeNHiekEbBt99Wm5BxiCU8L8rpR2yJKwF9UhX9/TfiOWWHUS4jNESgk3fTI9jo6u4n4fm7QnWuk9bV1vtvyTMDH48Q6fC8FUdJ/CVKH8zCKRIMqn76GVA7aFby9/8UzzbpoLX0unc+CbH3eDalSRY1KoOaEx6R3l8tmWye54MksAIRJfRq8fz0xlw+tfJm33JFnmc1F2lFY9WV/P37wEph5hw0/JcdJJlSOIiyff+QQX8EQx/glhkmXaL5TZPnoDsyPL9kW1/o8ZQ4O9anasE6QvoFdMPPlKswLUG1dqPuxJ5eHb1/0EPIO2qbHbMV06BXvI8U+/W4PEDHdMLQMeEhPrEPhO9I16cpvgzdj59kpfN6B9tMrmwdRigwS59iS+Zjl0D9SU5I73eLD/0ReAlud2lpbZyUchNcIRlTLgkdvb8tKDaWI9RnSUfvbwvKq3VB/V85auj9rUGcP/uVYFb/HnjCShvmsdaF8CM2OapLyBT0/f2/HyUtMlrr4OIJKzov67ejcMrgFYXTjXNRW+9vEYalxmGrWTd41Nb724Qy81KKpxvnA82d+dPr95cQ+4XJLBVRV+9vFbxio0xV64aAmnp/u1Bs5tf+RRjSKTXX8/nlKHTY1XPl00Dho9byJ78d8p+FEchXiq8EdIcKUy9aiAIbh/7/lPCQsF4g/uuhWDUhQy1PPo0j7mr/+M8g873mdawbGN5kH5LPpXB9pZYjd9m6mrMtEyy2b5FPx+d//q/IOXOBaq7AMzzFIOSyeq1VwFqBsbrlqDNLe3r8MsUZdaDsBPEWQ204r2zdGI92jkyeco2/nA4iKGWOSjGvN+nbtitrhNxo/8jr1/4YlAsSl7duvPbeTV/2voDlGOVX1285FLO8y/6nYx5DvtvLSPbNVe+Px3M0FKtelrFueJPn0JY18NANrG9+xvBfx0Qq+RdaNxbbjaK18M3N+k8LGgpIl1YL89rV4WkJQmm3B+zwWZh90+EK6a9K1VLm9LhypBUZWiGM/7aSkQ+J5K9yA1yDZEVr8b7tYot8vIurGEusG5cgeSZrLaA78/uTrrUohCjcCYrx61YdJO9GNe3ofw7CormsdeOkDpKd1bELksvjk2MxxK2Ad0yCZGm35wZg2QXJ1cCvzJh5ChbrLkhuFrxX147ng2836ILkpsH/uRvYXZB8C5Tx6nZBcgP4zvfqJkGy3QXJDSDPq9sFyQ1ioJD8L0pyFyQ3CIlXNwmS3S5Ibhj8QsVdkHwjLKi/Qbm289x1ezfC9DO4LDUALkHyH56P9gM4xRt43nfdnjb+B1UqyZ0I5iskAAAAAElFTkSuQmCC;" vertex="1" parent="Y7c0XTEK5JKsz9khL395-15">
          <mxGeometry x="11.810000000000002" y="10" width="76.38" height="30" as="geometry" />
        </mxCell>
        <mxCell id="Y7c0XTEK5JKsz9khL395-18" value="" style="endArrow=classic;startArrow=classic;html=1;rounded=0;exitX=1;exitY=0.5;exitDx=0;exitDy=0;" edge="1" parent="1" source="Y7c0XTEK5JKsz9khL395-16">
          <mxGeometry width="50" height="50" relative="1" as="geometry">
            <mxPoint x="770" y="344" as="sourcePoint" />
            <mxPoint x="800" y="345" as="targetPoint" />
          </mxGeometry>
        </mxCell>
        <mxCell id="Y7c0XTEK5JKsz9khL395-19" value="PostgreSQL" style="shape=cylinder3;whiteSpace=wrap;html=1;boundedLbl=1;backgroundOutline=1;size=15;" vertex="1" parent="1">
          <mxGeometry x="803" y="321.88" width="101" height="50" as="geometry" />
        </mxCell>
        <mxCell id="Y7c0XTEK5JKsz9khL395-20" value="" style="shape=image;verticalLabelPosition=bottom;labelBackgroundColor=default;verticalAlign=top;aspect=fixed;imageAspect=0;image=https://www.vectorlogo.zone/logos/supabase/supabase-ar21.svg;clipPath=inset(20% 0% 21.67% 0%);" vertex="1" parent="1">
          <mxGeometry x="803" y="311.13" width="126" height="36.75" as="geometry" />
        </mxCell>
        <mxCell id="Y7c0XTEK5JKsz9khL395-21" style="edgeStyle=orthogonalEdgeStyle;rounded=0;orthogonalLoop=1;jettySize=auto;html=1;exitX=0.5;exitY=1;exitDx=0;exitDy=0;" edge="1" parent="1">
          <mxGeometry relative="1" as="geometry">
            <mxPoint x="866" y="349.88" as="sourcePoint" />
            <mxPoint x="866" y="349.88" as="targetPoint" />
          </mxGeometry>
        </mxCell>
        <mxCell id="Y7c0XTEK5JKsz9khL395-22" style="edgeStyle=orthogonalEdgeStyle;rounded=0;orthogonalLoop=1;jettySize=auto;html=1;exitX=0.5;exitY=1;exitDx=0;exitDy=0;exitPerimeter=0;" edge="1" parent="1">
          <mxGeometry relative="1" as="geometry">
            <mxPoint x="853.5" y="373.88" as="sourcePoint" />
            <mxPoint x="853.5" y="373.88" as="targetPoint" />
          </mxGeometry>
        </mxCell>
        <mxCell id="Y7c0XTEK5JKsz9khL395-23" value="" style="endArrow=classic;html=1;rounded=0;exitX=0;exitY=0.5;exitDx=0;exitDy=0;entryX=0.75;entryY=1;entryDx=0;entryDy=0;" edge="1" parent="1" source="Y7c0XTEK5JKsz9khL395-16" target="Y7c0XTEK5JKsz9khL395-11">
          <mxGeometry width="50" height="50" relative="1" as="geometry">
            <mxPoint x="470" y="270" as="sourcePoint" />
            <mxPoint x="520" y="220" as="targetPoint" />
            <Array as="points">
              <mxPoint x="560" y="345" />
            </Array>
          </mxGeometry>
        </mxCell>
        <mxCell id="Y7c0XTEK5JKsz9khL395-24" value="" style="endArrow=classic;html=1;rounded=0;exitX=0.25;exitY=1;exitDx=0;exitDy=0;entryX=0.52;entryY=1.073;entryDx=0;entryDy=0;entryPerimeter=0;" edge="1" parent="1" source="Y7c0XTEK5JKsz9khL395-11" target="Y7c0XTEK5JKsz9khL395-7">
          <mxGeometry width="50" height="50" relative="1" as="geometry">
            <mxPoint x="470" y="270" as="sourcePoint" />
            <mxPoint x="520" y="220" as="targetPoint" />
            <Array as="points">
              <mxPoint x="520" y="340" />
              <mxPoint x="348" y="340" />
            </Array>
          </mxGeometry>
        </mxCell>
        <mxCell id="Y7c0XTEK5JKsz9khL395-25" value="" style="endArrow=classic;html=1;rounded=0;entryX=0.55;entryY=0.95;entryDx=0;entryDy=0;entryPerimeter=0;" edge="1" parent="1" target="Y7c0XTEK5JKsz9khL395-1">
          <mxGeometry width="50" height="50" relative="1" as="geometry">
            <mxPoint x="330" y="300" as="sourcePoint" />
            <mxPoint x="520" y="220" as="targetPoint" />
            <Array as="points">
              <mxPoint x="330" y="340" />
              <mxPoint x="126" y="340" />
            </Array>
          </mxGeometry>
        </mxCell>
        <mxCell id="Y7c0XTEK5JKsz9khL395-27" value="&lt;b&gt;2&lt;/b&gt;" style="text;html=1;align=center;verticalAlign=middle;resizable=0;points=[];autosize=1;strokeColor=none;fillColor=none;" vertex="1" parent="1">
          <mxGeometry x="288" y="221" width="30" height="30" as="geometry" />
        </mxCell>
        <mxCell id="Y7c0XTEK5JKsz9khL395-28" value="&lt;b&gt;3&lt;/b&gt;" style="text;html=1;align=center;verticalAlign=middle;resizable=0;points=[];autosize=1;strokeColor=none;fillColor=none;" vertex="1" parent="1">
          <mxGeometry x="370" y="220" width="30" height="30" as="geometry" />
        </mxCell>
        <mxCell id="Y7c0XTEK5JKsz9khL395-29" value="&lt;b&gt;4&lt;/b&gt;" style="text;html=1;align=center;verticalAlign=middle;resizable=0;points=[];autosize=1;strokeColor=none;fillColor=none;" vertex="1" parent="1">
          <mxGeometry x="470" y="220" width="30" height="30" as="geometry" />
        </mxCell>
        <mxCell id="Y7c0XTEK5JKsz9khL395-30" value="&lt;b&gt;5&lt;/b&gt;" style="text;html=1;align=center;verticalAlign=middle;resizable=0;points=[];autosize=1;strokeColor=none;fillColor=none;" vertex="1" parent="1">
          <mxGeometry x="581" y="220" width="30" height="30" as="geometry" />
        </mxCell>
        <mxCell id="Y7c0XTEK5JKsz9khL395-31" value="&lt;b&gt;6&lt;/b&gt;" style="text;html=1;align=center;verticalAlign=middle;resizable=0;points=[];autosize=1;strokeColor=none;fillColor=none;" vertex="1" parent="1">
          <mxGeometry x="670" y="281.13" width="30" height="30" as="geometry" />
        </mxCell>
        <mxCell id="Y7c0XTEK5JKsz9khL395-32" value="&lt;b&gt;7&lt;/b&gt;" style="text;html=1;align=center;verticalAlign=middle;resizable=0;points=[];autosize=1;strokeColor=none;fillColor=none;" vertex="1" parent="1">
          <mxGeometry x="740" y="314.51" width="30" height="30" as="geometry" />
        </mxCell>
        <mxCell id="Y7c0XTEK5JKsz9khL395-33" value="&lt;b&gt;8&lt;/b&gt;" style="text;html=1;align=center;verticalAlign=middle;resizable=0;points=[];autosize=1;strokeColor=none;fillColor=none;" vertex="1" parent="1">
          <mxGeometry x="570" y="317.88" width="30" height="30" as="geometry" />
        </mxCell>
        <mxCell id="Y7c0XTEK5JKsz9khL395-34" value="&lt;b&gt;9&lt;/b&gt;" style="text;html=1;align=center;verticalAlign=middle;resizable=0;points=[];autosize=1;strokeColor=none;fillColor=none;" vertex="1" parent="1">
          <mxGeometry x="420" y="311.13" width="30" height="30" as="geometry" />
        </mxCell>
        <mxCell id="Y7c0XTEK5JKsz9khL395-35" value="&lt;b&gt;10&lt;/b&gt;" style="text;html=1;align=center;verticalAlign=middle;resizable=0;points=[];autosize=1;strokeColor=none;fillColor=none;" vertex="1" parent="1">
          <mxGeometry x="205" y="311.13" width="40" height="30" as="geometry" />
        </mxCell>
        <mxCell id="Y7c0XTEK5JKsz9khL395-36" value="Question Service" style="swimlane;whiteSpace=wrap;html=1;" vertex="1" parent="1">
          <mxGeometry x="180" y="143.13" width="600" height="276.87" as="geometry" />
        </mxCell>
        <mxCell id="Y7c0XTEK5JKsz9khL395-37" value="authenticate and check role" style="text;html=1;align=center;verticalAlign=middle;resizable=0;points=[];autosize=1;strokeColor=none;fillColor=none;" vertex="1" parent="Y7c0XTEK5JKsz9khL395-36">
          <mxGeometry x="81" y="36.870000000000005" width="170" height="30" as="geometry" />
        </mxCell>
        <mxCell id="Y7c0XTEK5JKsz9khL395-26" value="&lt;b&gt;1&lt;/b&gt;" style="text;html=1;align=center;verticalAlign=middle;resizable=0;points=[];autosize=1;strokeColor=none;fillColor=none;" vertex="1" parent="Y7c0XTEK5JKsz9khL395-36">
          <mxGeometry x="-4" y="78.87" width="30" height="30" as="geometry" />
        </mxCell>
        <mxCell id="Y7c0XTEK5JKsz9khL395-38" value="" style="endArrow=classic;startArrow=classic;html=1;rounded=0;entryX=0.5;entryY=1;entryDx=0;entryDy=0;" edge="1" parent="1" target="Y7c0XTEK5JKsz9khL395-39">
          <mxGeometry width="50" height="50" relative="1" as="geometry">
            <mxPoint x="430" y="220" as="sourcePoint" />
            <mxPoint x="390" y="100" as="targetPoint" />
            <Array as="points">
              <mxPoint x="430" y="180" />
              <mxPoint x="380" y="180" />
            </Array>
          </mxGeometry>
        </mxCell>
        <mxCell id="Y7c0XTEK5JKsz9khL395-39" value="Auth Service" style="rounded=0;whiteSpace=wrap;html=1;" vertex="1" parent="1">
          <mxGeometry x="320" y="48" width="120" height="60" as="geometry" />
        </mxCell>
        <mxCell id="Y7c0XTEK5JKsz9khL395-42" value="" style="endArrow=classic;startArrow=classic;html=1;rounded=0;entryX=0;entryY=0.5;entryDx=0;entryDy=0;exitX=1;exitY=0.5;exitDx=0;exitDy=0;" edge="1" parent="1" source="Y7c0XTEK5JKsz9khL395-11" target="Y7c0XTEK5JKsz9khL395-13">
          <mxGeometry width="50" height="50" relative="1" as="geometry">
            <mxPoint x="400" y="330" as="sourcePoint" />
            <mxPoint x="450" y="280" as="targetPoint" />
          </mxGeometry>
        </mxCell>
        <mxCell id="Y7c0XTEK5JKsz9khL395-44" value="" style="endArrow=classic;startArrow=classic;html=1;rounded=0;entryX=0;entryY=0.5;entryDx=0;entryDy=0;" edge="1" parent="1">
          <mxGeometry width="50" height="50" relative="1" as="geometry">
            <mxPoint x="370" y="249" as="sourcePoint" />
            <mxPoint x="400" y="249" as="targetPoint" />
          </mxGeometry>
        </mxCell>
        <mxCell id="7a4fIMH_2Hzx6rQk_7m7-2" value="" style="endArrow=classic;startArrow=classic;html=1;rounded=0;exitX=0.875;exitY=0.5;exitDx=0;exitDy=0;exitPerimeter=0;" edge="1" parent="1">
          <mxGeometry width="50" height="50" relative="1" as="geometry">
            <mxPoint x="165" y="250" as="sourcePoint" />
            <mxPoint x="220" y="250" as="targetPoint" />
          </mxGeometry>
        </mxCell>
      </root>
    </mxGraphModel>
  </diagram>
  <diagram id="ngaAxoMb8OfW47NRQpwP" name="createHistory flow">
    <mxGraphModel grid="1" page="1" gridSize="10" guides="1" tooltips="1" connect="1" arrows="1" fold="1" pageScale="1" pageWidth="850" pageHeight="1100" math="0" shadow="0">
      <root>
        <mxCell id="0" />
        <mxCell id="1" parent="0" />
        <mxCell id="GfWUFf3JrPcppDOvQFDz-1" value="Cloud" style="ellipse;shape=cloud;whiteSpace=wrap;html=1;" vertex="1" parent="1">
          <mxGeometry x="60" y="210" width="120" height="80" as="geometry" />
        </mxCell>
        <mxCell id="GfWUFf3JrPcppDOvQFDz-2" value="CORS &lt;br&gt;Middleware" style="rounded=0;whiteSpace=wrap;html=1;" vertex="1" parent="1">
          <mxGeometry x="220" y="220" width="70" height="60" as="geometry" />
        </mxCell>
        <mxCell id="GfWUFf3JrPcppDOvQFDz-3" value="" style="endArrow=classic;html=1;rounded=0;exitX=1;exitY=0.5;exitDx=0;exitDy=0;entryX=-0.088;entryY=0.636;entryDx=0;entryDy=0;entryPerimeter=0;" edge="1" parent="1" source="GfWUFf3JrPcppDOvQFDz-2" target="GfWUFf3JrPcppDOvQFDz-5">
          <mxGeometry width="50" height="50" relative="1" as="geometry">
            <mxPoint x="400" y="330" as="sourcePoint" />
            <mxPoint x="560" y="250" as="targetPoint" />
          </mxGeometry>
        </mxCell>
        <mxCell id="GfWUFf3JrPcppDOvQFDz-4" value="" style="group" connectable="0" vertex="1" parent="1">
          <mxGeometry x="306" y="225" width="80" height="69" as="geometry" />
        </mxCell>
        <mxCell id="GfWUFf3JrPcppDOvQFDz-5" value="" style="sketch=0;aspect=fixed;pointerEvents=1;shadow=0;dashed=0;html=1;strokeColor=none;labelPosition=center;verticalLabelPosition=bottom;verticalAlign=top;align=center;fillColor=#00188D;shape=mxgraph.mscae.enterprise.router" vertex="1" parent="GfWUFf3JrPcppDOvQFDz-4">
          <mxGeometry x="15" width="50" height="39" as="geometry" />
        </mxCell>
        <mxCell id="GfWUFf3JrPcppDOvQFDz-6" value="App Router" style="text;html=1;align=center;verticalAlign=middle;resizable=0;points=[];autosize=1;strokeColor=none;fillColor=none;" vertex="1" parent="GfWUFf3JrPcppDOvQFDz-4">
          <mxGeometry y="39" width="80" height="30" as="geometry" />
        </mxCell>
        <mxCell id="GfWUFf3JrPcppDOvQFDz-7" value="Auth &lt;br&gt;Middleware" style="rounded=0;whiteSpace=wrap;html=1;" vertex="1" parent="1">
          <mxGeometry x="400" y="220" width="70" height="60" as="geometry" />
        </mxCell>
        <mxCell id="GfWUFf3JrPcppDOvQFDz-8" value="" style="endArrow=classic;html=1;rounded=0;exitX=1;exitY=0.5;exitDx=0;exitDy=0;entryX=0;entryY=0.5;entryDx=0;entryDy=0;" edge="1" parent="1" source="GfWUFf3JrPcppDOvQFDz-7" target="GfWUFf3JrPcppDOvQFDz-10">
          <mxGeometry width="50" height="50" relative="1" as="geometry">
            <mxPoint x="820" y="250" as="sourcePoint" />
            <mxPoint x="870" y="250" as="targetPoint" />
          </mxGeometry>
        </mxCell>
        <mxCell id="GfWUFf3JrPcppDOvQFDz-9" value="" style="edgeStyle=orthogonalEdgeStyle;rounded=0;orthogonalLoop=1;jettySize=auto;html=1;" edge="1" parent="1" source="GfWUFf3JrPcppDOvQFDz-10">
          <mxGeometry relative="1" as="geometry">
            <mxPoint x="660" y="250" as="targetPoint" />
          </mxGeometry>
        </mxCell>
        <mxCell id="GfWUFf3JrPcppDOvQFDz-10" value="POST history handler" style="rounded=0;whiteSpace=wrap;html=1;" vertex="1" parent="1">
          <mxGeometry x="500" y="220" width="80" height="60" as="geometry" />
        </mxCell>
        <mxCell id="GfWUFf3JrPcppDOvQFDz-11" value="Validator" style="rounded=0;whiteSpace=wrap;html=1;" vertex="1" parent="1">
          <mxGeometry x="613" y="220" width="120" height="60" as="geometry" />
        </mxCell>
        <mxCell id="GfWUFf3JrPcppDOvQFDz-12" value="" style="endArrow=classic;html=1;rounded=0;exitX=0.5;exitY=1;exitDx=0;exitDy=0;entryX=0.5;entryY=0;entryDx=0;entryDy=0;" edge="1" parent="1" source="GfWUFf3JrPcppDOvQFDz-11" target="GfWUFf3JrPcppDOvQFDz-14">
          <mxGeometry width="50" height="50" relative="1" as="geometry">
            <mxPoint x="470" y="270" as="sourcePoint" />
            <mxPoint x="660" y="320" as="targetPoint" />
          </mxGeometry>
        </mxCell>
        <mxCell id="GfWUFf3JrPcppDOvQFDz-13" value="" style="group" connectable="0" vertex="1" parent="1">
          <mxGeometry x="623" y="319.88" width="100" height="50" as="geometry" />
        </mxCell>
        <mxCell id="GfWUFf3JrPcppDOvQFDz-14" value="" style="rounded=0;whiteSpace=wrap;html=1;" vertex="1" parent="GfWUFf3JrPcppDOvQFDz-13">
          <mxGeometry width="100" height="50" as="geometry" />
        </mxCell>
        <mxCell id="GfWUFf3JrPcppDOvQFDz-15" value="" style="shape=image;verticalLabelPosition=bottom;labelBackgroundColor=default;verticalAlign=top;aspect=fixed;imageAspect=0;image=data:image/png,iVBORw0KGgoAAAANSUhEUgAAAWcAAACNCAMAAABczkvvAAAAkFBMVEX///8MNEsALEUAEzYAJUAAHTsAFTcAMEifqK8AKENqeoby9PUAIj67wcYAGjn5+vuGkpvP1NizusAAGDjf4+UAHTwADjPJztLV2dxzgYxOYnGOmaEsSFuWoKh8iZMfP1RfcH1BWGhYangAAC+krLPBx8zd4eMAACg1TmASOE48VGUxS14jQlZTZnUAACFufYiG9o1pAAAN40lEQVR4nO1d6WKyOhQsYYkI4oLijtpqv9rl9v3f7qKQPWELVkuZn6xhCMk5k0l4eqqL8bq/jwe1T+9QCotz4AII/PB475K0GoMXaKRwlvcuS4vx+mJghL17l6a92EDCs2F69y5OW3G0KZoNd3Tv8rQUXmgwCIf3LlE7sQcsz9b23iVqJeaOwcG6d5FaCQPyPPtdEN081hZPs2HAexeqfZhGIs2GPbl3sVqHA5DwDHf3LlbbMAkkNCcV+nTvgrULQ0njfK3Qb/cuWbuwdOU8G+H43kVrExZ8JwhQjAdX9y5bm7DhQme//4ykDvP13oVrD3o+1/tNn54GWccI9vcuXWvgcQl3Su17VsfN6Z2L1xo88/rRVeE/oQrdDaw0gxOvH9nz6/ZPVKE7vb8RQF4/ilLdeZJ1hZ3e3whGfIqCk220odP7G4CoH4HvbNcxC0M6vb8BvAuqs4VVZ1TT/XsWsB2YzHiaDXuBdm4zoju9XxdDW6DZiMheJOJ1er8m+qJ+REt0o2y33+n9WhibYnUGMdnvmVwI0qEWdkInyNXdZZYqdnq/Dra+SLMR0gIdivo6vV8DnqTVMAyHOQZ5Zzq9vz5W0qHXA3PMa/YuQKf318UglNAsqBkrpCYt5FfpUARZbU66QW7KxDhT8zq9vyZi+dBryMv6KDGPOr2/Dl5l/iNDomV0er8WPiSh84XNZ+FIpPdHnd5fHUeJsHHtBkUNtNP764O37mPIEj+0z+n0/qrgrfsYssHATu+vi7k0E0wApQpop/fXhGjdR91gX3Z4p/fXg8y6nzUN0smZWO8HP13SXw2pdT+FLZeLOr2/Dg6qVgNbN3g8mN4/2O+MzfLRBReFdT+XR6T3zx5hwYi9A6ABwctjT0AfysR91P6qcutH0vsHyKf28tAJqtK6b9DWDR5Y75/r3n8fzSjYM7A7xMcqbcA3iv0furcQrPs0AuXzNqf39/kUCUJgBXZc2s+OhyceOm/irfsMIvV5jen9As/ZC4z2JZsBnMuqv777g7fuszUrp/VtTO9X8Jxc2Sk3qI6yJiN63IiDt+6zcOOcU98a0vuVPCeXLtXgDsO0JL4o4T4MeOs+i9yOBev93zkHlUAOz8ZLqRo6fYtse/bywOMOgnWfhTBmxaAhvZ/wDC9gCgDP5a4xnZ/GjyzS5vWBF55zT8Z6f17rUgzMM/zcJXCjgAo02zFxX7DusyiK2fCSa1pVCfPsZhumW4tU8Y3OpR8EOfpR+uDr/POx3l9wXD4wz2S1miFZLKENs+hE6z4L3rohAH0Otk4pJDxTDRrqiufjC+boy1msV2cLfFx3euk+am8KbzB6fjNcYBz66wHzurKLZf3K9Lj/gO75sDzSB43XX58A7FYjRXA5ncRfn3YYhv5mv81NiiXWfRZOUV3Cer+OgiPl+YheYfZNDf+zL/iXPtDrwXQvZ9nXxGTwz07xH90hDw6R76bT0iFwfccYEYk3uh6e6k7Tr8gCl+4XAj9aofjmeA7ddKNrh+J483zphr6bddpJ+jqbjZTBQJ5+JD64/BJo9FZH75fyPMVXTqO1YZrmp5l1LwL0BzdAD+KQZ51uAv5jdcNzL6vwaUd77X62ER1WwujKqfdh02dbgAkvhz0jEGJR11Ql/RLrPguJdYNHE3q/lOcnPGKzT5/NJNQs8dh8OoFUwvM8kjWJ0Mh2Z6WOhk8xP84fJMGTZ3E0QiaOj+XB8ExOl8y6z6KELOMheVRD75fzjNqN7GVnPF8izRGRy4Or1iTyrOjg8XAmqh3ziUiZOXjaCbUVulTRPJVzSzqWKrPus7BLSJ4x8vfX1/sL6nNaeMRz8DqnnjK8EivyrPBWzVA/mfEMRUIvW2XKGhNSKZyIhiMhQWrd504rkedhvf+jKr0Y8vYZ8ZwlQYhnEH9SLKQTcwWex7gxAHZoOqFtQepST5hnA/VjgOFbthXSPVBaoZN+M3AS2CTYF7PXfP0oQxWW6uv9Up63iIpM60Q8k4VtLml66h8ReB7hk/dzb+hN59t3M6GahOJ0fYThrr/cAy5jc53D93IVkpsF9ID0EhgggN+T1+SGw/kKV1lxkoPUus9Cbt3ggfX+Q/Gxcsh49rDbL3u+IdubANvxz2c/jdsFnr8yesAXuWBvF5ESUjy772kXt2YGScP4eimP5EuMwcL7Z8cUpXhESkjs5NZ9FnLrhoCvrChOXfFXwrNHOo8sBWJ4hs7ylPKQPgzPM1Js2ceeE2YIz0RaGFHkB3jAALfVrCo5YDMipH7BrycWxbVZad3ggfX+uuqvoG94axL7ooFgmmfrwHYcAs8oz4WfilsSSmeEMNJhUUMXJ/Rh5a6/hTvGs2J7HsqqQ7rr+WCewXa9Xo/6nw5VOjSIQPFs8e2ZwDMeyAJf8mfAN6BrPNFn6TwY5czKd3YBzl5ZgVNl3WeQe2Eauno/eT73AkBHVS7S7gnPYmSj7gcNMFvLmMb7A2qwF5PF3AF7iPKU8AkqgclsfisMnY0q0yI01/PJGU8hgRLhWezTBZ7nVO9jBbH4nWGe6fp3Qpdh/PPIEATV0dfQw6+I4Vll3WdRPpUe6On9ap6hjynCPEsyTzFPYXIw1zzw+QOOn9+pjWNEC/Pk6NsQeF4cR/v3HbQC03FwUEjz7BXJdCnU1g0ByNVbJrERoeTZOpOaSOJn8WWKPI/ZhhHYgI2dEM9M6Ip5ZvJgOc+DZzu4qIH8UlI0z0rrPov8MSsGenq/0r9BM4p5lng0JDpSj+uBoM+ch+NduoXAPNONtpTnCbAVHFI8K637XMnoT6oIbvZaa/n7JTzDJA9ZMs0q5lnSnMl00UHIX9V+J3sxz7RSRnim7yzheaX2fVI8n8t0ghUnUyG9v2Rqw4LwnKr1QRhuYi4RqMzzk7c3OaYBxLtxXl6H5zcq7ITAtSzfJ6Ns+Lx1sX6keh410Go/sI7eT+Ln8fyChSwOr8xz0lF9cUwDPKarw/OIEOg6u/66dzwORuhGmOeioVeMfOsGj7WG3i/XRTnU4Dl52KVj0V+vj2jV4JkSn8M1ut9AiJ9zrPssqjW1SP4r62uhcTuek9O2rk89MbqDBs/YzAddcpiQp+RY91lUtduiTL6G3n9LnhMcXSJ5hlmsqsEzFjpnVPQn8GyVrc5F1g0eeMJKdV/LjXlOqMJaOzpZg2fS5FMH9bh8MM+6z8Kvus5Ufb3/5jxjgxrmVYNn1DwzduQ+2w/mWvdZVE7tpqhCV9b7b88zzsOb5JlKJfF0yoznXOs+i+oBGnL4Vtb7m+f5yPONen+UFGrwjHVSStTrs/FzrnWfo3lfhiEGi7p6f/M8r16emTwHL8aAFl/Q4BnX1RDXp5jocheeSw29ygpQEqjSVPX3N8/zFwS+edgi/9wJp8DIqa3B8zdRy9OXdvqghnAvPOdb91mUsW7wQKpvufFbglvwfCHGtR3/bbXaONjDhceeNHiekEbBt99Wm5BxiCU8L8rpR2yJKwF9UhX9/TfiOWWHUS4jNESgk3fTI9jo6u4n4fm7QnWuk9bV1vtvyTMDH48Q6fC8FUdJ/CVKH8zCKRIMqn76GVA7aFby9/8UzzbpoLX0unc+CbH3eDalSRY1KoOaEx6R3l8tmWye54MksAIRJfRq8fz0xlw+tfJm33JFnmc1F2lFY9WV/P37wEph5hw0/JcdJJlSOIiyff+QQX8EQx/glhkmXaL5TZPnoDsyPL9kW1/o8ZQ4O9anasE6QvoFdMPPlKswLUG1dqPuxJ5eHb1/0EPIO2qbHbMV06BXvI8U+/W4PEDHdMLQMeEhPrEPhO9I16cpvgzdj59kpfN6B9tMrmwdRigwS59iS+Zjl0D9SU5I73eLD/0ReAlud2lpbZyUchNcIRlTLgkdvb8tKDaWI9RnSUfvbwvKq3VB/V85auj9rUGcP/uVYFb/HnjCShvmsdaF8CM2OapLyBT0/f2/HyUtMlrr4OIJKzov67ejcMrgFYXTjXNRW+9vEYalxmGrWTd41Nb724Qy81KKpxvnA82d+dPr95cQ+4XJLBVRV+9vFbxio0xV64aAmnp/u1Bs5tf+RRjSKTXX8/nlKHTY1XPl00Dho9byJ78d8p+FEchXiq8EdIcKUy9aiAIbh/7/lPCQsF4g/uuhWDUhQy1PPo0j7mr/+M8g873mdawbGN5kH5LPpXB9pZYjd9m6mrMtEyy2b5FPx+d//q/IOXOBaq7AMzzFIOSyeq1VwFqBsbrlqDNLe3r8MsUZdaDsBPEWQ204r2zdGI92jkyeco2/nA4iKGWOSjGvN+nbtitrhNxo/8jr1/4YlAsSl7duvPbeTV/2voDlGOVX1285FLO8y/6nYx5DvtvLSPbNVe+Px3M0FKtelrFueJPn0JY18NANrG9+xvBfx0Qq+RdaNxbbjaK18M3N+k8LGgpIl1YL89rV4WkJQmm3B+zwWZh90+EK6a9K1VLm9LhypBUZWiGM/7aSkQ+J5K9yA1yDZEVr8b7tYot8vIurGEusG5cgeSZrLaA78/uTrrUohCjcCYrx61YdJO9GNe3ofw7CormsdeOkDpKd1bELksvjk2MxxK2Ad0yCZGm35wZg2QXJ1cCvzJh5ChbrLkhuFrxX147ng2836ILkpsH/uRvYXZB8C5Tx6nZBcgP4zvfqJkGy3QXJDSDPq9sFyQ1ioJD8L0pyFyQ3CIlXNwmS3S5Ibhj8QsVdkHwjLKi/Qbm289x1ezfC9DO4LDUALkHyH56P9gM4xRt43nfdnjb+B1UqyZ0I5iskAAAAAElFTkSuQmCC;" vertex="1" parent="GfWUFf3JrPcppDOvQFDz-13">
          <mxGeometry x="11.810000000000002" y="10" width="76.38" height="30" as="geometry" />
        </mxCell>
        <mxCell id="GfWUFf3JrPcppDOvQFDz-16" value="" style="endArrow=classic;startArrow=classic;html=1;rounded=0;exitX=1;exitY=0.5;exitDx=0;exitDy=0;" edge="1" parent="1" source="GfWUFf3JrPcppDOvQFDz-14">
          <mxGeometry width="50" height="50" relative="1" as="geometry">
            <mxPoint x="770" y="344" as="sourcePoint" />
            <mxPoint x="800" y="345" as="targetPoint" />
          </mxGeometry>
        </mxCell>
        <mxCell id="GfWUFf3JrPcppDOvQFDz-17" value="PostgreSQL" style="shape=cylinder3;whiteSpace=wrap;html=1;boundedLbl=1;backgroundOutline=1;size=15;" vertex="1" parent="1">
          <mxGeometry x="803" y="321.88" width="101" height="50" as="geometry" />
        </mxCell>
        <mxCell id="GfWUFf3JrPcppDOvQFDz-18" value="" style="shape=image;verticalLabelPosition=bottom;labelBackgroundColor=default;verticalAlign=top;aspect=fixed;imageAspect=0;image=https://www.vectorlogo.zone/logos/supabase/supabase-ar21.svg;clipPath=inset(20% 0% 21.67% 0%);" vertex="1" parent="1">
          <mxGeometry x="803" y="311.13" width="126" height="36.75" as="geometry" />
        </mxCell>
        <mxCell id="GfWUFf3JrPcppDOvQFDz-19" style="edgeStyle=orthogonalEdgeStyle;rounded=0;orthogonalLoop=1;jettySize=auto;html=1;exitX=0.5;exitY=1;exitDx=0;exitDy=0;" edge="1" parent="1">
          <mxGeometry relative="1" as="geometry">
            <mxPoint x="866" y="349.88" as="sourcePoint" />
            <mxPoint x="866" y="349.88" as="targetPoint" />
          </mxGeometry>
        </mxCell>
        <mxCell id="GfWUFf3JrPcppDOvQFDz-20" style="edgeStyle=orthogonalEdgeStyle;rounded=0;orthogonalLoop=1;jettySize=auto;html=1;exitX=0.5;exitY=1;exitDx=0;exitDy=0;exitPerimeter=0;" edge="1" parent="1">
          <mxGeometry relative="1" as="geometry">
            <mxPoint x="853.5" y="373.88" as="sourcePoint" />
            <mxPoint x="853.5" y="373.88" as="targetPoint" />
          </mxGeometry>
        </mxCell>
        <mxCell id="GfWUFf3JrPcppDOvQFDz-21" value="" style="endArrow=classic;html=1;rounded=0;exitX=0;exitY=0.5;exitDx=0;exitDy=0;entryX=0.75;entryY=1;entryDx=0;entryDy=0;" edge="1" parent="1" source="GfWUFf3JrPcppDOvQFDz-14" target="GfWUFf3JrPcppDOvQFDz-10">
          <mxGeometry width="50" height="50" relative="1" as="geometry">
            <mxPoint x="470" y="270" as="sourcePoint" />
            <mxPoint x="520" y="220" as="targetPoint" />
            <Array as="points">
              <mxPoint x="560" y="345" />
            </Array>
          </mxGeometry>
        </mxCell>
        <mxCell id="GfWUFf3JrPcppDOvQFDz-22" value="" style="endArrow=classic;html=1;rounded=0;exitX=0.25;exitY=1;exitDx=0;exitDy=0;entryX=0.52;entryY=1.073;entryDx=0;entryDy=0;entryPerimeter=0;" edge="1" parent="1" source="GfWUFf3JrPcppDOvQFDz-10" target="GfWUFf3JrPcppDOvQFDz-6">
          <mxGeometry width="50" height="50" relative="1" as="geometry">
            <mxPoint x="470" y="270" as="sourcePoint" />
            <mxPoint x="520" y="220" as="targetPoint" />
            <Array as="points">
              <mxPoint x="520" y="340" />
              <mxPoint x="348" y="340" />
            </Array>
          </mxGeometry>
        </mxCell>
        <mxCell id="GfWUFf3JrPcppDOvQFDz-23" value="" style="endArrow=classic;html=1;rounded=0;entryX=0.55;entryY=0.95;entryDx=0;entryDy=0;entryPerimeter=0;" edge="1" parent="1" target="GfWUFf3JrPcppDOvQFDz-1">
          <mxGeometry width="50" height="50" relative="1" as="geometry">
            <mxPoint x="330" y="300" as="sourcePoint" />
            <mxPoint x="520" y="220" as="targetPoint" />
            <Array as="points">
              <mxPoint x="330" y="340" />
              <mxPoint x="126" y="340" />
            </Array>
          </mxGeometry>
        </mxCell>
        <mxCell id="GfWUFf3JrPcppDOvQFDz-24" value="&lt;b&gt;2&lt;/b&gt;" style="text;html=1;align=center;verticalAlign=middle;resizable=0;points=[];autosize=1;strokeColor=none;fillColor=none;" vertex="1" parent="1">
          <mxGeometry x="288" y="221" width="30" height="30" as="geometry" />
        </mxCell>
        <mxCell id="GfWUFf3JrPcppDOvQFDz-25" value="&lt;b&gt;3&lt;/b&gt;" style="text;html=1;align=center;verticalAlign=middle;resizable=0;points=[];autosize=1;strokeColor=none;fillColor=none;" vertex="1" parent="1">
          <mxGeometry x="370" y="220" width="30" height="30" as="geometry" />
        </mxCell>
        <mxCell id="GfWUFf3JrPcppDOvQFDz-26" value="&lt;b&gt;4&lt;/b&gt;" style="text;html=1;align=center;verticalAlign=middle;resizable=0;points=[];autosize=1;strokeColor=none;fillColor=none;" vertex="1" parent="1">
          <mxGeometry x="470" y="220" width="30" height="30" as="geometry" />
        </mxCell>
        <mxCell id="GfWUFf3JrPcppDOvQFDz-27" value="&lt;b&gt;5&lt;/b&gt;" style="text;html=1;align=center;verticalAlign=middle;resizable=0;points=[];autosize=1;strokeColor=none;fillColor=none;" vertex="1" parent="1">
          <mxGeometry x="581" y="220" width="30" height="30" as="geometry" />
        </mxCell>
        <mxCell id="GfWUFf3JrPcppDOvQFDz-28" value="&lt;b&gt;6&lt;/b&gt;" style="text;html=1;align=center;verticalAlign=middle;resizable=0;points=[];autosize=1;strokeColor=none;fillColor=none;" vertex="1" parent="1">
          <mxGeometry x="670" y="281.13" width="30" height="30" as="geometry" />
        </mxCell>
        <mxCell id="GfWUFf3JrPcppDOvQFDz-29" value="&lt;b&gt;7&lt;/b&gt;" style="text;html=1;align=center;verticalAlign=middle;resizable=0;points=[];autosize=1;strokeColor=none;fillColor=none;" vertex="1" parent="1">
          <mxGeometry x="740" y="314.51" width="30" height="30" as="geometry" />
        </mxCell>
        <mxCell id="GfWUFf3JrPcppDOvQFDz-30" value="&lt;b&gt;8&lt;/b&gt;" style="text;html=1;align=center;verticalAlign=middle;resizable=0;points=[];autosize=1;strokeColor=none;fillColor=none;" vertex="1" parent="1">
          <mxGeometry x="570" y="317.88" width="30" height="30" as="geometry" />
        </mxCell>
        <mxCell id="GfWUFf3JrPcppDOvQFDz-31" value="&lt;b&gt;9&lt;/b&gt;" style="text;html=1;align=center;verticalAlign=middle;resizable=0;points=[];autosize=1;strokeColor=none;fillColor=none;" vertex="1" parent="1">
          <mxGeometry x="420" y="311.13" width="30" height="30" as="geometry" />
        </mxCell>
        <mxCell id="GfWUFf3JrPcppDOvQFDz-32" value="&lt;b&gt;10&lt;/b&gt;" style="text;html=1;align=center;verticalAlign=middle;resizable=0;points=[];autosize=1;strokeColor=none;fillColor=none;" vertex="1" parent="1">
          <mxGeometry x="205" y="311.13" width="40" height="30" as="geometry" />
        </mxCell>
        <mxCell id="GfWUFf3JrPcppDOvQFDz-33" value="Question Service" style="swimlane;whiteSpace=wrap;html=1;" vertex="1" parent="1">
          <mxGeometry x="180" y="143.13" width="600" height="276.87" as="geometry" />
        </mxCell>
        <mxCell id="GfWUFf3JrPcppDOvQFDz-34" value="authenticate" style="text;html=1;align=center;verticalAlign=middle;resizable=0;points=[];autosize=1;strokeColor=none;fillColor=none;" vertex="1" parent="GfWUFf3JrPcppDOvQFDz-33">
          <mxGeometry x="155" y="36.870000000000005" width="90" height="30" as="geometry" />
        </mxCell>
        <mxCell id="GfWUFf3JrPcppDOvQFDz-35" value="&lt;b&gt;1&lt;/b&gt;" style="text;html=1;align=center;verticalAlign=middle;resizable=0;points=[];autosize=1;strokeColor=none;fillColor=none;" vertex="1" parent="GfWUFf3JrPcppDOvQFDz-33">
          <mxGeometry x="-4" y="78.87" width="30" height="30" as="geometry" />
        </mxCell>
        <mxCell id="GfWUFf3JrPcppDOvQFDz-36" value="" style="endArrow=classic;startArrow=classic;html=1;rounded=0;entryX=0.5;entryY=1;entryDx=0;entryDy=0;" edge="1" parent="1" target="GfWUFf3JrPcppDOvQFDz-37">
          <mxGeometry width="50" height="50" relative="1" as="geometry">
            <mxPoint x="430" y="220" as="sourcePoint" />
            <mxPoint x="390" y="100" as="targetPoint" />
            <Array as="points">
              <mxPoint x="430" y="180" />
              <mxPoint x="380" y="180" />
            </Array>
          </mxGeometry>
        </mxCell>
        <mxCell id="GfWUFf3JrPcppDOvQFDz-37" value="Auth Service" style="rounded=0;whiteSpace=wrap;html=1;" vertex="1" parent="1">
          <mxGeometry x="320" y="48" width="120" height="60" as="geometry" />
        </mxCell>
        <mxCell id="GfWUFf3JrPcppDOvQFDz-38" value="" style="endArrow=classic;startArrow=classic;html=1;rounded=0;entryX=0;entryY=0.5;entryDx=0;entryDy=0;exitX=1;exitY=0.5;exitDx=0;exitDy=0;" edge="1" parent="1" source="GfWUFf3JrPcppDOvQFDz-10" target="GfWUFf3JrPcppDOvQFDz-11">
          <mxGeometry width="50" height="50" relative="1" as="geometry">
            <mxPoint x="400" y="330" as="sourcePoint" />
            <mxPoint x="450" y="280" as="targetPoint" />
          </mxGeometry>
        </mxCell>
        <mxCell id="GfWUFf3JrPcppDOvQFDz-39" value="" style="endArrow=classic;startArrow=classic;html=1;rounded=0;entryX=0;entryY=0.5;entryDx=0;entryDy=0;" edge="1" parent="1">
          <mxGeometry width="50" height="50" relative="1" as="geometry">
            <mxPoint x="370" y="249" as="sourcePoint" />
            <mxPoint x="400" y="249" as="targetPoint" />
          </mxGeometry>
        </mxCell>
        <mxCell id="GfWUFf3JrPcppDOvQFDz-40" value="" style="endArrow=classic;startArrow=classic;html=1;rounded=0;exitX=0.875;exitY=0.5;exitDx=0;exitDy=0;exitPerimeter=0;" edge="1" parent="1">
          <mxGeometry width="50" height="50" relative="1" as="geometry">
            <mxPoint x="165" y="250" as="sourcePoint" />
            <mxPoint x="220" y="250" as="targetPoint" />
          </mxGeometry>
        </mxCell>
      </root>
    </mxGraphModel>
  </diagram>
  <diagram id="Z8GPB74sUbkicr7V3bgE" name="unit-test flow">
    <mxGraphModel grid="1" page="1" gridSize="10" guides="1" tooltips="1" connect="1" arrows="1" fold="1" pageScale="1" pageWidth="850" pageHeight="1100" math="0" shadow="0">
      <root>
        <mxCell id="0" />
        <mxCell id="1" parent="0" />
        <mxCell id="pJJm3J-28GLvhYgWq_v1-1" value="email" style="rounded=0;whiteSpace=wrap;html=1;" vertex="1" parent="1">
          <mxGeometry x="180" y="160" width="50" height="40" as="geometry" />
        </mxCell>
        <mxCell id="pJJm3J-28GLvhYgWq_v1-2" value="db.user.findFirst()" style="rounded=0;whiteSpace=wrap;html=1;" vertex="1" parent="1">
          <mxGeometry x="180" y="240" width="100" height="60" as="geometry" />
        </mxCell>
        <mxCell id="pJJm3J-28GLvhYgWq_v1-3" value="jwt.sign()" style="rounded=0;whiteSpace=wrap;html=1;" vertex="1" parent="1">
          <mxGeometry x="180" y="340" width="80" height="60" as="geometry" />
        </mxCell>
        <mxCell id="pJJm3J-28GLvhYgWq_v1-4" value="mailer.send()" style="rounded=0;whiteSpace=wrap;html=1;" vertex="1" parent="1">
          <mxGeometry x="180" y="430" width="80" height="60" as="geometry" />
        </mxCell>
        <mxCell id="pJJm3J-28GLvhYgWq_v1-5" value="" style="endArrow=classic;html=1;rounded=0;entryX=0;entryY=0.5;entryDx=0;entryDy=0;" edge="1" parent="1" target="pJJm3J-28GLvhYgWq_v1-1">
          <mxGeometry width="50" height="50" relative="1" as="geometry">
            <mxPoint x="90" y="320" as="sourcePoint" />
            <mxPoint x="100" y="280" as="targetPoint" />
            <Array as="points">
              <mxPoint x="120" y="320" />
              <mxPoint x="120" y="180" />
            </Array>
          </mxGeometry>
        </mxCell>
        <mxCell id="pJJm3J-28GLvhYgWq_v1-7" value="" style="endArrow=classic;startArrow=classic;html=1;rounded=0;exitX=1;exitY=0.5;exitDx=0;exitDy=0;entryX=0.5;entryY=0;entryDx=0;entryDy=0;" edge="1" parent="1" source="pJJm3J-28GLvhYgWq_v1-2" target="pJJm3J-28GLvhYgWq_v1-10">
          <mxGeometry width="50" height="50" relative="1" as="geometry">
            <mxPoint x="400" y="330" as="sourcePoint" />
            <mxPoint x="360" y="270" as="targetPoint" />
            <Array as="points">
              <mxPoint x="400" y="270" />
            </Array>
          </mxGeometry>
        </mxCell>
        <mxCell id="pJJm3J-28GLvhYgWq_v1-11" value="" style="group" connectable="0" vertex="1" parent="1">
          <mxGeometry x="424" y="340" width="120" height="60" as="geometry" />
        </mxCell>
        <mxCell id="pJJm3J-28GLvhYgWq_v1-10" value="" style="rounded=0;whiteSpace=wrap;html=1;" vertex="1" parent="pJJm3J-28GLvhYgWq_v1-11">
          <mxGeometry x="-84" width="120" height="60" as="geometry" />
        </mxCell>
        <mxCell id="pJJm3J-28GLvhYgWq_v1-9" value="" style="shape=image;verticalLabelPosition=bottom;labelBackgroundColor=default;verticalAlign=top;aspect=fixed;imageAspect=0;image=data:image/svg+xml,PHN2ZyB4bWxucz0iaHR0cDovL3d3dy53My5vcmcvMjAwMC9zdmciIHhtbG5zOnhsaW5rPSJodHRwOi8vd3d3LnczLm9yZy8xOTk5L3hsaW5rIiBpZD0ic3ZnODI5IiB2ZXJzaW9uPSIxLjEiIHZpZXdCb3g9Ii0xLjQxIC0xLjQxIDk5LjE5IDQ5LjE5IiByb2xlPSJpbWciPjxkZWZzIGlkPSJkZWZzODMzIi8+PHVzZSBpZD0idXNlODI0IiB4bGluazpocmVmPSIjYSIgeT0iLjUiIHg9Ii41Ii8+PHN5bWJvbCBvdmVyZmxvdz0idmlzaWJsZSIgaWQ9ImEiPjxwYXRoIGlkPSJwYXRoODI2IiBkPSJNNDAuMTE1IDIyLjQwOWE1LjkxIDUuOTEgMCAwIDAtNC40MTMtNS43MDRMNDEuMzY1IDBIMTMuMjkybDUuNjc4IDE2Ljc1OGE1LjkgNS45IDAgMCAwLTQuMjU1IDUuNjY1YzAgMS45NzYuOTg4IDMuNzI4IDIuNSA0LjgtLjU5My44NDMtMS4yNzggMS42Mi0yLjA1NSAyLjM1OC0xLjQ2MiAxLjM3LTMuMDgzIDIuNDI0LTQuODM1IDMuMTIyLTEuNTgtMS4wNjctMi4yNjYtMi45NS0xLjY0Ny00LjYzNyAyLjQtLjczOCA0LjE2My0zIDQuMTYzLTUuNjRhNS45IDUuOSAwIDAgMC01Ljg5LTUuODkgNS45MSA1LjkxIDAgMCAwLTUuOTAyIDUuOTAyYzAgMS42MDcuNjYgMy4wODMgMS43MTMgNC4xMzdsLS4yNzcuNTY2Yy0uODgzIDEuODE4LTEuODg0IDMuODczLTIuMjY2IDYuMTgtLjc2NCA0LjYuNDg3IDguMzEzIDMuNTA0IDEwLjQwOCAxLjcgMS4xNzIgMy41NyAxLjc2NSA1LjU4NiAxLjc2NSAzLjQ2NSAwIDYuOTgyLTEuNzQgMTAuMzgtMy40MjUgMi40MjQtMS4yIDQuOTI3LTIuNDUgNy40LTMuMDU2LjktLjIyNCAxLjg1OC0uMzU2IDIuODYtLjUgMi4wMy0uMyA0LjEyNC0uNTkzIDYuMDA3LTEuNjg2IDIuMi0xLjI3OCAzLjcwMi0zLjQxMiA0LjEzNy01Ljg2Mi4zMy0xLjg4NCAwLTMuNzgtLjg0My01LjQ0YTUuODcgNS44NyAwIDAgMCAuODgzLTMuMTIyem0tMi41NyAwYzAgMS44My0xLjUgMy4zMi0zLjMyIDMuMzJhMy4zNCAzLjM0IDAgMCAxLTIuODg1LTQuOTY3Yy4xMDUtLjE4NC4yMzctLjM3LjM3LS41MjdhMi45IDIuOSAwIDAgMSAuNDYxLS40MzVsLjAxMy0uMDEzYy4xMDUtLjA4LjIyNC0uMTU4LjM0My0uMjM3LjA2Ni0uMDQuMTItLjA4LjE3LS4xMDUuMDEzIDAgLjAyNi0uMDEzLjA0LS4wMTMuMDUzLS4wMjYuMTItLjA1My4xODQtLjA4cy4xMzItLjA1My4xODQtLjA4Yy4wMTMgMCAuMDI2LS4wMTMuMDQtLjAxMy4wNTMtLjAxMy4xMDUtLjA0LjE1OC0uMDUzLjAxMyAwIC4wNC0uMDEzLjA1My0uMDEzbC4xODQtLjA0aC4wMTNsLjE5OC0uMDRjLjAxMyAwIC4wNCAwIC4wNTMtLjAxMy4wNTMgMCAuMTA1LS4wMTMuMTU4LS4wMTNoLjA2NmMuMDY2IDAgLjEzMi0uMDEzLjItLjAxM2guMTdhLjU0LjU0IDAgMCAxIC4xNDUuMDEzaC4wMjZhMi41IDIuNSAwIDAgMSAuMzE2LjA1MyAzLjM1IDMuMzUgMCAwIDEgMi42NDggMy4yNjd6TTE2Ljk2NyAyLjYzNUgzNy42OWwtNC43NTYgMTQuMDNjLS4xOTguMDQtLjM5NS4xMDUtLjU5My4xN2wtNS4wMDYtMTAuMi01LjAyIDEwLjEzN2MtLjE5OC0uMDY2LS40MDgtLjEwNS0uNjItLjE0NXptOS40MiAxOC42MjhhNS44NCA1Ljg0IDAgMCAwLTEuNzgtMy4xNjJsMi43MjctNS41MDcgMi43NTMgNS42MjVjLS44MTcuODE3LTEuNCAxLjg1OC0xLjY0NyAzLjA0M3ptLTYuNi0yLjA4MmwuMTg0LS4wNGguMDRjLjA1My0uMDEzLjEwNS0uMDEzLjE1OC0uMDI2aC4wNTNjLjA1MyAwIC4wOTItLjAxMy4xNDUtLjAxM2guNTE0Yy4wNTMgMCAuMDkyLjAxMy4xMzIuMDEzLjAyNiAwIC4wNCAwIC4wNjYuMDEzLjA1My4wMTMuMDkyLjAxMy4xNDUuMDI2LjAxMyAwIC4wMjYgMCAuMDUzLjAxM2wuMTg0LjA0YS42NS42NSAwIDAgMSAuMTcxLjA1M2MuMDEzIDAgLjAyNi4wMTMuMDUzLjAxMy4wNC4wMTMuMDkyLjAyNi4xMzIuMDUzLjAxMyAwIC4wMjYuMDEzLjA0LjAxMy4wNTMuMDI2LjEwNS4wNC4xNTguMDY2aC4wMTNjLjA2MS4wMjMuMTE5LjA1NC4xNzEuMDkyLjA2Ni4wMjYuMTIuMDY2LjE3LjA5Mi4wMTMgMCAuMDEzLjAxMy4wMjYuMDEzLjA1My4wMjYuMDkyLjA2Ni4xNDUuMDkybC4wMTMuMDEzYy4xNTUuMTIxLjMwNC4yNDguNDQ4LjM4MmwuMDEzLjAxM2MuMTM3LjE0Ni4yNjEuMzA1LjM2OS40NzRhMy4zMSAzLjMxIDAgMCAxIC41NCAxLjgxOGMwIDEuODMtMS41IDMuMzItMy4zMiAzLjMyYTMuMzQgMy4zNCAwIDAgMS0zLjMyLTMuMzJjLS4wMTMtMS41NCAxLjA1NC0yLjg0NiAyLjUwMy0zLjIxNHptLTEyLjk2My0uMDkyYzEuODMgMCAzLjMyIDEuNSAzLjMyIDMuMzJhMy4zNCAzLjM0IDAgMCAxLTMuMzIgMy4zMiAzLjM0IDMuMzQgMCAwIDEtMy4zMi0zLjMyIDMuMzQgMy4zNCAwIDAgMSAzLjMyLTMuMzJ6bTMwLjY0MSAxMS40MjNjLS4zIDEuNjg2LTEuMzMgMy4xNjItMi44NiA0LjA0NC0xLjQzNi44My0zLjIgMS4wOTMtNS4wNiAxLjM1Ny0xLjAxNC4xNDUtMi4wODIuMzAzLTMuMS41NTMtMi43NC42NzItNS4zNzUgMi03LjkzIDMuMjU0LTMuMjY3IDEuNjItNi4zNSAzLjE1LTkuMiAzLjE1LTEuNSAwLTIuODItLjQyMi00LjA4NC0xLjMwNC0yLjkxMy0yLjAxNC0yLjc2OC01Ljc1OS0yLjQxNi03LjgxNC4zMTYtMS45MjMgMS4yLTMuNzI4IDIuMDQyLTUuNDU0LjA1My0uMTA1LjA5Mi0uMTk4LjE0NS0uMzAzLjI5Ni4xMDUuNi4xODUuOTEuMjM3LS41IDIuNzkzLjkyMiA1LjY3OCAzLjcgNy4xbC41LjI2My41NC0uMTk4YzIuMzA1LS44MTcgNC40NC0yLjE0NyA2LjMyNC0zLjkyNiAxLjA0MS0uOTcgMS45NjEtMi4wNjMgMi43NC0zLjI1NC4yOTcuMDQ4LjU5OS4wNy45LjA2NmE1LjkxIDUuOTEgMCAwIDAgNS43MDQtNC40MTNoMi4yMTNjLjY2IDIuNTQzIDIuOTY0IDQuNDEzIDUuNzA0IDQuNDEzYTUuODMgNS44MyAwIDAgMCAyLjk3Ny0uODE3Yy4zNDMuOTg4LjQ0OCAyLjAxNi4yNjMgMy4wNDN6bTIxLjExMy0xLjQzNmE0LjMyIDQuMzIgMCAwIDEtLjkxIDEuNjM0Yy0uNDIzLjQ3NC0uOTg4Ljg1Ni0xLjcgMS4xNDZzLTEuNTguNDM1LTIuNjIyLjQzNWMtMS43NCAwLTMuMDgzLS40Ni00LjAxOC0xLjM3cy0xLjQtMi4yNjYtMS40LTQuMDN2LTEuMTM5aDIuNDg3di44YTcuNjcgNy42NyAwIDAgMCAuMTMyIDEuNWMuMDkyLjQ2LjIzNy44NDMuNDYgMS4xNzNhMi4yOCAyLjI4IDAgMCAwIC45MDkuNzc3Yy4zOTUuMTg0Ljg5Ni4yNzcgMS41MDIuMjc3IDEuMTMzIDAgMS45LS4zMDMgMi4zNDUtLjkuNDIyLS42MDYuNjQ2LTEuNDIzLjY0Ni0yLjQ1VjEzLjIxNGgyLjQ3N3YxNC4wMThhNi40MyA2LjQzIDAgMCAxLS4zIDEuODQ0em0xMy41NTcgMS45MzZjLTEuMDE0Ljc2NC0yLjI4IDEuMTQ2LTMuODIgMS4xNDYtMS4wOCAwLTIuMDE2LS4xNy0yLjgwNi0uNTI3YTUuNDQgNS40NCAwIDAgMS0yLjAwMi0xLjQ2MmMtLjU0LS42MzItLjk1LTEuMzctMS4yMTItMi4yNTMtLjI3Ny0uODctLjQyMi0xLjgxOC0uNDYtMi44NDYgMC0xLjAyOC4xNTgtMS45NjMuNDc0LTIuODJhNi44MyA2LjgzIDAgMCAxIDEuMzE3LTIuMjI2IDUuODIgNS44MiAwIDAgMSAyLjAxNi0xLjQ2MmMuNzc4LS4zNDIgMS42Mi0uNTI3IDIuNTQzLS41MjcgMS4yIDAgMi4yLjI1IDMgLjc1czEuNDIzIDEuMTMzIDEuOSAxLjg5N2E3LjY1IDcuNjUgMCAwIDEgLjk4OCAyLjUwM2MuMTc1Ljg0OS4yNSAxLjcxNi4yMjQgMi41ODJoLTEwLjFjLS4wMTcuNTY5LjA1MSAxLjEzNy4yIDEuNjg2LjE0Ny41MjYuNDA4IDEgLjc2NCAxLjQuMzQzLjQwOC44LjczOCAxLjMzLjk3NS41NC4yNSAxLjE3My4zNyAxLjkuMzcuOTM1IDAgMS43MTMtLjIyNCAyLjMyLS42NnMxLTEuMDkzIDEuMTg2LTJoMi4yYy0uMzAzIDEuNTQtLjk1IDIuNjg4LTEuOTYzIDMuNDUyem0tLjU0LTguNjdjLS4xOTgtLjQ3NC0uNDc0LS44Ny0uODA0LTEuMjEyYTMuNzYgMy43NiAwIDAgMC0xLjE5OS0uODA0Yy0uNDYtLjE5OC0uOTc1LS4zMDMtMS41MjgtLjMwMy0uNTggMC0xLjA5My4xMDUtMS41NTUuMzAzcy0uODU2LjQ3NC0xLjE4Ni44MTdhNC4yMSA0LjIxIDAgMCAwLS44IDEuMjEyYy0uMjA3LjQ2Mi0uMzAzLjk1LS4zNDMgMS40NzZoNy43NmE0LjY1IDQuNjUgMCAwIDAtLjM1Ni0xLjQ4OXptNi43MDUgNi41YTIuMzggMi4zOCAwIDAgMCAuODE3LjgwNCAzLjk4IDMuOTggMCAwIDAgMS4xNDYuNDM1Yy40MjIuMDkyLjg3LjEzMiAxLjMxNy4xMzJhOC4wNiA4LjA2IDAgMCAwIDEuMDkzLS4wNzkgMy43NiAzLjc2IDAgMCAwIDEuMDU0LS4yOWMuMzE2LS4xNDUuNTkzLS4zNDMuOC0uNjIuMi0uMjYzLjMxNi0uNjIuMzE2LTEuMDI4IDAtLjU4LS4yMjQtMS4wMTQtLjY2LTEuMzA0cy0uOTc1LS41NC0xLjYzNC0uNzI1bC0yLjEzNC0uNWMtLjc2NC0uMTQ1LTEuNDc2LS4zNTYtMi4xMzQtLjYzMmE0LjI3IDQuMjcgMCAwIDEtMS42MzQtMS4xMzNjLS40MzQtLjQ4Ny0uNjYtMS4xNzMtLjY2LTIuMDQyIDAtLjY4NS4xNTgtMS4yNjUuNDYtMS43NTJhMy43MiAzLjcyIDAgMCAxIDEuMTczLTEuMTg2Yy40NzUtLjMwMyAxLjAxNC0uNTI3IDEuNjItLjY4NS41ODYtLjE0NSAxLjE4OC0uMjIgMS43OTItLjIyNC43MTItLjAwNSAxLjQyMi4wNjEgMi4xMi4xOTguNjQ0LjEzMiAxLjIxMi4zNTYgMS43MTMuNjg1LjUuMzE2Ljg5Ni43NjQgMS4xODYgMS4zMDQuMy41NTMuNDc0IDEuMjM4LjUyNyAyLjA1NWgtMi4yMjZjLS4wNC0uNDM1LS4xNDUtLjgtLjM0My0xLjA4YTIuNDUgMi40NSAwIDAgMC0uNzM4LS42OThjLS4zLS4xNy0uNjItLjMwMy0uOTc1LS4zODJzLS43MjUtLjEyLTEuMDgtLjEyYy0uMzM1IDAtLjY3LjAyNi0xLjAwMS4wNzlhMy4yOCAzLjI4IDAgMCAwLS45MjIuMjc3IDEuOTUgMS45NSAwIDAgMC0uNjg1LjUyN2MtLjE3LjIyNC0uMjYzLjUtLjI2My44NDMgMCAuMzgyLjEzMi42OTguNDA4Ljk1LjI2My4yNS42Mi40NiAxLjAyOC42MzIuNDIyLjE3Ljg4My4zMDMgMS40LjQyMmwxLjU2OC4zNTZjLjU1Mi4xMjEgMS4wOTcuMjcxIDEuNjM0LjQ0OGE1IDUgMCAwIDEgMS40LjY5OCAzLjM3IDMuMzcgMCAwIDEgLjk4OCAxLjA4Yy4yNS40MzUuMzgyLjk3NS4zODIgMS42MiAwIC44MTctLjE3IDEuNTAyLS41MTQgMi4wNDJhNC4wNiA0LjA2IDAgMCAxLTEuMzMxIDEuMzA0Yy0uNTUzLjMzLTEuMTczLjU2Ni0xLjg1OC42OThhMTAuODYgMTAuODYgMCAwIDEtMi4wNTUuMTk4Yy0uNzIyLjAwMi0xLjQ0My0uMDc3LTIuMTQ3LS4yMzdhNS4wNSA1LjA1IDAgMCAxLTEuODA1LS43NzdjLS41MjctLjM1Ni0uOTM1LS44My0xLjI1Mi0xLjRzLS40ODctMS4zLS41MjctMi4xMzRoMi4yMjZjLjA2Ni41LjE4NC45MjIuMzk1IDEuMjUyem0xNy4xNC0xMC40Nzd2MS45NjNoLTIuNjg4djguMzkyYzAgLjI2My4wMjYuNDc0LjA2Ni42MzJzLjEzMi4yNzcuMjUuMzcuMy4xNDUuNTE0LjE3LjUuMDQuODQzLjA0aDEuMDE0djEuOTYzaC0xLjdjLS41OCAwLTEuMDY3LS4wNC0xLjQ3Ni0uMTJzLS43MzgtLjIyNC0uOTg4LS40MzUtLjQzNS0uNS0uNTY2LS44ODNjLS4xMi0uMzgyLS4xODQtLjg4My0uMTg0LTEuNTE1di04LjZIODguMjJ2LTEuOTYzaDIuMzA1di00LjA1N2gyLjIyNnY0LjA0NHoiIGZpbGw9IiM5OTQyNGYiLz48L3N5bWJvbD48L3N2Zz4=;" vertex="1" parent="pJJm3J-28GLvhYgWq_v1-11">
          <mxGeometry x="-64.39999999999998" y="10" width="80.81" height="40" as="geometry" />
        </mxCell>
        <mxCell id="pJJm3J-28GLvhYgWq_v1-13" value="" style="endArrow=classic;startArrow=classic;html=1;rounded=0;exitX=1;exitY=0.5;exitDx=0;exitDy=0;entryX=0;entryY=0.5;entryDx=0;entryDy=0;" edge="1" parent="1" source="pJJm3J-28GLvhYgWq_v1-3" target="pJJm3J-28GLvhYgWq_v1-10">
          <mxGeometry width="50" height="50" relative="1" as="geometry">
            <mxPoint x="340" y="370" as="sourcePoint" />
            <mxPoint x="390" y="320" as="targetPoint" />
          </mxGeometry>
        </mxCell>
        <mxCell id="pJJm3J-28GLvhYgWq_v1-15" value="" style="endArrow=classic;startArrow=classic;html=1;rounded=0;exitX=1;exitY=0.5;exitDx=0;exitDy=0;entryX=0.5;entryY=1;entryDx=0;entryDy=0;" edge="1" parent="1" source="pJJm3J-28GLvhYgWq_v1-4" target="pJJm3J-28GLvhYgWq_v1-10">
          <mxGeometry width="50" height="50" relative="1" as="geometry">
            <mxPoint x="460" y="330" as="sourcePoint" />
            <mxPoint x="510" y="280" as="targetPoint" />
            <Array as="points">
              <mxPoint x="400" y="460" />
            </Array>
          </mxGeometry>
        </mxCell>
        <mxCell id="pJJm3J-28GLvhYgWq_v1-17" value="" style="endArrow=classic;html=1;rounded=0;entryX=0;entryY=0.5;entryDx=0;entryDy=0;" edge="1" parent="1" target="pJJm3J-28GLvhYgWq_v1-2">
          <mxGeometry width="50" height="50" relative="1" as="geometry">
            <mxPoint x="120" y="270" as="sourcePoint" />
            <mxPoint x="400" y="250" as="targetPoint" />
          </mxGeometry>
        </mxCell>
        <mxCell id="pJJm3J-28GLvhYgWq_v1-18" value="" style="endArrow=classic;html=1;rounded=0;entryX=0;entryY=0.5;entryDx=0;entryDy=0;" edge="1" parent="1" target="pJJm3J-28GLvhYgWq_v1-4">
          <mxGeometry width="50" height="50" relative="1" as="geometry">
            <mxPoint x="120" y="320" as="sourcePoint" />
            <mxPoint x="400" y="250" as="targetPoint" />
            <Array as="points">
              <mxPoint x="120" y="460" />
            </Array>
          </mxGeometry>
        </mxCell>
        <mxCell id="pJJm3J-28GLvhYgWq_v1-19" value="" style="endArrow=classic;html=1;rounded=0;entryX=0;entryY=0.5;entryDx=0;entryDy=0;" edge="1" parent="1" target="pJJm3J-28GLvhYgWq_v1-3">
          <mxGeometry width="50" height="50" relative="1" as="geometry">
            <mxPoint x="120" y="370" as="sourcePoint" />
            <mxPoint x="400" y="250" as="targetPoint" />
          </mxGeometry>
        </mxCell>
        <mxCell id="pJJm3J-28GLvhYgWq_v1-21" value="Arrange" style="swimlane;whiteSpace=wrap;html=1;dashed=1;" vertex="1" parent="1">
          <mxGeometry x="90" y="100" width="380" height="410" as="geometry" />
        </mxCell>
        <mxCell id="pJJm3J-28GLvhYgWq_v1-14" value="mock return a &lt;br&gt;JWT token" style="text;html=1;align=center;verticalAlign=middle;resizable=0;points=[];autosize=1;strokeColor=none;fillColor=none;" vertex="1" parent="pJJm3J-28GLvhYgWq_v1-21">
          <mxGeometry x="160" y="235" width="100" height="40" as="geometry" />
        </mxCell>
        <mxCell id="pJJm3J-28GLvhYgWq_v1-12" value="mock return a user data" style="text;html=1;align=center;verticalAlign=middle;resizable=0;points=[];autosize=1;strokeColor=none;fillColor=none;" vertex="1" parent="pJJm3J-28GLvhYgWq_v1-21">
          <mxGeometry x="169" y="194" width="150" height="30" as="geometry" />
        </mxCell>
        <mxCell id="pJJm3J-28GLvhYgWq_v1-16" value="mock sending email" style="text;html=1;align=center;verticalAlign=middle;resizable=0;points=[];autosize=1;strokeColor=none;fillColor=none;" vertex="1" parent="pJJm3J-28GLvhYgWq_v1-21">
          <mxGeometry x="179" y="330" width="130" height="30" as="geometry" />
        </mxCell>
        <mxCell id="pJJm3J-28GLvhYgWq_v1-20" value="initialise" style="text;html=1;align=center;verticalAlign=middle;resizable=0;points=[];autosize=1;strokeColor=none;fillColor=none;" vertex="1" parent="pJJm3J-28GLvhYgWq_v1-21">
          <mxGeometry x="30" y="205" width="70" height="30" as="geometry" />
        </mxCell>
        <mxCell id="pJJm3J-28GLvhYgWq_v1-30" value="userService.&amp;nbsp;&lt;br&gt;updatePasswordResetToken()" style="rounded=0;whiteSpace=wrap;html=1;" vertex="1" parent="pJJm3J-28GLvhYgWq_v1-21">
          <mxGeometry x="190" y="60" width="180" height="60" as="geometry" />
        </mxCell>
        <mxCell id="pJJm3J-28GLvhYgWq_v1-33" value="mock response" style="text;html=1;align=center;verticalAlign=middle;resizable=0;points=[];autosize=1;strokeColor=none;fillColor=none;" vertex="1" parent="pJJm3J-28GLvhYgWq_v1-21">
          <mxGeometry x="257" y="128" width="100" height="30" as="geometry" />
        </mxCell>
        <mxCell id="pJJm3J-28GLvhYgWq_v1-37" value="fake email" style="text;html=1;align=center;verticalAlign=middle;resizable=0;points=[];autosize=1;strokeColor=none;fillColor=none;" vertex="1" parent="pJJm3J-28GLvhYgWq_v1-21">
          <mxGeometry x="15" y="50" width="80" height="30" as="geometry" />
        </mxCell>
        <mxCell id="pJJm3J-28GLvhYgWq_v1-22" value="" style="endArrow=classic;html=1;rounded=0;entryX=0;entryY=0.5;entryDx=0;entryDy=0;" edge="1" parent="1" target="pJJm3J-28GLvhYgWq_v1-23">
          <mxGeometry width="50" height="50" relative="1" as="geometry">
            <mxPoint x="470" y="320" as="sourcePoint" />
            <mxPoint x="520" y="320" as="targetPoint" />
          </mxGeometry>
        </mxCell>
        <mxCell id="pJJm3J-28GLvhYgWq_v1-23" value="PUT /sendPasswordResetEmail/:email" style="rounded=0;whiteSpace=wrap;html=1;" vertex="1" parent="1">
          <mxGeometry x="530" y="290" width="190" height="60" as="geometry" />
        </mxCell>
        <mxCell id="pJJm3J-28GLvhYgWq_v1-24" value="Act" style="swimlane;whiteSpace=wrap;html=1;dashed=1;" vertex="1" parent="1">
          <mxGeometry x="510" y="230" width="220" height="170" as="geometry" />
        </mxCell>
        <mxCell id="pJJm3J-28GLvhYgWq_v1-25" value="call" style="text;html=1;align=center;verticalAlign=middle;resizable=0;points=[];autosize=1;strokeColor=none;fillColor=none;" vertex="1" parent="1">
          <mxGeometry x="470" y="290" width="40" height="30" as="geometry" />
        </mxCell>
        <mxCell id="pJJm3J-28GLvhYgWq_v1-26" value="" style="endArrow=classic;html=1;rounded=0;exitX=1;exitY=0.5;exitDx=0;exitDy=0;" edge="1" parent="1" source="pJJm3J-28GLvhYgWq_v1-24">
          <mxGeometry width="50" height="50" relative="1" as="geometry">
            <mxPoint x="560" y="300" as="sourcePoint" />
            <mxPoint x="780" y="315" as="targetPoint" />
          </mxGeometry>
        </mxCell>
        <mxCell id="pJJm3J-28GLvhYgWq_v1-27" value="check" style="text;html=1;align=center;verticalAlign=middle;resizable=0;points=[];autosize=1;strokeColor=none;fillColor=none;" vertex="1" parent="1">
          <mxGeometry x="730" y="288" width="50" height="30" as="geometry" />
        </mxCell>
        <mxCell id="pJJm3J-28GLvhYgWq_v1-28" value="Status Code is 204" style="rounded=0;whiteSpace=wrap;html=1;" vertex="1" parent="1">
          <mxGeometry x="800" y="180" width="120" height="60" as="geometry" />
        </mxCell>
        <mxCell id="pJJm3J-28GLvhYgWq_v1-29" value="A JWT token is signed" style="rounded=0;whiteSpace=wrap;html=1;" vertex="1" parent="1">
          <mxGeometry x="800" y="260" width="120" height="60" as="geometry" />
        </mxCell>
        <mxCell id="pJJm3J-28GLvhYgWq_v1-31" value="" style="endArrow=classic;html=1;rounded=0;entryX=0;entryY=0.5;entryDx=0;entryDy=0;" edge="1" parent="1" target="pJJm3J-28GLvhYgWq_v1-30">
          <mxGeometry width="50" height="50" relative="1" as="geometry">
            <mxPoint x="120" y="220" as="sourcePoint" />
            <mxPoint x="350" y="270" as="targetPoint" />
            <Array as="points">
              <mxPoint x="250" y="220" />
              <mxPoint x="250" y="190" />
            </Array>
          </mxGeometry>
        </mxCell>
        <mxCell id="pJJm3J-28GLvhYgWq_v1-32" value="" style="endArrow=classic;startArrow=classic;html=1;rounded=0;entryX=0.891;entryY=1.043;entryDx=0;entryDy=0;entryPerimeter=0;exitX=0.843;exitY=-0.037;exitDx=0;exitDy=0;exitPerimeter=0;" edge="1" parent="1" source="pJJm3J-28GLvhYgWq_v1-10" target="pJJm3J-28GLvhYgWq_v1-30">
          <mxGeometry width="50" height="50" relative="1" as="geometry">
            <mxPoint x="300" y="320" as="sourcePoint" />
            <mxPoint x="350" y="270" as="targetPoint" />
          </mxGeometry>
        </mxCell>
        <mxCell id="pJJm3J-28GLvhYgWq_v1-34" value="&lt;b&gt;...&lt;/b&gt;" style="text;html=1;align=center;verticalAlign=middle;resizable=0;points=[];autosize=1;strokeColor=none;fillColor=none;" vertex="1" parent="1">
          <mxGeometry x="845" y="320" width="30" height="30" as="geometry" />
        </mxCell>
        <mxCell id="pJJm3J-28GLvhYgWq_v1-35" value="A password reset token is set in User database" style="rounded=0;whiteSpace=wrap;html=1;" vertex="1" parent="1">
          <mxGeometry x="800" y="350" width="120" height="60" as="geometry" />
        </mxCell>
        <mxCell id="pJJm3J-28GLvhYgWq_v1-36" value="Act" style="swimlane;whiteSpace=wrap;html=1;dashed=1;" vertex="1" parent="1">
          <mxGeometry x="780" y="150" width="165" height="290" as="geometry" />
        </mxCell>
      </root>
    </mxGraphModel>
  </diagram>
  <diagram id="euA8tfr25BHM1nB0l9pI" name="integration-test flow">
    <mxGraphModel grid="1" page="1" gridSize="10" guides="1" tooltips="1" connect="1" arrows="1" fold="1" pageScale="1" pageWidth="850" pageHeight="1100" math="0" shadow="0">
      <root>
        <mxCell id="0" />
        <mxCell id="1" parent="0" />
        <mxCell id="orQso3CPJAZGe7jwyWwm-3" value="mailer.send()" style="rounded=0;whiteSpace=wrap;html=1;" vertex="1" parent="1">
          <mxGeometry x="220" y="360" width="120" height="60" as="geometry" />
        </mxCell>
        <mxCell id="orQso3CPJAZGe7jwyWwm-4" value="" style="endArrow=classic;html=1;rounded=0;entryX=0;entryY=0.5;entryDx=0;entryDy=0;" edge="1" parent="1" target="orQso3CPJAZGe7jwyWwm-1">
          <mxGeometry width="50" height="50" relative="1" as="geometry">
            <mxPoint x="160" y="340" as="sourcePoint" />
            <mxPoint x="450" y="280" as="targetPoint" />
            <Array as="points">
              <mxPoint x="200" y="340" />
              <mxPoint x="200" y="270" />
            </Array>
          </mxGeometry>
        </mxCell>
        <mxCell id="orQso3CPJAZGe7jwyWwm-5" value="" style="endArrow=classic;html=1;rounded=0;entryX=0;entryY=0.5;entryDx=0;entryDy=0;" edge="1" parent="1" target="orQso3CPJAZGe7jwyWwm-3">
          <mxGeometry width="50" height="50" relative="1" as="geometry">
            <mxPoint x="200" y="340" as="sourcePoint" />
            <mxPoint x="450" y="280" as="targetPoint" />
            <Array as="points">
              <mxPoint x="200" y="390" />
            </Array>
          </mxGeometry>
        </mxCell>
        <mxCell id="orQso3CPJAZGe7jwyWwm-8" value="" style="endArrow=classic;startArrow=classic;html=1;rounded=0;exitX=1;exitY=0.5;exitDx=0;exitDy=0;" edge="1" parent="1" source="orQso3CPJAZGe7jwyWwm-3">
          <mxGeometry width="50" height="50" relative="1" as="geometry">
            <mxPoint x="400" y="330" as="sourcePoint" />
            <mxPoint x="460" y="390" as="targetPoint" />
          </mxGeometry>
        </mxCell>
        <mxCell id="ynCU-Sh1JEw7WHuDhTfK-6" value="" style="group" connectable="0" vertex="1" parent="1">
          <mxGeometry x="460" y="360" width="120" height="60" as="geometry" />
        </mxCell>
        <mxCell id="ynCU-Sh1JEw7WHuDhTfK-2" value="" style="rounded=0;whiteSpace=wrap;html=1;" vertex="1" parent="ynCU-Sh1JEw7WHuDhTfK-6">
          <mxGeometry width="120" height="60" as="geometry" />
        </mxCell>
        <mxCell id="ynCU-Sh1JEw7WHuDhTfK-3" value="" style="shape=image;verticalLabelPosition=bottom;labelBackgroundColor=default;verticalAlign=top;aspect=fixed;imageAspect=0;image=data:image/svg+xml,PHN2ZyB4bWxucz0iaHR0cDovL3d3dy53My5vcmcvMjAwMC9zdmciIHhtbG5zOnhsaW5rPSJodHRwOi8vd3d3LnczLm9yZy8xOTk5L3hsaW5rIiBpZD0ic3ZnODI5IiB2ZXJzaW9uPSIxLjEiIHZpZXdCb3g9Ii0xLjQxIC0xLjQxIDk5LjE5IDQ5LjE5IiByb2xlPSJpbWciPjxkZWZzIGlkPSJkZWZzODMzIi8+PHVzZSBpZD0idXNlODI0IiB4bGluazpocmVmPSIjYSIgeT0iLjUiIHg9Ii41Ii8+PHN5bWJvbCBvdmVyZmxvdz0idmlzaWJsZSIgaWQ9ImEiPjxwYXRoIGlkPSJwYXRoODI2IiBkPSJNNDAuMTE1IDIyLjQwOWE1LjkxIDUuOTEgMCAwIDAtNC40MTMtNS43MDRMNDEuMzY1IDBIMTMuMjkybDUuNjc4IDE2Ljc1OGE1LjkgNS45IDAgMCAwLTQuMjU1IDUuNjY1YzAgMS45NzYuOTg4IDMuNzI4IDIuNSA0LjgtLjU5My44NDMtMS4yNzggMS42Mi0yLjA1NSAyLjM1OC0xLjQ2MiAxLjM3LTMuMDgzIDIuNDI0LTQuODM1IDMuMTIyLTEuNTgtMS4wNjctMi4yNjYtMi45NS0xLjY0Ny00LjYzNyAyLjQtLjczOCA0LjE2My0zIDQuMTYzLTUuNjRhNS45IDUuOSAwIDAgMC01Ljg5LTUuODkgNS45MSA1LjkxIDAgMCAwLTUuOTAyIDUuOTAyYzAgMS42MDcuNjYgMy4wODMgMS43MTMgNC4xMzdsLS4yNzcuNTY2Yy0uODgzIDEuODE4LTEuODg0IDMuODczLTIuMjY2IDYuMTgtLjc2NCA0LjYuNDg3IDguMzEzIDMuNTA0IDEwLjQwOCAxLjcgMS4xNzIgMy41NyAxLjc2NSA1LjU4NiAxLjc2NSAzLjQ2NSAwIDYuOTgyLTEuNzQgMTAuMzgtMy40MjUgMi40MjQtMS4yIDQuOTI3LTIuNDUgNy40LTMuMDU2LjktLjIyNCAxLjg1OC0uMzU2IDIuODYtLjUgMi4wMy0uMyA0LjEyNC0uNTkzIDYuMDA3LTEuNjg2IDIuMi0xLjI3OCAzLjcwMi0zLjQxMiA0LjEzNy01Ljg2Mi4zMy0xLjg4NCAwLTMuNzgtLjg0My01LjQ0YTUuODcgNS44NyAwIDAgMCAuODgzLTMuMTIyem0tMi41NyAwYzAgMS44My0xLjUgMy4zMi0zLjMyIDMuMzJhMy4zNCAzLjM0IDAgMCAxLTIuODg1LTQuOTY3Yy4xMDUtLjE4NC4yMzctLjM3LjM3LS41MjdhMi45IDIuOSAwIDAgMSAuNDYxLS40MzVsLjAxMy0uMDEzYy4xMDUtLjA4LjIyNC0uMTU4LjM0My0uMjM3LjA2Ni0uMDQuMTItLjA4LjE3LS4xMDUuMDEzIDAgLjAyNi0uMDEzLjA0LS4wMTMuMDUzLS4wMjYuMTItLjA1My4xODQtLjA4cy4xMzItLjA1My4xODQtLjA4Yy4wMTMgMCAuMDI2LS4wMTMuMDQtLjAxMy4wNTMtLjAxMy4xMDUtLjA0LjE1OC0uMDUzLjAxMyAwIC4wNC0uMDEzLjA1My0uMDEzbC4xODQtLjA0aC4wMTNsLjE5OC0uMDRjLjAxMyAwIC4wNCAwIC4wNTMtLjAxMy4wNTMgMCAuMTA1LS4wMTMuMTU4LS4wMTNoLjA2NmMuMDY2IDAgLjEzMi0uMDEzLjItLjAxM2guMTdhLjU0LjU0IDAgMCAxIC4xNDUuMDEzaC4wMjZhMi41IDIuNSAwIDAgMSAuMzE2LjA1MyAzLjM1IDMuMzUgMCAwIDEgMi42NDggMy4yNjd6TTE2Ljk2NyAyLjYzNUgzNy42OWwtNC43NTYgMTQuMDNjLS4xOTguMDQtLjM5NS4xMDUtLjU5My4xN2wtNS4wMDYtMTAuMi01LjAyIDEwLjEzN2MtLjE5OC0uMDY2LS40MDgtLjEwNS0uNjItLjE0NXptOS40MiAxOC42MjhhNS44NCA1Ljg0IDAgMCAwLTEuNzgtMy4xNjJsMi43MjctNS41MDcgMi43NTMgNS42MjVjLS44MTcuODE3LTEuNCAxLjg1OC0xLjY0NyAzLjA0M3ptLTYuNi0yLjA4MmwuMTg0LS4wNGguMDRjLjA1My0uMDEzLjEwNS0uMDEzLjE1OC0uMDI2aC4wNTNjLjA1MyAwIC4wOTItLjAxMy4xNDUtLjAxM2guNTE0Yy4wNTMgMCAuMDkyLjAxMy4xMzIuMDEzLjAyNiAwIC4wNCAwIC4wNjYuMDEzLjA1My4wMTMuMDkyLjAxMy4xNDUuMDI2LjAxMyAwIC4wMjYgMCAuMDUzLjAxM2wuMTg0LjA0YS42NS42NSAwIDAgMSAuMTcxLjA1M2MuMDEzIDAgLjAyNi4wMTMuMDUzLjAxMy4wNC4wMTMuMDkyLjAyNi4xMzIuMDUzLjAxMyAwIC4wMjYuMDEzLjA0LjAxMy4wNTMuMDI2LjEwNS4wNC4xNTguMDY2aC4wMTNjLjA2MS4wMjMuMTE5LjA1NC4xNzEuMDkyLjA2Ni4wMjYuMTIuMDY2LjE3LjA5Mi4wMTMgMCAuMDEzLjAxMy4wMjYuMDEzLjA1My4wMjYuMDkyLjA2Ni4xNDUuMDkybC4wMTMuMDEzYy4xNTUuMTIxLjMwNC4yNDguNDQ4LjM4MmwuMDEzLjAxM2MuMTM3LjE0Ni4yNjEuMzA1LjM2OS40NzRhMy4zMSAzLjMxIDAgMCAxIC41NCAxLjgxOGMwIDEuODMtMS41IDMuMzItMy4zMiAzLjMyYTMuMzQgMy4zNCAwIDAgMS0zLjMyLTMuMzJjLS4wMTMtMS41NCAxLjA1NC0yLjg0NiAyLjUwMy0zLjIxNHptLTEyLjk2My0uMDkyYzEuODMgMCAzLjMyIDEuNSAzLjMyIDMuMzJhMy4zNCAzLjM0IDAgMCAxLTMuMzIgMy4zMiAzLjM0IDMuMzQgMCAwIDEtMy4zMi0zLjMyIDMuMzQgMy4zNCAwIDAgMSAzLjMyLTMuMzJ6bTMwLjY0MSAxMS40MjNjLS4zIDEuNjg2LTEuMzMgMy4xNjItMi44NiA0LjA0NC0xLjQzNi44My0zLjIgMS4wOTMtNS4wNiAxLjM1Ny0xLjAxNC4xNDUtMi4wODIuMzAzLTMuMS41NTMtMi43NC42NzItNS4zNzUgMi03LjkzIDMuMjU0LTMuMjY3IDEuNjItNi4zNSAzLjE1LTkuMiAzLjE1LTEuNSAwLTIuODItLjQyMi00LjA4NC0xLjMwNC0yLjkxMy0yLjAxNC0yLjc2OC01Ljc1OS0yLjQxNi03LjgxNC4zMTYtMS45MjMgMS4yLTMuNzI4IDIuMDQyLTUuNDU0LjA1My0uMTA1LjA5Mi0uMTk4LjE0NS0uMzAzLjI5Ni4xMDUuNi4xODUuOTEuMjM3LS41IDIuNzkzLjkyMiA1LjY3OCAzLjcgNy4xbC41LjI2My41NC0uMTk4YzIuMzA1LS44MTcgNC40NC0yLjE0NyA2LjMyNC0zLjkyNiAxLjA0MS0uOTcgMS45NjEtMi4wNjMgMi43NC0zLjI1NC4yOTcuMDQ4LjU5OS4wNy45LjA2NmE1LjkxIDUuOTEgMCAwIDAgNS43MDQtNC40MTNoMi4yMTNjLjY2IDIuNTQzIDIuOTY0IDQuNDEzIDUuNzA0IDQuNDEzYTUuODMgNS44MyAwIDAgMCAyLjk3Ny0uODE3Yy4zNDMuOTg4LjQ0OCAyLjAxNi4yNjMgMy4wNDN6bTIxLjExMy0xLjQzNmE0LjMyIDQuMzIgMCAwIDEtLjkxIDEuNjM0Yy0uNDIzLjQ3NC0uOTg4Ljg1Ni0xLjcgMS4xNDZzLTEuNTguNDM1LTIuNjIyLjQzNWMtMS43NCAwLTMuMDgzLS40Ni00LjAxOC0xLjM3cy0xLjQtMi4yNjYtMS40LTQuMDN2LTEuMTM5aDIuNDg3di44YTcuNjcgNy42NyAwIDAgMCAuMTMyIDEuNWMuMDkyLjQ2LjIzNy44NDMuNDYgMS4xNzNhMi4yOCAyLjI4IDAgMCAwIC45MDkuNzc3Yy4zOTUuMTg0Ljg5Ni4yNzcgMS41MDIuMjc3IDEuMTMzIDAgMS45LS4zMDMgMi4zNDUtLjkuNDIyLS42MDYuNjQ2LTEuNDIzLjY0Ni0yLjQ1VjEzLjIxNGgyLjQ3N3YxNC4wMThhNi40MyA2LjQzIDAgMCAxLS4zIDEuODQ0em0xMy41NTcgMS45MzZjLTEuMDE0Ljc2NC0yLjI4IDEuMTQ2LTMuODIgMS4xNDYtMS4wOCAwLTIuMDE2LS4xNy0yLjgwNi0uNTI3YTUuNDQgNS40NCAwIDAgMS0yLjAwMi0xLjQ2MmMtLjU0LS42MzItLjk1LTEuMzctMS4yMTItMi4yNTMtLjI3Ny0uODctLjQyMi0xLjgxOC0uNDYtMi44NDYgMC0xLjAyOC4xNTgtMS45NjMuNDc0LTIuODJhNi44MyA2LjgzIDAgMCAxIDEuMzE3LTIuMjI2IDUuODIgNS44MiAwIDAgMSAyLjAxNi0xLjQ2MmMuNzc4LS4zNDIgMS42Mi0uNTI3IDIuNTQzLS41MjcgMS4yIDAgMi4yLjI1IDMgLjc1czEuNDIzIDEuMTMzIDEuOSAxLjg5N2E3LjY1IDcuNjUgMCAwIDEgLjk4OCAyLjUwM2MuMTc1Ljg0OS4yNSAxLjcxNi4yMjQgMi41ODJoLTEwLjFjLS4wMTcuNTY5LjA1MSAxLjEzNy4yIDEuNjg2LjE0Ny41MjYuNDA4IDEgLjc2NCAxLjQuMzQzLjQwOC44LjczOCAxLjMzLjk3NS41NC4yNSAxLjE3My4zNyAxLjkuMzcuOTM1IDAgMS43MTMtLjIyNCAyLjMyLS42NnMxLTEuMDkzIDEuMTg2LTJoMi4yYy0uMzAzIDEuNTQtLjk1IDIuNjg4LTEuOTYzIDMuNDUyem0tLjU0LTguNjdjLS4xOTgtLjQ3NC0uNDc0LS44Ny0uODA0LTEuMjEyYTMuNzYgMy43NiAwIDAgMC0xLjE5OS0uODA0Yy0uNDYtLjE5OC0uOTc1LS4zMDMtMS41MjgtLjMwMy0uNTggMC0xLjA5My4xMDUtMS41NTUuMzAzcy0uODU2LjQ3NC0xLjE4Ni44MTdhNC4yMSA0LjIxIDAgMCAwLS44IDEuMjEyYy0uMjA3LjQ2Mi0uMzAzLjk1LS4zNDMgMS40NzZoNy43NmE0LjY1IDQuNjUgMCAwIDAtLjM1Ni0xLjQ4OXptNi43MDUgNi41YTIuMzggMi4zOCAwIDAgMCAuODE3LjgwNCAzLjk4IDMuOTggMCAwIDAgMS4xNDYuNDM1Yy40MjIuMDkyLjg3LjEzMiAxLjMxNy4xMzJhOC4wNiA4LjA2IDAgMCAwIDEuMDkzLS4wNzkgMy43NiAzLjc2IDAgMCAwIDEuMDU0LS4yOWMuMzE2LS4xNDUuNTkzLS4zNDMuOC0uNjIuMi0uMjYzLjMxNi0uNjIuMzE2LTEuMDI4IDAtLjU4LS4yMjQtMS4wMTQtLjY2LTEuMzA0cy0uOTc1LS41NC0xLjYzNC0uNzI1bC0yLjEzNC0uNWMtLjc2NC0uMTQ1LTEuNDc2LS4zNTYtMi4xMzQtLjYzMmE0LjI3IDQuMjcgMCAwIDEtMS42MzQtMS4xMzNjLS40MzQtLjQ4Ny0uNjYtMS4xNzMtLjY2LTIuMDQyIDAtLjY4NS4xNTgtMS4yNjUuNDYtMS43NTJhMy43MiAzLjcyIDAgMCAxIDEuMTczLTEuMTg2Yy40NzUtLjMwMyAxLjAxNC0uNTI3IDEuNjItLjY4NS41ODYtLjE0NSAxLjE4OC0uMjIgMS43OTItLjIyNC43MTItLjAwNSAxLjQyMi4wNjEgMi4xMi4xOTguNjQ0LjEzMiAxLjIxMi4zNTYgMS43MTMuNjg1LjUuMzE2Ljg5Ni43NjQgMS4xODYgMS4zMDQuMy41NTMuNDc0IDEuMjM4LjUyNyAyLjA1NWgtMi4yMjZjLS4wNC0uNDM1LS4xNDUtLjgtLjM0My0xLjA4YTIuNDUgMi40NSAwIDAgMC0uNzM4LS42OThjLS4zLS4xNy0uNjItLjMwMy0uOTc1LS4zODJzLS43MjUtLjEyLTEuMDgtLjEyYy0uMzM1IDAtLjY3LjAyNi0xLjAwMS4wNzlhMy4yOCAzLjI4IDAgMCAwLS45MjIuMjc3IDEuOTUgMS45NSAwIDAgMC0uNjg1LjUyN2MtLjE3LjIyNC0uMjYzLjUtLjI2My44NDMgMCAuMzgyLjEzMi42OTguNDA4Ljk1LjI2My4yNS42Mi40NiAxLjAyOC42MzIuNDIyLjE3Ljg4My4zMDMgMS40LjQyMmwxLjU2OC4zNTZjLjU1Mi4xMjEgMS4wOTcuMjcxIDEuNjM0LjQ0OGE1IDUgMCAwIDEgMS40LjY5OCAzLjM3IDMuMzcgMCAwIDEgLjk4OCAxLjA4Yy4yNS40MzUuMzgyLjk3NS4zODIgMS42MiAwIC44MTctLjE3IDEuNTAyLS41MTQgMi4wNDJhNC4wNiA0LjA2IDAgMCAxLTEuMzMxIDEuMzA0Yy0uNTUzLjMzLTEuMTczLjU2Ni0xLjg1OC42OThhMTAuODYgMTAuODYgMCAwIDEtMi4wNTUuMTk4Yy0uNzIyLjAwMi0xLjQ0My0uMDc3LTIuMTQ3LS4yMzdhNS4wNSA1LjA1IDAgMCAxLTEuODA1LS43NzdjLS41MjctLjM1Ni0uOTM1LS44My0xLjI1Mi0xLjRzLS40ODctMS4zLS41MjctMi4xMzRoMi4yMjZjLjA2Ni41LjE4NC45MjIuMzk1IDEuMjUyem0xNy4xNC0xMC40Nzd2MS45NjNoLTIuNjg4djguMzkyYzAgLjI2My4wMjYuNDc0LjA2Ni42MzJzLjEzMi4yNzcuMjUuMzcuMy4xNDUuNTE0LjE3LjUuMDQuODQzLjA0aDEuMDE0djEuOTYzaC0xLjdjLS41OCAwLTEuMDY3LS4wNC0xLjQ3Ni0uMTJzLS43MzgtLjIyNC0uOTg4LS40MzUtLjQzNS0uNS0uNTY2LS44ODNjLS4xMi0uMzgyLS4xODQtLjg4My0uMTg0LTEuNTE1di04LjZIODguMjJ2LTEuOTYzaDIuMzA1di00LjA1N2gyLjIyNnY0LjA0NHoiIGZpbGw9IiM5OTQyNGYiLz48L3N5bWJvbD48L3N2Zz4=;" vertex="1" parent="ynCU-Sh1JEw7WHuDhTfK-6">
          <mxGeometry x="19.600000000000023" y="10" width="80.81" height="40" as="geometry" />
        </mxCell>
        <mxCell id="s2w0lYj-zA4G6W59KNL1-1" value="Arrange" style="swimlane;whiteSpace=wrap;html=1;dashed=1;" vertex="1" parent="1">
          <mxGeometry x="150" y="200" width="440" height="240" as="geometry" />
        </mxCell>
        <mxCell id="orQso3CPJAZGe7jwyWwm-1" value="email" style="rounded=0;whiteSpace=wrap;html=1;" vertex="1" parent="s2w0lYj-zA4G6W59KNL1-1">
          <mxGeometry x="240" y="50" width="80" height="40" as="geometry" />
        </mxCell>
        <mxCell id="orQso3CPJAZGe7jwyWwm-6" value="prepare existing email" style="text;html=1;align=center;verticalAlign=middle;resizable=0;points=[];autosize=1;strokeColor=none;fillColor=none;" vertex="1" parent="s2w0lYj-zA4G6W59KNL1-1">
          <mxGeometry x="90" y="40" width="140" height="30" as="geometry" />
        </mxCell>
        <mxCell id="orQso3CPJAZGe7jwyWwm-7" value="initialise" style="text;html=1;align=center;verticalAlign=middle;resizable=0;points=[];autosize=1;strokeColor=none;fillColor=none;" vertex="1" parent="s2w0lYj-zA4G6W59KNL1-1">
          <mxGeometry x="-10" y="110" width="70" height="30" as="geometry" />
        </mxCell>
        <mxCell id="orQso3CPJAZGe7jwyWwm-9" value="mock sending email" style="text;html=1;align=center;verticalAlign=middle;resizable=0;points=[];autosize=1;strokeColor=none;fillColor=none;" vertex="1" parent="s2w0lYj-zA4G6W59KNL1-1">
          <mxGeometry x="184" y="162" width="130" height="30" as="geometry" />
        </mxCell>
        <mxCell id="s2w0lYj-zA4G6W59KNL1-10" value="" style="endArrow=classic;html=1;rounded=0;exitX=1;exitY=0.5;exitDx=0;exitDy=0;" edge="1" parent="1" source="s2w0lYj-zA4G6W59KNL1-1">
          <mxGeometry width="50" height="50" relative="1" as="geometry">
            <mxPoint x="430" y="330" as="sourcePoint" />
            <mxPoint x="640" y="320" as="targetPoint" />
          </mxGeometry>
        </mxCell>
        <mxCell id="c2O81xKZ1_27t6VeCIxN-1" value="Act" style="swimlane;whiteSpace=wrap;html=1;dashed=1;" vertex="1" parent="1">
          <mxGeometry x="640" y="230" width="220" height="170" as="geometry" />
        </mxCell>
        <mxCell id="ZvTh5ONOwrxJI4LvPZc--1" value="PUT /sendPasswordResetEmail/:email" style="rounded=0;whiteSpace=wrap;html=1;" vertex="1" parent="c2O81xKZ1_27t6VeCIxN-1">
          <mxGeometry x="15" y="60" width="190" height="60" as="geometry" />
        </mxCell>
        <mxCell id="ZvTh5ONOwrxJI4LvPZc--2" value="" style="endArrow=classic;html=1;rounded=0;" edge="1" parent="1">
          <mxGeometry width="50" height="50" relative="1" as="geometry">
            <mxPoint x="860" y="320" as="sourcePoint" />
            <mxPoint x="920" y="320" as="targetPoint" />
          </mxGeometry>
        </mxCell>
        <mxCell id="j7nSznA2SA71FVF2r9xq-1" value="check" style="text;html=1;align=center;verticalAlign=middle;resizable=0;points=[];autosize=1;strokeColor=none;fillColor=none;" vertex="1" parent="1">
          <mxGeometry x="870" y="288" width="50" height="30" as="geometry" />
        </mxCell>
        <mxCell id="j7nSznA2SA71FVF2r9xq-2" value="Status Code is 204" style="rounded=0;whiteSpace=wrap;html=1;" vertex="1" parent="1">
          <mxGeometry x="940" y="207" width="120" height="60" as="geometry" />
        </mxCell>
        <mxCell id="j7nSznA2SA71FVF2r9xq-3" value="A JWT token is signed" style="rounded=0;whiteSpace=wrap;html=1;" vertex="1" parent="1">
          <mxGeometry x="940" y="287" width="120" height="60" as="geometry" />
        </mxCell>
        <mxCell id="j7nSznA2SA71FVF2r9xq-4" value="&lt;b&gt;...&lt;/b&gt;" style="text;html=1;align=center;verticalAlign=middle;resizable=0;points=[];autosize=1;strokeColor=none;fillColor=none;" vertex="1" parent="1">
          <mxGeometry x="985" y="347" width="30" height="30" as="geometry" />
        </mxCell>
        <mxCell id="j7nSznA2SA71FVF2r9xq-5" value="A password reset token is set in User database" style="rounded=0;whiteSpace=wrap;html=1;" vertex="1" parent="1">
          <mxGeometry x="940" y="377" width="120" height="60" as="geometry" />
        </mxCell>
        <mxCell id="j7nSznA2SA71FVF2r9xq-6" value="Act" style="swimlane;whiteSpace=wrap;html=1;dashed=1;" vertex="1" parent="1">
          <mxGeometry x="920" y="175" width="165" height="290" as="geometry" />
        </mxCell>
      </root>
    </mxGraphModel>
  </diagram>
  <diagram id="AgRP7nm6WFoI0KlGXnTM" name="auth register flow">
    <mxGraphModel grid="1" page="1" gridSize="10" guides="1" tooltips="1" connect="1" arrows="1" fold="1" pageScale="1" pageWidth="850" pageHeight="1100" math="0" shadow="0">
      <root>
        <mxCell id="0" />
        <mxCell id="1" parent="0" />
        <mxCell id="K0OX8eS-ZuLOnDRHkkNz-2" style="edgeStyle=elbowEdgeStyle;rounded=0;orthogonalLoop=1;jettySize=auto;elbow=vertical;html=1;exitX=0.556;exitY=1.001;exitDx=0;exitDy=0;exitPerimeter=0;entryX=0.322;entryY=0.981;entryDx=0;entryDy=0;entryPerimeter=0;endArrow=none;endFill=0;startArrow=classic;startFill=1;" edge="1" parent="1" source="1P6IjYDq0wI_G7OW6kSJ-1">
          <mxGeometry relative="1" as="geometry">
            <mxPoint x="331.76" y="297.42999999999995" as="targetPoint" />
            <mxPoint x="126" y="289.9999999999999" as="sourcePoint" />
            <Array as="points">
              <mxPoint x="230" y="314" />
            </Array>
          </mxGeometry>
        </mxCell>
        <mxCell id="1P6IjYDq0wI_G7OW6kSJ-1" value="Cloud" style="ellipse;shape=cloud;whiteSpace=wrap;html=1;" vertex="1" parent="1">
          <mxGeometry x="60" y="210" width="120" height="80" as="geometry" />
        </mxCell>
        <mxCell id="1P6IjYDq0wI_G7OW6kSJ-2" value="CORS &lt;br&gt;Middleware" style="rounded=0;whiteSpace=wrap;html=1;" vertex="1" parent="1">
          <mxGeometry x="220" y="220" width="70" height="60" as="geometry" />
        </mxCell>
        <mxCell id="1P6IjYDq0wI_G7OW6kSJ-3" value="" style="endArrow=classic;html=1;rounded=0;exitX=1;exitY=0.5;exitDx=0;exitDy=0;entryX=-0.088;entryY=0.636;entryDx=0;entryDy=0;entryPerimeter=0;" edge="1" parent="1" source="1P6IjYDq0wI_G7OW6kSJ-2" target="1P6IjYDq0wI_G7OW6kSJ-5">
          <mxGeometry width="50" height="50" relative="1" as="geometry">
            <mxPoint x="400" y="330" as="sourcePoint" />
            <mxPoint x="560" y="250" as="targetPoint" />
          </mxGeometry>
        </mxCell>
        <mxCell id="1P6IjYDq0wI_G7OW6kSJ-4" value="" style="group" connectable="0" vertex="1" parent="1">
          <mxGeometry x="306" y="225" width="80" height="69" as="geometry" />
        </mxCell>
        <mxCell id="1P6IjYDq0wI_G7OW6kSJ-5" value="" style="sketch=0;aspect=fixed;pointerEvents=1;shadow=0;dashed=0;html=1;strokeColor=none;labelPosition=center;verticalLabelPosition=bottom;verticalAlign=top;align=center;fillColor=#00188D;shape=mxgraph.mscae.enterprise.router" vertex="1" parent="1P6IjYDq0wI_G7OW6kSJ-4">
          <mxGeometry x="15" width="50" height="39" as="geometry" />
        </mxCell>
        <mxCell id="1P6IjYDq0wI_G7OW6kSJ-6" value="App Router" style="text;html=1;align=center;verticalAlign=middle;resizable=0;points=[];autosize=1;strokeColor=none;fillColor=none;" vertex="1" parent="1P6IjYDq0wI_G7OW6kSJ-4">
          <mxGeometry y="39" width="80" height="30" as="geometry" />
        </mxCell>
        <mxCell id="1P6IjYDq0wI_G7OW6kSJ-8" value="" style="endArrow=classic;html=1;rounded=0;exitX=1;exitY=0.5;exitDx=0;exitDy=0;" edge="1" parent="1">
          <mxGeometry width="50" height="50" relative="1" as="geometry">
            <mxPoint x="470" y="250" as="sourcePoint" />
            <mxPoint x="425" y="250" as="targetPoint" />
            <Array as="points">
              <mxPoint x="390" y="250" />
            </Array>
          </mxGeometry>
        </mxCell>
        <mxCell id="1P6IjYDq0wI_G7OW6kSJ-11" value="" style="endArrow=classic;html=1;rounded=0;exitX=0;exitY=0.75;exitDx=0;exitDy=0;entryX=1;entryY=0.75;entryDx=0;entryDy=0;" edge="1" parent="1" source="1P6IjYDq0wI_G7OW6kSJ-10" target="1P6IjYDq0wI_G7OW6kSJ-9">
          <mxGeometry width="50" height="50" relative="1" as="geometry">
            <mxPoint x="470" y="270" as="sourcePoint" />
            <mxPoint x="673" y="319.88" as="targetPoint" />
          </mxGeometry>
        </mxCell>
        <mxCell id="1P6IjYDq0wI_G7OW6kSJ-18" style="edgeStyle=orthogonalEdgeStyle;rounded=0;orthogonalLoop=1;jettySize=auto;html=1;exitX=0.5;exitY=1;exitDx=0;exitDy=0;" edge="1" parent="1">
          <mxGeometry relative="1" as="geometry">
            <mxPoint x="866" y="349.88" as="sourcePoint" />
            <mxPoint x="866" y="349.88" as="targetPoint" />
          </mxGeometry>
        </mxCell>
        <mxCell id="1P6IjYDq0wI_G7OW6kSJ-19" style="edgeStyle=orthogonalEdgeStyle;rounded=0;orthogonalLoop=1;jettySize=auto;html=1;exitX=0.5;exitY=1;exitDx=0;exitDy=0;exitPerimeter=0;" edge="1" parent="1">
          <mxGeometry relative="1" as="geometry">
            <mxPoint x="853.5" y="373.88" as="sourcePoint" />
            <mxPoint x="853.5" y="373.88" as="targetPoint" />
          </mxGeometry>
        </mxCell>
        <mxCell id="1P6IjYDq0wI_G7OW6kSJ-23" value="&lt;b&gt;1&lt;/b&gt;" style="text;html=1;align=center;verticalAlign=middle;resizable=0;points=[];autosize=1;strokeColor=none;fillColor=none;" vertex="1" parent="1">
          <mxGeometry x="178" y="223" width="30" height="30" as="geometry" />
        </mxCell>
        <mxCell id="1P6IjYDq0wI_G7OW6kSJ-24" value="&lt;b&gt;2&lt;/b&gt;" style="text;html=1;align=center;verticalAlign=middle;resizable=0;points=[];autosize=1;strokeColor=none;fillColor=none;" vertex="1" parent="1">
          <mxGeometry x="288" y="221" width="30" height="30" as="geometry" />
        </mxCell>
        <mxCell id="1P6IjYDq0wI_G7OW6kSJ-27" value="&lt;b&gt;9&lt;/b&gt;" style="text;html=1;align=center;verticalAlign=middle;resizable=0;points=[];autosize=1;strokeColor=none;fillColor=none;" vertex="1" parent="1">
          <mxGeometry x="595" y="264" width="30" height="30" as="geometry" />
        </mxCell>
        <mxCell id="1P6IjYDq0wI_G7OW6kSJ-32" value="Auth Service" style="swimlane;whiteSpace=wrap;html=1;" vertex="1" parent="1">
          <mxGeometry x="180" y="143.13" width="390" height="346.87" as="geometry" />
        </mxCell>
        <mxCell id="1P6IjYDq0wI_G7OW6kSJ-26" value="&lt;b&gt;3&lt;/b&gt;" style="text;html=1;align=center;verticalAlign=middle;resizable=0;points=[];autosize=1;strokeColor=none;fillColor=none;" vertex="1" parent="1P6IjYDq0wI_G7OW6kSJ-32">
          <mxGeometry x="210" y="76.87" width="30" height="30" as="geometry" />
        </mxCell>
        <mxCell id="RqQHCx6-0Tta-N2ZqqcP-11" style="rounded=0;orthogonalLoop=1;jettySize=auto;html=1;exitX=0.5;exitY=1;exitDx=0;exitDy=0;startArrow=classic;startFill=1;" edge="1" parent="1P6IjYDq0wI_G7OW6kSJ-32" source="1P6IjYDq0wI_G7OW6kSJ-9">
          <mxGeometry relative="1" as="geometry">
            <mxPoint x="302.33333333333326" y="176.87" as="targetPoint" />
          </mxGeometry>
        </mxCell>
        <mxCell id="1P6IjYDq0wI_G7OW6kSJ-9" value="POST&lt;br&gt;/registerByEmail" style="rounded=0;whiteSpace=wrap;html=1;" vertex="1" parent="1P6IjYDq0wI_G7OW6kSJ-32">
          <mxGeometry x="245" y="76.87" width="115" height="60" as="geometry" />
        </mxCell>
        <mxCell id="RqQHCx6-0Tta-N2ZqqcP-10" value="" style="shape=image;verticalLabelPosition=bottom;labelBackgroundColor=default;verticalAlign=top;aspect=fixed;imageAspect=0;image=https://nodemailer.com/nm_logo_200x136.png;" vertex="1" parent="1P6IjYDq0wI_G7OW6kSJ-32">
          <mxGeometry x="273.09" y="186.87" width="58.82" height="40" as="geometry" />
        </mxCell>
        <mxCell id="n68JOMpAvjifIrLyQXBb-1" value="" style="rounded=0;whiteSpace=wrap;html=1;fillColor=none;" vertex="1" parent="1P6IjYDq0wI_G7OW6kSJ-32">
          <mxGeometry x="245" y="176.87" width="115" height="60" as="geometry" />
        </mxCell>
        <mxCell id="RqQHCx6-0Tta-N2ZqqcP-12" value="&lt;b&gt;10&lt;/b&gt;" style="text;html=1;align=center;verticalAlign=middle;resizable=0;points=[];autosize=1;strokeColor=none;fillColor=none;" vertex="1" parent="1P6IjYDq0wI_G7OW6kSJ-32">
          <mxGeometry x="296.90999999999997" y="146.87" width="40" height="30" as="geometry" />
        </mxCell>
        <mxCell id="jRy4Mo_xrlg-9AA85xlS-3" value="&lt;b&gt;11&lt;/b&gt;" style="text;html=1;align=center;verticalAlign=middle;resizable=0;points=[];autosize=1;strokeColor=none;fillColor=none;" vertex="1" parent="1P6IjYDq0wI_G7OW6kSJ-32">
          <mxGeometry x="195" y="146.87" width="40" height="30" as="geometry" />
        </mxCell>
        <mxCell id="K0OX8eS-ZuLOnDRHkkNz-3" value="&lt;b&gt;12&lt;/b&gt;" style="text;html=1;align=center;verticalAlign=middle;resizable=0;points=[];autosize=1;strokeColor=none;fillColor=none;" vertex="1" parent="1P6IjYDq0wI_G7OW6kSJ-32">
          <mxGeometry x="35" y="146.87" width="40" height="30" as="geometry" />
        </mxCell>
        <mxCell id="FJHGbXlFkQ9hlUycuPKF-1" value="" style="shape=image;verticalLabelPosition=bottom;labelBackgroundColor=default;verticalAlign=top;aspect=fixed;imageAspect=0;image=data:image/png,iVBORw0KGgoAAAANSUhEUgAAAWcAAACNCAMAAABczkvvAAAAkFBMVEX///8MNEsALEUAEzYAJUAAHTsAFTcAMEifqK8AKENqeoby9PUAIj67wcYAGjn5+vuGkpvP1NizusAAGDjf4+UAHTwADjPJztLV2dxzgYxOYnGOmaEsSFuWoKh8iZMfP1RfcH1BWGhYangAAC+krLPBx8zd4eMAACg1TmASOE48VGUxS14jQlZTZnUAACFufYiG9o1pAAAN40lEQVR4nO1d6WKyOhQsYYkI4oLijtpqv9rl9v3f7qKQPWELVkuZn6xhCMk5k0l4eqqL8bq/jwe1T+9QCotz4AII/PB475K0GoMXaKRwlvcuS4vx+mJghL17l6a92EDCs2F69y5OW3G0KZoNd3Tv8rQUXmgwCIf3LlE7sQcsz9b23iVqJeaOwcG6d5FaCQPyPPtdEN081hZPs2HAexeqfZhGIs2GPbl3sVqHA5DwDHf3LlbbMAkkNCcV+nTvgrULQ0njfK3Qb/cuWbuwdOU8G+H43kVrExZ8JwhQjAdX9y5bm7DhQme//4ykDvP13oVrD3o+1/tNn54GWccI9vcuXWvgcQl3Su17VsfN6Z2L1xo88/rRVeE/oQrdDaw0gxOvH9nz6/ZPVKE7vb8RQF4/ilLdeZJ1hZ3e3whGfIqCk220odP7G4CoH4HvbNcxC0M6vb8BvAuqs4VVZ1TT/XsWsB2YzHiaDXuBdm4zoju9XxdDW6DZiMheJOJ1er8m+qJ+REt0o2y33+n9WhibYnUGMdnvmVwI0qEWdkInyNXdZZYqdnq/Dra+SLMR0gIdivo6vV8DnqTVMAyHOQZ5Zzq9vz5W0qHXA3PMa/YuQKf318UglNAsqBkrpCYt5FfpUARZbU66QW7KxDhT8zq9vyZi+dBryMv6KDGPOr2/Dl5l/iNDomV0er8WPiSh84XNZ+FIpPdHnd5fHUeJsHHtBkUNtNP764O37mPIEj+0z+n0/qrgrfsYssHATu+vi7k0E0wApQpop/fXhGjdR91gX3Z4p/fXg8y6nzUN0smZWO8HP13SXw2pdT+FLZeLOr2/Dg6qVgNbN3g8mN4/2O+MzfLRBReFdT+XR6T3zx5hwYi9A6ABwctjT0AfysR91P6qcutH0vsHyKf28tAJqtK6b9DWDR5Y75/r3n8fzSjYM7A7xMcqbcA3iv0furcQrPs0AuXzNqf39/kUCUJgBXZc2s+OhyceOm/irfsMIvV5jen9As/ZC4z2JZsBnMuqv777g7fuszUrp/VtTO9X8Jxc2Sk3qI6yJiN63IiDt+6zcOOcU98a0vuVPCeXLtXgDsO0JL4o4T4MeOs+i9yOBev93zkHlUAOz8ZLqRo6fYtse/bywOMOgnWfhTBmxaAhvZ/wDC9gCgDP5a4xnZ/GjyzS5vWBF55zT8Z6f17rUgzMM/zcJXCjgAo02zFxX7DusyiK2fCSa1pVCfPsZhumW4tU8Y3OpR8EOfpR+uDr/POx3l9wXD4wz2S1miFZLKENs+hE6z4L3rohAH0Otk4pJDxTDRrqiufjC+boy1msV2cLfFx3euk+am8KbzB6fjNcYBz66wHzurKLZf3K9Lj/gO75sDzSB43XX58A7FYjRXA5ncRfn3YYhv5mv81NiiXWfRZOUV3Cer+OgiPl+YheYfZNDf+zL/iXPtDrwXQvZ9nXxGTwz07xH90hDw6R76bT0iFwfccYEYk3uh6e6k7Tr8gCl+4XAj9aofjmeA7ddKNrh+J483zphr6bddpJ+jqbjZTBQJ5+JD64/BJo9FZH75fyPMVXTqO1YZrmp5l1LwL0BzdAD+KQZ51uAv5jdcNzL6vwaUd77X62ER1WwujKqfdh02dbgAkvhz0jEGJR11Ql/RLrPguJdYNHE3q/lOcnPGKzT5/NJNQs8dh8OoFUwvM8kjWJ0Mh2Z6WOhk8xP84fJMGTZ3E0QiaOj+XB8ExOl8y6z6KELOMheVRD75fzjNqN7GVnPF8izRGRy4Or1iTyrOjg8XAmqh3ziUiZOXjaCbUVulTRPJVzSzqWKrPus7BLSJ4x8vfX1/sL6nNaeMRz8DqnnjK8EivyrPBWzVA/mfEMRUIvW2XKGhNSKZyIhiMhQWrd504rkedhvf+jKr0Y8vYZ8ZwlQYhnEH9SLKQTcwWex7gxAHZoOqFtQepST5hnA/VjgOFbthXSPVBaoZN+M3AS2CTYF7PXfP0oQxWW6uv9Up63iIpM60Q8k4VtLml66h8ReB7hk/dzb+hN59t3M6GahOJ0fYThrr/cAy5jc53D93IVkpsF9ID0EhgggN+T1+SGw/kKV1lxkoPUus9Cbt3ggfX+Q/Gxcsh49rDbL3u+IdubANvxz2c/jdsFnr8yesAXuWBvF5ESUjy772kXt2YGScP4eimP5EuMwcL7Z8cUpXhESkjs5NZ9FnLrhoCvrChOXfFXwrNHOo8sBWJ4hs7ylPKQPgzPM1Js2ceeE2YIz0RaGFHkB3jAALfVrCo5YDMipH7BrycWxbVZad3ggfX+uuqvoG94axL7ooFgmmfrwHYcAs8oz4WfilsSSmeEMNJhUUMXJ/Rh5a6/hTvGs2J7HsqqQ7rr+WCewXa9Xo/6nw5VOjSIQPFs8e2ZwDMeyAJf8mfAN6BrPNFn6TwY5czKd3YBzl5ZgVNl3WeQe2Eauno/eT73AkBHVS7S7gnPYmSj7gcNMFvLmMb7A2qwF5PF3AF7iPKU8AkqgclsfisMnY0q0yI01/PJGU8hgRLhWezTBZ7nVO9jBbH4nWGe6fp3Qpdh/PPIEATV0dfQw6+I4Vll3WdRPpUe6On9ap6hjynCPEsyTzFPYXIw1zzw+QOOn9+pjWNEC/Pk6NsQeF4cR/v3HbQC03FwUEjz7BXJdCnU1g0ByNVbJrERoeTZOpOaSOJn8WWKPI/ZhhHYgI2dEM9M6Ip5ZvJgOc+DZzu4qIH8UlI0z0rrPov8MSsGenq/0r9BM4p5lng0JDpSj+uBoM+ch+NduoXAPNONtpTnCbAVHFI8K637XMnoT6oIbvZaa/n7JTzDJA9ZMs0q5lnSnMl00UHIX9V+J3sxz7RSRnim7yzheaX2fVI8n8t0ghUnUyG9v2Rqw4LwnKr1QRhuYi4RqMzzk7c3OaYBxLtxXl6H5zcq7ITAtSzfJ6Ns+Lx1sX6keh410Go/sI7eT+Ln8fyChSwOr8xz0lF9cUwDPKarw/OIEOg6u/66dzwORuhGmOeioVeMfOsGj7WG3i/XRTnU4Dl52KVj0V+vj2jV4JkSn8M1ut9AiJ9zrPssqjW1SP4r62uhcTuek9O2rk89MbqDBs/YzAddcpiQp+RY91lUtduiTL6G3n9LnhMcXSJ5hlmsqsEzFjpnVPQn8GyVrc5F1g0eeMJKdV/LjXlOqMJaOzpZg2fS5FMH9bh8MM+6z8Kvus5Ufb3/5jxjgxrmVYNn1DwzduQ+2w/mWvdZVE7tpqhCV9b7b88zzsOb5JlKJfF0yoznXOs+i+oBGnL4Vtb7m+f5yPONen+UFGrwjHVSStTrs/FzrnWfo3lfhiEGi7p6f/M8r16emTwHL8aAFl/Q4BnX1RDXp5jocheeSw29ygpQEqjSVPX3N8/zFwS+edgi/9wJp8DIqa3B8zdRy9OXdvqghnAvPOdb91mUsW7wQKpvufFbglvwfCHGtR3/bbXaONjDhceeNHiekEbBt99Wm5BxiCU8L8rpR2yJKwF9UhX9/TfiOWWHUS4jNESgk3fTI9jo6u4n4fm7QnWuk9bV1vtvyTMDH48Q6fC8FUdJ/CVKH8zCKRIMqn76GVA7aFby9/8UzzbpoLX0unc+CbH3eDalSRY1KoOaEx6R3l8tmWye54MksAIRJfRq8fz0xlw+tfJm33JFnmc1F2lFY9WV/P37wEph5hw0/JcdJJlSOIiyff+QQX8EQx/glhkmXaL5TZPnoDsyPL9kW1/o8ZQ4O9anasE6QvoFdMPPlKswLUG1dqPuxJ5eHb1/0EPIO2qbHbMV06BXvI8U+/W4PEDHdMLQMeEhPrEPhO9I16cpvgzdj59kpfN6B9tMrmwdRigwS59iS+Zjl0D9SU5I73eLD/0ReAlud2lpbZyUchNcIRlTLgkdvb8tKDaWI9RnSUfvbwvKq3VB/V85auj9rUGcP/uVYFb/HnjCShvmsdaF8CM2OapLyBT0/f2/HyUtMlrr4OIJKzov67ejcMrgFYXTjXNRW+9vEYalxmGrWTd41Nb724Qy81KKpxvnA82d+dPr95cQ+4XJLBVRV+9vFbxio0xV64aAmnp/u1Bs5tf+RRjSKTXX8/nlKHTY1XPl00Dho9byJ78d8p+FEchXiq8EdIcKUy9aiAIbh/7/lPCQsF4g/uuhWDUhQy1PPo0j7mr/+M8g873mdawbGN5kH5LPpXB9pZYjd9m6mrMtEyy2b5FPx+d//q/IOXOBaq7AMzzFIOSyeq1VwFqBsbrlqDNLe3r8MsUZdaDsBPEWQ204r2zdGI92jkyeco2/nA4iKGWOSjGvN+nbtitrhNxo/8jr1/4YlAsSl7duvPbeTV/2voDlGOVX1285FLO8y/6nYx5DvtvLSPbNVe+Px3M0FKtelrFueJPn0JY18NANrG9+xvBfx0Qq+RdaNxbbjaK18M3N+k8LGgpIl1YL89rV4WkJQmm3B+zwWZh90+EK6a9K1VLm9LhypBUZWiGM/7aSkQ+J5K9yA1yDZEVr8b7tYot8vIurGEusG5cgeSZrLaA78/uTrrUohCjcCYrx61YdJO9GNe3ofw7CormsdeOkDpKd1bELksvjk2MxxK2Ad0yCZGm35wZg2QXJ1cCvzJh5ChbrLkhuFrxX147ng2836ILkpsH/uRvYXZB8C5Tx6nZBcgP4zvfqJkGy3QXJDSDPq9sFyQ1ioJD8L0pyFyQ3CIlXNwmS3S5Ibhj8QsVdkHwjLKi/Qbm289x1ezfC9DO4LDUALkHyH56P9gM4xRt43nfdnjb+B1UqyZ0I5iskAAAAAElFTkSuQmCC;" vertex="1" parent="1P6IjYDq0wI_G7OW6kSJ-32">
          <mxGeometry x="139.99999999999994" y="276.87" width="76.38" height="30" as="geometry" />
        </mxCell>
        <mxCell id="FJHGbXlFkQ9hlUycuPKF-2" value="" style="rounded=0;whiteSpace=wrap;html=1;fillColor=none;" vertex="1" parent="1P6IjYDq0wI_G7OW6kSJ-32">
          <mxGeometry x="120.69" y="261.87" width="115" height="60" as="geometry" />
        </mxCell>
        <mxCell id="1P6IjYDq0wI_G7OW6kSJ-38" value="" style="endArrow=classic;startArrow=none;html=1;rounded=0;entryX=0;entryY=0.5;entryDx=0;entryDy=0;endFill=1;startFill=0;" edge="1" parent="1" source="1P6IjYDq0wI_G7OW6kSJ-9" target="1P6IjYDq0wI_G7OW6kSJ-10">
          <mxGeometry width="50" height="50" relative="1" as="geometry">
            <mxPoint x="583" y="250" as="sourcePoint" />
            <mxPoint x="625" y="250" as="targetPoint" />
          </mxGeometry>
        </mxCell>
        <mxCell id="1P6IjYDq0wI_G7OW6kSJ-39" value="" style="endArrow=classic;startArrow=classic;html=1;rounded=0;exitX=0.875;exitY=0.5;exitDx=0;exitDy=0;exitPerimeter=0;" edge="1" parent="1" source="1P6IjYDq0wI_G7OW6kSJ-1" target="1P6IjYDq0wI_G7OW6kSJ-2">
          <mxGeometry width="50" height="50" relative="1" as="geometry">
            <mxPoint x="470" y="270" as="sourcePoint" />
            <mxPoint x="520" y="220" as="targetPoint" />
          </mxGeometry>
        </mxCell>
        <mxCell id="RqQHCx6-0Tta-N2ZqqcP-1" value="User Service" style="swimlane;whiteSpace=wrap;html=1;" vertex="1" parent="1">
          <mxGeometry x="650" y="143.13" width="190" height="276.87" as="geometry" />
        </mxCell>
        <mxCell id="1P6IjYDq0wI_G7OW6kSJ-10" value="POST&lt;br&gt;/users" style="rounded=0;whiteSpace=wrap;html=1;" vertex="1" parent="RqQHCx6-0Tta-N2ZqqcP-1">
          <mxGeometry x="40" y="77.87" width="120" height="60" as="geometry" />
        </mxCell>
        <mxCell id="eNgNc-_cxK66UDRYoBE_-1" style="rounded=0;orthogonalLoop=1;jettySize=auto;elbow=vertical;html=1;exitX=0.25;exitY=0;exitDx=0;exitDy=0;entryX=0.25;entryY=1;entryDx=0;entryDy=0;" edge="1" parent="RqQHCx6-0Tta-N2ZqqcP-1" source="FJHGbXlFkQ9hlUycuPKF-4" target="1P6IjYDq0wI_G7OW6kSJ-10">
          <mxGeometry relative="1" as="geometry" />
        </mxCell>
        <mxCell id="FJHGbXlFkQ9hlUycuPKF-4" value="" style="rounded=0;whiteSpace=wrap;html=1;fillColor=none;" vertex="1" parent="RqQHCx6-0Tta-N2ZqqcP-1">
          <mxGeometry x="40" y="196.87" width="115" height="60" as="geometry" />
        </mxCell>
        <mxCell id="FJHGbXlFkQ9hlUycuPKF-3" value="" style="shape=image;verticalLabelPosition=bottom;labelBackgroundColor=default;verticalAlign=top;aspect=fixed;imageAspect=0;image=data:image/png,iVBORw0KGgoAAAANSUhEUgAAAWcAAACNCAMAAABczkvvAAAAkFBMVEX///8MNEsALEUAEzYAJUAAHTsAFTcAMEifqK8AKENqeoby9PUAIj67wcYAGjn5+vuGkpvP1NizusAAGDjf4+UAHTwADjPJztLV2dxzgYxOYnGOmaEsSFuWoKh8iZMfP1RfcH1BWGhYangAAC+krLPBx8zd4eMAACg1TmASOE48VGUxS14jQlZTZnUAACFufYiG9o1pAAAN40lEQVR4nO1d6WKyOhQsYYkI4oLijtpqv9rl9v3f7qKQPWELVkuZn6xhCMk5k0l4eqqL8bq/jwe1T+9QCotz4AII/PB475K0GoMXaKRwlvcuS4vx+mJghL17l6a92EDCs2F69y5OW3G0KZoNd3Tv8rQUXmgwCIf3LlE7sQcsz9b23iVqJeaOwcG6d5FaCQPyPPtdEN081hZPs2HAexeqfZhGIs2GPbl3sVqHA5DwDHf3LlbbMAkkNCcV+nTvgrULQ0njfK3Qb/cuWbuwdOU8G+H43kVrExZ8JwhQjAdX9y5bm7DhQme//4ykDvP13oVrD3o+1/tNn54GWccI9vcuXWvgcQl3Su17VsfN6Z2L1xo88/rRVeE/oQrdDaw0gxOvH9nz6/ZPVKE7vb8RQF4/ilLdeZJ1hZ3e3whGfIqCk220odP7G4CoH4HvbNcxC0M6vb8BvAuqs4VVZ1TT/XsWsB2YzHiaDXuBdm4zoju9XxdDW6DZiMheJOJ1er8m+qJ+REt0o2y33+n9WhibYnUGMdnvmVwI0qEWdkInyNXdZZYqdnq/Dra+SLMR0gIdivo6vV8DnqTVMAyHOQZ5Zzq9vz5W0qHXA3PMa/YuQKf318UglNAsqBkrpCYt5FfpUARZbU66QW7KxDhT8zq9vyZi+dBryMv6KDGPOr2/Dl5l/iNDomV0er8WPiSh84XNZ+FIpPdHnd5fHUeJsHHtBkUNtNP764O37mPIEj+0z+n0/qrgrfsYssHATu+vi7k0E0wApQpop/fXhGjdR91gX3Z4p/fXg8y6nzUN0smZWO8HP13SXw2pdT+FLZeLOr2/Dg6qVgNbN3g8mN4/2O+MzfLRBReFdT+XR6T3zx5hwYi9A6ABwctjT0AfysR91P6qcutH0vsHyKf28tAJqtK6b9DWDR5Y75/r3n8fzSjYM7A7xMcqbcA3iv0furcQrPs0AuXzNqf39/kUCUJgBXZc2s+OhyceOm/irfsMIvV5jen9As/ZC4z2JZsBnMuqv777g7fuszUrp/VtTO9X8Jxc2Sk3qI6yJiN63IiDt+6zcOOcU98a0vuVPCeXLtXgDsO0JL4o4T4MeOs+i9yOBev93zkHlUAOz8ZLqRo6fYtse/bywOMOgnWfhTBmxaAhvZ/wDC9gCgDP5a4xnZ/GjyzS5vWBF55zT8Z6f17rUgzMM/zcJXCjgAo02zFxX7DusyiK2fCSa1pVCfPsZhumW4tU8Y3OpR8EOfpR+uDr/POx3l9wXD4wz2S1miFZLKENs+hE6z4L3rohAH0Otk4pJDxTDRrqiufjC+boy1msV2cLfFx3euk+am8KbzB6fjNcYBz66wHzurKLZf3K9Lj/gO75sDzSB43XX58A7FYjRXA5ncRfn3YYhv5mv81NiiXWfRZOUV3Cer+OgiPl+YheYfZNDf+zL/iXPtDrwXQvZ9nXxGTwz07xH90hDw6R76bT0iFwfccYEYk3uh6e6k7Tr8gCl+4XAj9aofjmeA7ddKNrh+J483zphr6bddpJ+jqbjZTBQJ5+JD64/BJo9FZH75fyPMVXTqO1YZrmp5l1LwL0BzdAD+KQZ51uAv5jdcNzL6vwaUd77X62ER1WwujKqfdh02dbgAkvhz0jEGJR11Ql/RLrPguJdYNHE3q/lOcnPGKzT5/NJNQs8dh8OoFUwvM8kjWJ0Mh2Z6WOhk8xP84fJMGTZ3E0QiaOj+XB8ExOl8y6z6KELOMheVRD75fzjNqN7GVnPF8izRGRy4Or1iTyrOjg8XAmqh3ziUiZOXjaCbUVulTRPJVzSzqWKrPus7BLSJ4x8vfX1/sL6nNaeMRz8DqnnjK8EivyrPBWzVA/mfEMRUIvW2XKGhNSKZyIhiMhQWrd504rkedhvf+jKr0Y8vYZ8ZwlQYhnEH9SLKQTcwWex7gxAHZoOqFtQepST5hnA/VjgOFbthXSPVBaoZN+M3AS2CTYF7PXfP0oQxWW6uv9Up63iIpM60Q8k4VtLml66h8ReB7hk/dzb+hN59t3M6GahOJ0fYThrr/cAy5jc53D93IVkpsF9ID0EhgggN+T1+SGw/kKV1lxkoPUus9Cbt3ggfX+Q/Gxcsh49rDbL3u+IdubANvxz2c/jdsFnr8yesAXuWBvF5ESUjy772kXt2YGScP4eimP5EuMwcL7Z8cUpXhESkjs5NZ9FnLrhoCvrChOXfFXwrNHOo8sBWJ4hs7ylPKQPgzPM1Js2ceeE2YIz0RaGFHkB3jAALfVrCo5YDMipH7BrycWxbVZad3ggfX+uuqvoG94axL7ooFgmmfrwHYcAs8oz4WfilsSSmeEMNJhUUMXJ/Rh5a6/hTvGs2J7HsqqQ7rr+WCewXa9Xo/6nw5VOjSIQPFs8e2ZwDMeyAJf8mfAN6BrPNFn6TwY5czKd3YBzl5ZgVNl3WeQe2Eauno/eT73AkBHVS7S7gnPYmSj7gcNMFvLmMb7A2qwF5PF3AF7iPKU8AkqgclsfisMnY0q0yI01/PJGU8hgRLhWezTBZ7nVO9jBbH4nWGe6fp3Qpdh/PPIEATV0dfQw6+I4Vll3WdRPpUe6On9ap6hjynCPEsyTzFPYXIw1zzw+QOOn9+pjWNEC/Pk6NsQeF4cR/v3HbQC03FwUEjz7BXJdCnU1g0ByNVbJrERoeTZOpOaSOJn8WWKPI/ZhhHYgI2dEM9M6Ip5ZvJgOc+DZzu4qIH8UlI0z0rrPov8MSsGenq/0r9BM4p5lng0JDpSj+uBoM+ch+NduoXAPNONtpTnCbAVHFI8K637XMnoT6oIbvZaa/n7JTzDJA9ZMs0q5lnSnMl00UHIX9V+J3sxz7RSRnim7yzheaX2fVI8n8t0ghUnUyG9v2Rqw4LwnKr1QRhuYi4RqMzzk7c3OaYBxLtxXl6H5zcq7ITAtSzfJ6Ns+Lx1sX6keh410Go/sI7eT+Ln8fyChSwOr8xz0lF9cUwDPKarw/OIEOg6u/66dzwORuhGmOeioVeMfOsGj7WG3i/XRTnU4Dl52KVj0V+vj2jV4JkSn8M1ut9AiJ9zrPssqjW1SP4r62uhcTuek9O2rk89MbqDBs/YzAddcpiQp+RY91lUtduiTL6G3n9LnhMcXSJ5hlmsqsEzFjpnVPQn8GyVrc5F1g0eeMJKdV/LjXlOqMJaOzpZg2fS5FMH9bh8MM+6z8Kvus5Ufb3/5jxjgxrmVYNn1DwzduQ+2w/mWvdZVE7tpqhCV9b7b88zzsOb5JlKJfF0yoznXOs+i+oBGnL4Vtb7m+f5yPONen+UFGrwjHVSStTrs/FzrnWfo3lfhiEGi7p6f/M8r16emTwHL8aAFl/Q4BnX1RDXp5jocheeSw29ygpQEqjSVPX3N8/zFwS+edgi/9wJp8DIqa3B8zdRy9OXdvqghnAvPOdb91mUsW7wQKpvufFbglvwfCHGtR3/bbXaONjDhceeNHiekEbBt99Wm5BxiCU8L8rpR2yJKwF9UhX9/TfiOWWHUS4jNESgk3fTI9jo6u4n4fm7QnWuk9bV1vtvyTMDH48Q6fC8FUdJ/CVKH8zCKRIMqn76GVA7aFby9/8UzzbpoLX0unc+CbH3eDalSRY1KoOaEx6R3l8tmWye54MksAIRJfRq8fz0xlw+tfJm33JFnmc1F2lFY9WV/P37wEph5hw0/JcdJJlSOIiyff+QQX8EQx/glhkmXaL5TZPnoDsyPL9kW1/o8ZQ4O9anasE6QvoFdMPPlKswLUG1dqPuxJ5eHb1/0EPIO2qbHbMV06BXvI8U+/W4PEDHdMLQMeEhPrEPhO9I16cpvgzdj59kpfN6B9tMrmwdRigwS59iS+Zjl0D9SU5I73eLD/0ReAlud2lpbZyUchNcIRlTLgkdvb8tKDaWI9RnSUfvbwvKq3VB/V85auj9rUGcP/uVYFb/HnjCShvmsdaF8CM2OapLyBT0/f2/HyUtMlrr4OIJKzov67ejcMrgFYXTjXNRW+9vEYalxmGrWTd41Nb724Qy81KKpxvnA82d+dPr95cQ+4XJLBVRV+9vFbxio0xV64aAmnp/u1Bs5tf+RRjSKTXX8/nlKHTY1XPl00Dho9byJ78d8p+FEchXiq8EdIcKUy9aiAIbh/7/lPCQsF4g/uuhWDUhQy1PPo0j7mr/+M8g873mdawbGN5kH5LPpXB9pZYjd9m6mrMtEyy2b5FPx+d//q/IOXOBaq7AMzzFIOSyeq1VwFqBsbrlqDNLe3r8MsUZdaDsBPEWQ204r2zdGI92jkyeco2/nA4iKGWOSjGvN+nbtitrhNxo/8jr1/4YlAsSl7duvPbeTV/2voDlGOVX1285FLO8y/6nYx5DvtvLSPbNVe+Px3M0FKtelrFueJPn0JY18NANrG9+xvBfx0Qq+RdaNxbbjaK18M3N+k8LGgpIl1YL89rV4WkJQmm3B+zwWZh90+EK6a9K1VLm9LhypBUZWiGM/7aSkQ+J5K9yA1yDZEVr8b7tYot8vIurGEusG5cgeSZrLaA78/uTrrUohCjcCYrx61YdJO9GNe3ofw7CormsdeOkDpKd1bELksvjk2MxxK2Ad0yCZGm35wZg2QXJ1cCvzJh5ChbrLkhuFrxX147ng2836ILkpsH/uRvYXZB8C5Tx6nZBcgP4zvfqJkGy3QXJDSDPq9sFyQ1ioJD8L0pyFyQ3CIlXNwmS3S5Ibhj8QsVdkHwjLKi/Qbm289x1ezfC9DO4LDUALkHyH56P9gM4xRt43nfdnjb+B1UqyZ0I5iskAAAAAElFTkSuQmCC;" vertex="1" parent="RqQHCx6-0Tta-N2ZqqcP-1">
          <mxGeometry x="61.809999999999945" y="211.87" width="76.38" height="30" as="geometry" />
        </mxCell>
        <mxCell id="iceLczNkXt3MG4W52QCH-1" style="edgeStyle=elbowEdgeStyle;rounded=0;orthogonalLoop=1;jettySize=auto;elbow=vertical;html=1;exitX=0.5;exitY=1;exitDx=0;exitDy=0;entryX=0.523;entryY=-0.054;entryDx=0;entryDy=0;entryPerimeter=0;endArrow=classic;endFill=1;startArrow=none;startFill=0;" edge="1" parent="RqQHCx6-0Tta-N2ZqqcP-1" source="1P6IjYDq0wI_G7OW6kSJ-10" target="FJHGbXlFkQ9hlUycuPKF-4">
          <mxGeometry relative="1" as="geometry" />
        </mxCell>
        <mxCell id="iceLczNkXt3MG4W52QCH-2" value="&lt;span&gt;6&lt;/span&gt;" style="text;html=1;align=center;verticalAlign=middle;resizable=0;points=[];autosize=1;strokeColor=none;fillColor=none;fontStyle=1" vertex="1" parent="RqQHCx6-0Tta-N2ZqqcP-1">
          <mxGeometry x="100" y="156.87" width="30" height="30" as="geometry" />
        </mxCell>
        <mxCell id="eNgNc-_cxK66UDRYoBE_-2" value="&lt;b&gt;8&lt;/b&gt;" style="text;html=1;align=center;verticalAlign=middle;resizable=0;points=[];autosize=1;strokeColor=none;fillColor=none;" vertex="1" parent="RqQHCx6-0Tta-N2ZqqcP-1">
          <mxGeometry x="61.809999999999945" y="156.87" width="30" height="30" as="geometry" />
        </mxCell>
        <mxCell id="1P6IjYDq0wI_G7OW6kSJ-34" value="&lt;b&gt;4&lt;/b&gt;" style="text;html=1;align=center;verticalAlign=middle;resizable=0;points=[];autosize=1;strokeColor=none;fillColor=none;" vertex="1" parent="1">
          <mxGeometry x="595" y="200" width="30" height="30" as="geometry" />
        </mxCell>
        <mxCell id="RqQHCx6-0Tta-N2ZqqcP-5" value="User Body + &lt;br style=&quot;font-size: 10px;&quot;&gt;Verification Token" style="text;html=1;align=center;verticalAlign=middle;resizable=0;points=[];autosize=1;strokeColor=none;fillColor=none;fontSize=10;" vertex="1" parent="1">
          <mxGeometry x="560" y="213" width="100" height="40" as="geometry" />
        </mxCell>
        <mxCell id="RqQHCx6-0Tta-N2ZqqcP-6" value="201 Created" style="text;html=1;align=center;verticalAlign=middle;resizable=0;points=[];autosize=1;strokeColor=none;fillColor=none;fontSize=10;" vertex="1" parent="1">
          <mxGeometry x="570" y="280" width="80" height="30" as="geometry" />
        </mxCell>
        <mxCell id="jRy4Mo_xrlg-9AA85xlS-2" style="edgeStyle=orthogonalEdgeStyle;rounded=0;orthogonalLoop=1;jettySize=auto;html=1;exitX=0.25;exitY=1;exitDx=0;exitDy=0;entryX=0.461;entryY=1;entryDx=0;entryDy=0;entryPerimeter=0;" edge="1" parent="1" source="1P6IjYDq0wI_G7OW6kSJ-9" target="1P6IjYDq0wI_G7OW6kSJ-6">
          <mxGeometry relative="1" as="geometry" />
        </mxCell>
        <mxCell id="hBK1yOrZjQRX_kqW5h1m-1" value="PostgreSQL" style="shape=cylinder3;whiteSpace=wrap;html=1;boundedLbl=1;backgroundOutline=1;size=15;" vertex="1" parent="1">
          <mxGeometry x="630" y="470.75" width="101" height="50" as="geometry" />
        </mxCell>
        <mxCell id="hBK1yOrZjQRX_kqW5h1m-2" value="" style="shape=image;verticalLabelPosition=bottom;labelBackgroundColor=default;verticalAlign=top;aspect=fixed;imageAspect=0;image=https://www.vectorlogo.zone/logos/supabase/supabase-ar21.svg;clipPath=inset(20% 0% 21.67% 0%);" vertex="1" parent="1">
          <mxGeometry x="630" y="460" width="126" height="36.75" as="geometry" />
        </mxCell>
        <mxCell id="hBK1yOrZjQRX_kqW5h1m-3" style="edgeStyle=elbowEdgeStyle;rounded=0;orthogonalLoop=1;jettySize=auto;elbow=vertical;html=1;exitX=0.5;exitY=1;exitDx=0;exitDy=0;entryX=0.5;entryY=1;entryDx=0;entryDy=0;entryPerimeter=0;startArrow=classic;startFill=1;" edge="1" parent="1" source="FJHGbXlFkQ9hlUycuPKF-2" target="hBK1yOrZjQRX_kqW5h1m-1">
          <mxGeometry relative="1" as="geometry">
            <Array as="points">
              <mxPoint x="590" y="540" />
              <mxPoint x="580" y="510" />
              <mxPoint x="550" y="470" />
            </Array>
          </mxGeometry>
        </mxCell>
        <mxCell id="hBK1yOrZjQRX_kqW5h1m-4" style="edgeStyle=elbowEdgeStyle;rounded=0;orthogonalLoop=1;jettySize=auto;elbow=vertical;html=1;exitX=0.5;exitY=1;exitDx=0;exitDy=0;startArrow=classic;startFill=1;" edge="1" parent="1" source="FJHGbXlFkQ9hlUycuPKF-4" target="hBK1yOrZjQRX_kqW5h1m-2">
          <mxGeometry relative="1" as="geometry" />
        </mxCell>
        <mxCell id="iceLczNkXt3MG4W52QCH-3" value="&lt;b&gt;7&lt;/b&gt;" style="text;html=1;align=center;verticalAlign=middle;resizable=0;points=[];autosize=1;strokeColor=none;fillColor=none;" vertex="1" parent="1">
          <mxGeometry x="710" y="430" width="30" height="30" as="geometry" />
        </mxCell>
      </root>
    </mxGraphModel>
  </diagram>
  <diagram id="s9JxgMh3cod_3jTSWXYs" name="auth validate flow">
    <mxGraphModel grid="1" page="1" gridSize="10" guides="1" tooltips="1" connect="1" arrows="1" fold="1" pageScale="1" pageWidth="850" pageHeight="1100" math="0" shadow="0">
      <root>
        <mxCell id="0" />
        <mxCell id="1" parent="0" />
        <mxCell id="ZAKau98Ayw7DTdESdYOl-1" style="edgeStyle=elbowEdgeStyle;rounded=0;orthogonalLoop=1;jettySize=auto;elbow=vertical;html=1;exitX=0.556;exitY=1.001;exitDx=0;exitDy=0;exitPerimeter=0;entryX=0.322;entryY=0.981;entryDx=0;entryDy=0;entryPerimeter=0;endArrow=none;endFill=0;startArrow=classic;startFill=1;" edge="1" parent="1" source="ZAKau98Ayw7DTdESdYOl-2">
          <mxGeometry relative="1" as="geometry">
            <mxPoint x="331.76" y="297.42999999999995" as="targetPoint" />
            <mxPoint x="126" y="289.9999999999999" as="sourcePoint" />
            <Array as="points">
              <mxPoint x="230" y="314" />
            </Array>
          </mxGeometry>
        </mxCell>
        <mxCell id="ZAKau98Ayw7DTdESdYOl-2" value="Cloud" style="ellipse;shape=cloud;whiteSpace=wrap;html=1;" vertex="1" parent="1">
          <mxGeometry x="60" y="210" width="120" height="80" as="geometry" />
        </mxCell>
        <mxCell id="ZAKau98Ayw7DTdESdYOl-3" value="CORS &lt;br&gt;Middleware" style="rounded=0;whiteSpace=wrap;html=1;" vertex="1" parent="1">
          <mxGeometry x="220" y="220" width="70" height="60" as="geometry" />
        </mxCell>
        <mxCell id="ZAKau98Ayw7DTdESdYOl-4" value="" style="endArrow=classic;html=1;rounded=0;exitX=1;exitY=0.5;exitDx=0;exitDy=0;entryX=-0.088;entryY=0.636;entryDx=0;entryDy=0;entryPerimeter=0;" edge="1" parent="1" source="ZAKau98Ayw7DTdESdYOl-3" target="ZAKau98Ayw7DTdESdYOl-6">
          <mxGeometry width="50" height="50" relative="1" as="geometry">
            <mxPoint x="400" y="330" as="sourcePoint" />
            <mxPoint x="560" y="250" as="targetPoint" />
          </mxGeometry>
        </mxCell>
        <mxCell id="ZAKau98Ayw7DTdESdYOl-5" value="" style="group" connectable="0" vertex="1" parent="1">
          <mxGeometry x="306" y="225" width="80" height="69" as="geometry" />
        </mxCell>
        <mxCell id="ZAKau98Ayw7DTdESdYOl-6" value="" style="sketch=0;aspect=fixed;pointerEvents=1;shadow=0;dashed=0;html=1;strokeColor=none;labelPosition=center;verticalLabelPosition=bottom;verticalAlign=top;align=center;fillColor=#00188D;shape=mxgraph.mscae.enterprise.router" vertex="1" parent="ZAKau98Ayw7DTdESdYOl-5">
          <mxGeometry x="15" width="50" height="39" as="geometry" />
        </mxCell>
        <mxCell id="ZAKau98Ayw7DTdESdYOl-7" value="App Router" style="text;html=1;align=center;verticalAlign=middle;resizable=0;points=[];autosize=1;strokeColor=none;fillColor=none;" vertex="1" parent="ZAKau98Ayw7DTdESdYOl-5">
          <mxGeometry y="39" width="80" height="30" as="geometry" />
        </mxCell>
        <mxCell id="ZAKau98Ayw7DTdESdYOl-8" value="" style="endArrow=classic;html=1;rounded=0;exitX=1;exitY=0.5;exitDx=0;exitDy=0;" edge="1" parent="1">
          <mxGeometry width="50" height="50" relative="1" as="geometry">
            <mxPoint x="470" y="250" as="sourcePoint" />
            <mxPoint x="425" y="250" as="targetPoint" />
            <Array as="points">
              <mxPoint x="390" y="250" />
            </Array>
          </mxGeometry>
        </mxCell>
        <mxCell id="ZAKau98Ayw7DTdESdYOl-12" value="&lt;b&gt;1&lt;/b&gt;" style="text;html=1;align=center;verticalAlign=middle;resizable=0;points=[];autosize=1;strokeColor=none;fillColor=none;" vertex="1" parent="1">
          <mxGeometry x="178" y="223" width="30" height="30" as="geometry" />
        </mxCell>
        <mxCell id="ZAKau98Ayw7DTdESdYOl-15" value="Auth Service" style="swimlane;whiteSpace=wrap;html=1;" vertex="1" parent="1">
          <mxGeometry x="180" y="120" width="670" height="310" as="geometry" />
        </mxCell>
        <mxCell id="ZAKau98Ayw7DTdESdYOl-16" value="&lt;b&gt;3&lt;/b&gt;" style="text;html=1;align=center;verticalAlign=middle;resizable=0;points=[];autosize=1;strokeColor=none;fillColor=none;" vertex="1" parent="ZAKau98Ayw7DTdESdYOl-15">
          <mxGeometry x="210" y="106.87" width="30" height="30" as="geometry" />
        </mxCell>
        <mxCell id="wcYIvnSIWqarj016rTxB-7" style="rounded=0;orthogonalLoop=1;jettySize=auto;elbow=vertical;html=1;exitX=1;exitY=0.5;exitDx=0;exitDy=0;entryX=0;entryY=0.5;entryDx=0;entryDy=0;" edge="1" parent="ZAKau98Ayw7DTdESdYOl-15" source="ZAKau98Ayw7DTdESdYOl-18" target="ZAKau98Ayw7DTdESdYOl-25">
          <mxGeometry relative="1" as="geometry" />
        </mxCell>
        <mxCell id="ZAKau98Ayw7DTdESdYOl-18" value="POST&lt;br&gt;/validate" style="rounded=0;whiteSpace=wrap;html=1;" vertex="1" parent="ZAKau98Ayw7DTdESdYOl-15">
          <mxGeometry x="245" y="76.87" width="115" height="60" as="geometry" />
        </mxCell>
        <mxCell id="ZAKau98Ayw7DTdESdYOl-21" value="&lt;b&gt;4&lt;/b&gt;" style="text;html=1;align=center;verticalAlign=middle;resizable=0;points=[];autosize=1;strokeColor=none;fillColor=none;" vertex="1" parent="ZAKau98Ayw7DTdESdYOl-15">
          <mxGeometry x="299.99999999999994" y="146.87" width="30" height="30" as="geometry" />
        </mxCell>
        <mxCell id="ZAKau98Ayw7DTdESdYOl-22" value="&lt;b&gt;9&lt;/b&gt;" style="text;html=1;align=center;verticalAlign=middle;resizable=0;points=[];autosize=1;strokeColor=none;fillColor=none;" vertex="1" parent="ZAKau98Ayw7DTdESdYOl-15">
          <mxGeometry x="200" y="170" width="30" height="30" as="geometry" />
        </mxCell>
        <mxCell id="ZAKau98Ayw7DTdESdYOl-23" value="&lt;b&gt;10&lt;/b&gt;" style="text;html=1;align=center;verticalAlign=middle;resizable=0;points=[];autosize=1;strokeColor=none;fillColor=none;" vertex="1" parent="ZAKau98Ayw7DTdESdYOl-15">
          <mxGeometry x="35" y="170" width="40" height="30" as="geometry" />
        </mxCell>
        <mxCell id="wcYIvnSIWqarj016rTxB-6" value="" style="group" connectable="0" vertex="1" parent="ZAKau98Ayw7DTdESdYOl-15">
          <mxGeometry x="441.5" y="76.87" width="115" height="60" as="geometry" />
        </mxCell>
        <mxCell id="ZAKau98Ayw7DTdESdYOl-24" value="" style="shape=image;verticalLabelPosition=bottom;labelBackgroundColor=default;verticalAlign=top;aspect=fixed;imageAspect=0;image=data:image/png,iVBORw0KGgoAAAANSUhEUgAAAWcAAACNCAMAAABczkvvAAAAkFBMVEX///8MNEsALEUAEzYAJUAAHTsAFTcAMEifqK8AKENqeoby9PUAIj67wcYAGjn5+vuGkpvP1NizusAAGDjf4+UAHTwADjPJztLV2dxzgYxOYnGOmaEsSFuWoKh8iZMfP1RfcH1BWGhYangAAC+krLPBx8zd4eMAACg1TmASOE48VGUxS14jQlZTZnUAACFufYiG9o1pAAAN40lEQVR4nO1d6WKyOhQsYYkI4oLijtpqv9rl9v3f7qKQPWELVkuZn6xhCMk5k0l4eqqL8bq/jwe1T+9QCotz4AII/PB475K0GoMXaKRwlvcuS4vx+mJghL17l6a92EDCs2F69y5OW3G0KZoNd3Tv8rQUXmgwCIf3LlE7sQcsz9b23iVqJeaOwcG6d5FaCQPyPPtdEN081hZPs2HAexeqfZhGIs2GPbl3sVqHA5DwDHf3LlbbMAkkNCcV+nTvgrULQ0njfK3Qb/cuWbuwdOU8G+H43kVrExZ8JwhQjAdX9y5bm7DhQme//4ykDvP13oVrD3o+1/tNn54GWccI9vcuXWvgcQl3Su17VsfN6Z2L1xo88/rRVeE/oQrdDaw0gxOvH9nz6/ZPVKE7vb8RQF4/ilLdeZJ1hZ3e3whGfIqCk220odP7G4CoH4HvbNcxC0M6vb8BvAuqs4VVZ1TT/XsWsB2YzHiaDXuBdm4zoju9XxdDW6DZiMheJOJ1er8m+qJ+REt0o2y33+n9WhibYnUGMdnvmVwI0qEWdkInyNXdZZYqdnq/Dra+SLMR0gIdivo6vV8DnqTVMAyHOQZ5Zzq9vz5W0qHXA3PMa/YuQKf318UglNAsqBkrpCYt5FfpUARZbU66QW7KxDhT8zq9vyZi+dBryMv6KDGPOr2/Dl5l/iNDomV0er8WPiSh84XNZ+FIpPdHnd5fHUeJsHHtBkUNtNP764O37mPIEj+0z+n0/qrgrfsYssHATu+vi7k0E0wApQpop/fXhGjdR91gX3Z4p/fXg8y6nzUN0smZWO8HP13SXw2pdT+FLZeLOr2/Dg6qVgNbN3g8mN4/2O+MzfLRBReFdT+XR6T3zx5hwYi9A6ABwctjT0AfysR91P6qcutH0vsHyKf28tAJqtK6b9DWDR5Y75/r3n8fzSjYM7A7xMcqbcA3iv0furcQrPs0AuXzNqf39/kUCUJgBXZc2s+OhyceOm/irfsMIvV5jen9As/ZC4z2JZsBnMuqv777g7fuszUrp/VtTO9X8Jxc2Sk3qI6yJiN63IiDt+6zcOOcU98a0vuVPCeXLtXgDsO0JL4o4T4MeOs+i9yOBev93zkHlUAOz8ZLqRo6fYtse/bywOMOgnWfhTBmxaAhvZ/wDC9gCgDP5a4xnZ/GjyzS5vWBF55zT8Z6f17rUgzMM/zcJXCjgAo02zFxX7DusyiK2fCSa1pVCfPsZhumW4tU8Y3OpR8EOfpR+uDr/POx3l9wXD4wz2S1miFZLKENs+hE6z4L3rohAH0Otk4pJDxTDRrqiufjC+boy1msV2cLfFx3euk+am8KbzB6fjNcYBz66wHzurKLZf3K9Lj/gO75sDzSB43XX58A7FYjRXA5ncRfn3YYhv5mv81NiiXWfRZOUV3Cer+OgiPl+YheYfZNDf+zL/iXPtDrwXQvZ9nXxGTwz07xH90hDw6R76bT0iFwfccYEYk3uh6e6k7Tr8gCl+4XAj9aofjmeA7ddKNrh+J483zphr6bddpJ+jqbjZTBQJ5+JD64/BJo9FZH75fyPMVXTqO1YZrmp5l1LwL0BzdAD+KQZ51uAv5jdcNzL6vwaUd77X62ER1WwujKqfdh02dbgAkvhz0jEGJR11Ql/RLrPguJdYNHE3q/lOcnPGKzT5/NJNQs8dh8OoFUwvM8kjWJ0Mh2Z6WOhk8xP84fJMGTZ3E0QiaOj+XB8ExOl8y6z6KELOMheVRD75fzjNqN7GVnPF8izRGRy4Or1iTyrOjg8XAmqh3ziUiZOXjaCbUVulTRPJVzSzqWKrPus7BLSJ4x8vfX1/sL6nNaeMRz8DqnnjK8EivyrPBWzVA/mfEMRUIvW2XKGhNSKZyIhiMhQWrd504rkedhvf+jKr0Y8vYZ8ZwlQYhnEH9SLKQTcwWex7gxAHZoOqFtQepST5hnA/VjgOFbthXSPVBaoZN+M3AS2CTYF7PXfP0oQxWW6uv9Up63iIpM60Q8k4VtLml66h8ReB7hk/dzb+hN59t3M6GahOJ0fYThrr/cAy5jc53D93IVkpsF9ID0EhgggN+T1+SGw/kKV1lxkoPUus9Cbt3ggfX+Q/Gxcsh49rDbL3u+IdubANvxz2c/jdsFnr8yesAXuWBvF5ESUjy772kXt2YGScP4eimP5EuMwcL7Z8cUpXhESkjs5NZ9FnLrhoCvrChOXfFXwrNHOo8sBWJ4hs7ylPKQPgzPM1Js2ceeE2YIz0RaGFHkB3jAALfVrCo5YDMipH7BrycWxbVZad3ggfX+uuqvoG94axL7ooFgmmfrwHYcAs8oz4WfilsSSmeEMNJhUUMXJ/Rh5a6/hTvGs2J7HsqqQ7rr+WCewXa9Xo/6nw5VOjSIQPFs8e2ZwDMeyAJf8mfAN6BrPNFn6TwY5czKd3YBzl5ZgVNl3WeQe2Eauno/eT73AkBHVS7S7gnPYmSj7gcNMFvLmMb7A2qwF5PF3AF7iPKU8AkqgclsfisMnY0q0yI01/PJGU8hgRLhWezTBZ7nVO9jBbH4nWGe6fp3Qpdh/PPIEATV0dfQw6+I4Vll3WdRPpUe6On9ap6hjynCPEsyTzFPYXIw1zzw+QOOn9+pjWNEC/Pk6NsQeF4cR/v3HbQC03FwUEjz7BXJdCnU1g0ByNVbJrERoeTZOpOaSOJn8WWKPI/ZhhHYgI2dEM9M6Ip5ZvJgOc+DZzu4qIH8UlI0z0rrPov8MSsGenq/0r9BM4p5lng0JDpSj+uBoM+ch+NduoXAPNONtpTnCbAVHFI8K637XMnoT6oIbvZaa/n7JTzDJA9ZMs0q5lnSnMl00UHIX9V+J3sxz7RSRnim7yzheaX2fVI8n8t0ghUnUyG9v2Rqw4LwnKr1QRhuYi4RqMzzk7c3OaYBxLtxXl6H5zcq7ITAtSzfJ6Ns+Lx1sX6keh410Go/sI7eT+Ln8fyChSwOr8xz0lF9cUwDPKarw/OIEOg6u/66dzwORuhGmOeioVeMfOsGj7WG3i/XRTnU4Dl52KVj0V+vj2jV4JkSn8M1ut9AiJ9zrPssqjW1SP4r62uhcTuek9O2rk89MbqDBs/YzAddcpiQp+RY91lUtduiTL6G3n9LnhMcXSJ5hlmsqsEzFjpnVPQn8GyVrc5F1g0eeMJKdV/LjXlOqMJaOzpZg2fS5FMH9bh8MM+6z8Kvus5Ufb3/5jxjgxrmVYNn1DwzduQ+2w/mWvdZVE7tpqhCV9b7b88zzsOb5JlKJfF0yoznXOs+i+oBGnL4Vtb7m+f5yPONen+UFGrwjHVSStTrs/FzrnWfo3lfhiEGi7p6f/M8r16emTwHL8aAFl/Q4BnX1RDXp5jocheeSw29ygpQEqjSVPX3N8/zFwS+edgi/9wJp8DIqa3B8zdRy9OXdvqghnAvPOdb91mUsW7wQKpvufFbglvwfCHGtR3/bbXaONjDhceeNHiekEbBt99Wm5BxiCU8L8rpR2yJKwF9UhX9/TfiOWWHUS4jNESgk3fTI9jo6u4n4fm7QnWuk9bV1vtvyTMDH48Q6fC8FUdJ/CVKH8zCKRIMqn76GVA7aFby9/8UzzbpoLX0unc+CbH3eDalSRY1KoOaEx6R3l8tmWye54MksAIRJfRq8fz0xlw+tfJm33JFnmc1F2lFY9WV/P37wEph5hw0/JcdJJlSOIiyff+QQX8EQx/glhkmXaL5TZPnoDsyPL9kW1/o8ZQ4O9anasE6QvoFdMPPlKswLUG1dqPuxJ5eHb1/0EPIO2qbHbMV06BXvI8U+/W4PEDHdMLQMeEhPrEPhO9I16cpvgzdj59kpfN6B9tMrmwdRigwS59iS+Zjl0D9SU5I73eLD/0ReAlud2lpbZyUchNcIRlTLgkdvb8tKDaWI9RnSUfvbwvKq3VB/V85auj9rUGcP/uVYFb/HnjCShvmsdaF8CM2OapLyBT0/f2/HyUtMlrr4OIJKzov67ejcMrgFYXTjXNRW+9vEYalxmGrWTd41Nb724Qy81KKpxvnA82d+dPr95cQ+4XJLBVRV+9vFbxio0xV64aAmnp/u1Bs5tf+RRjSKTXX8/nlKHTY1XPl00Dho9byJ78d8p+FEchXiq8EdIcKUy9aiAIbh/7/lPCQsF4g/uuhWDUhQy1PPo0j7mr/+M8g873mdawbGN5kH5LPpXB9pZYjd9m6mrMtEyy2b5FPx+d//q/IOXOBaq7AMzzFIOSyeq1VwFqBsbrlqDNLe3r8MsUZdaDsBPEWQ204r2zdGI92jkyeco2/nA4iKGWOSjGvN+nbtitrhNxo/8jr1/4YlAsSl7duvPbeTV/2voDlGOVX1285FLO8y/6nYx5DvtvLSPbNVe+Px3M0FKtelrFueJPn0JY18NANrG9+xvBfx0Qq+RdaNxbbjaK18M3N+k8LGgpIl1YL89rV4WkJQmm3B+zwWZh90+EK6a9K1VLm9LhypBUZWiGM/7aSkQ+J5K9yA1yDZEVr8b7tYot8vIurGEusG5cgeSZrLaA78/uTrrUohCjcCYrx61YdJO9GNe3ofw7CormsdeOkDpKd1bELksvjk2MxxK2Ad0yCZGm35wZg2QXJ1cCvzJh5ChbrLkhuFrxX147ng2836ILkpsH/uRvYXZB8C5Tx6nZBcgP4zvfqJkGy3QXJDSDPq9sFyQ1ioJD8L0pyFyQ3CIlXNwmS3S5Ibhj8QsVdkHwjLKi/Qbm289x1ezfC9DO4LDUALkHyH56P9gM4xRt43nfdnjb+B1UqyZ0I5iskAAAAAElFTkSuQmCC;" vertex="1" parent="wcYIvnSIWqarj016rTxB-6">
          <mxGeometry x="19.309999999999945" y="15" width="76.38" height="30" as="geometry" />
        </mxCell>
        <mxCell id="ZAKau98Ayw7DTdESdYOl-25" value="" style="rounded=0;whiteSpace=wrap;html=1;fillColor=none;" vertex="1" parent="wcYIvnSIWqarj016rTxB-6">
          <mxGeometry width="115" height="60" as="geometry" />
        </mxCell>
        <mxCell id="S5_LcudA-3SoQzQ2qQMC-1" value="&lt;b&gt;5&lt;/b&gt;" style="text;html=1;align=center;verticalAlign=middle;resizable=0;points=[];autosize=1;strokeColor=none;fillColor=none;" vertex="1" parent="ZAKau98Ayw7DTdESdYOl-15">
          <mxGeometry x="340" y="146.87" width="30" height="30" as="geometry" />
        </mxCell>
        <mxCell id="NM65prGZgcDLL_IclGXQ-1" value="Valid" style="text;html=1;align=center;verticalAlign=middle;resizable=0;points=[];autosize=1;strokeColor=none;fillColor=none;fontSize=10;" vertex="1" parent="ZAKau98Ayw7DTdESdYOl-15">
          <mxGeometry x="330" y="158.44" width="50" height="30" as="geometry" />
        </mxCell>
        <mxCell id="NM65prGZgcDLL_IclGXQ-2" value="&lt;b&gt;6&lt;/b&gt;" style="text;html=1;align=center;verticalAlign=middle;resizable=0;points=[];autosize=1;strokeColor=none;fillColor=none;" vertex="1" parent="ZAKau98Ayw7DTdESdYOl-15">
          <mxGeometry x="380" y="76.87" width="30" height="30" as="geometry" />
        </mxCell>
        <mxCell id="NM65prGZgcDLL_IclGXQ-3" style="rounded=0;orthogonalLoop=1;jettySize=auto;elbow=vertical;html=1;exitX=1;exitY=0.5;exitDx=0;exitDy=0;entryX=0;entryY=0.5;entryDx=0;entryDy=0;startArrow=classic;startFill=1;endArrow=none;endFill=0;" edge="1" parent="ZAKau98Ayw7DTdESdYOl-15">
          <mxGeometry relative="1" as="geometry">
            <mxPoint x="360" y="117" as="sourcePoint" />
            <mxPoint x="442" y="117" as="targetPoint" />
          </mxGeometry>
        </mxCell>
        <mxCell id="NM65prGZgcDLL_IclGXQ-4" value="&lt;b&gt;7&lt;/b&gt;" style="text;html=1;align=center;verticalAlign=middle;resizable=0;points=[];autosize=1;strokeColor=none;fillColor=none;" vertex="1" parent="ZAKau98Ayw7DTdESdYOl-15">
          <mxGeometry x="500" y="188.44" width="30" height="30" as="geometry" />
        </mxCell>
        <mxCell id="YyBHvG2NDIJJTlsrR6sT-1" value="&lt;b&gt;8&lt;/b&gt;" style="text;html=1;align=center;verticalAlign=middle;resizable=0;points=[];autosize=1;strokeColor=none;fillColor=none;" vertex="1" parent="ZAKau98Ayw7DTdESdYOl-15">
          <mxGeometry x="380" y="116.87" width="30" height="30" as="geometry" />
        </mxCell>
        <mxCell id="ZAKau98Ayw7DTdESdYOl-13" value="&lt;b&gt;2&lt;/b&gt;" style="text;html=1;align=center;verticalAlign=middle;resizable=0;points=[];autosize=1;strokeColor=none;fillColor=none;" vertex="1" parent="ZAKau98Ayw7DTdESdYOl-15">
          <mxGeometry x="110" y="106.87" width="30" height="30" as="geometry" />
        </mxCell>
        <mxCell id="ZAKau98Ayw7DTdESdYOl-27" value="" style="endArrow=classic;startArrow=classic;html=1;rounded=0;exitX=0.875;exitY=0.5;exitDx=0;exitDy=0;exitPerimeter=0;" edge="1" parent="1" source="ZAKau98Ayw7DTdESdYOl-2" target="ZAKau98Ayw7DTdESdYOl-3">
          <mxGeometry width="50" height="50" relative="1" as="geometry">
            <mxPoint x="470" y="270" as="sourcePoint" />
            <mxPoint x="520" y="220" as="targetPoint" />
          </mxGeometry>
        </mxCell>
        <mxCell id="ZAKau98Ayw7DTdESdYOl-39" style="edgeStyle=orthogonalEdgeStyle;rounded=0;orthogonalLoop=1;jettySize=auto;html=1;exitX=0.25;exitY=1;exitDx=0;exitDy=0;entryX=0.461;entryY=1;entryDx=0;entryDy=0;entryPerimeter=0;" edge="1" parent="1" source="ZAKau98Ayw7DTdESdYOl-18" target="ZAKau98Ayw7DTdESdYOl-7">
          <mxGeometry relative="1" as="geometry" />
        </mxCell>
        <mxCell id="wcYIvnSIWqarj016rTxB-3" value="" style="group" connectable="0" vertex="1" parent="1">
          <mxGeometry x="415" y="350" width="135" height="60" as="geometry" />
        </mxCell>
        <mxCell id="ZAKau98Ayw7DTdESdYOl-20" value="" style="rounded=0;whiteSpace=wrap;html=1;fillColor=none;" vertex="1" parent="wcYIvnSIWqarj016rTxB-3">
          <mxGeometry width="135" height="60" as="geometry" />
        </mxCell>
        <mxCell id="wcYIvnSIWqarj016rTxB-1" value="" style="shape=image;verticalLabelPosition=bottom;labelBackgroundColor=default;verticalAlign=top;aspect=fixed;imageAspect=0;image=https://gregberge.com/static/3391b102273cbd25da0acce0007703bd/5a190/passport.png;" vertex="1" parent="wcYIvnSIWqarj016rTxB-3">
          <mxGeometry x="5.860000000000014" y="12.429999999999998" width="123.28" height="35.13" as="geometry" />
        </mxCell>
        <mxCell id="ZAKau98Ayw7DTdESdYOl-17" style="rounded=0;orthogonalLoop=1;jettySize=auto;html=1;exitX=0.5;exitY=1;exitDx=0;exitDy=0;startArrow=none;startFill=0;entryX=0.5;entryY=0;entryDx=0;entryDy=0;" edge="1" parent="1" source="ZAKau98Ayw7DTdESdYOl-18" target="ZAKau98Ayw7DTdESdYOl-20">
          <mxGeometry relative="1" as="geometry">
            <mxPoint x="482.33333333333326" y="320" as="targetPoint" />
          </mxGeometry>
        </mxCell>
        <mxCell id="wcYIvnSIWqarj016rTxB-5" style="rounded=0;orthogonalLoop=1;jettySize=auto;html=1;exitX=0.789;exitY=1.023;exitDx=0;exitDy=0;startArrow=classic;startFill=1;entryX=0.75;entryY=0;entryDx=0;entryDy=0;endArrow=none;endFill=0;exitPerimeter=0;" edge="1" parent="1" source="ZAKau98Ayw7DTdESdYOl-18" target="ZAKau98Ayw7DTdESdYOl-20">
          <mxGeometry relative="1" as="geometry">
            <mxPoint x="514.74" y="351.57" as="targetPoint" />
            <mxPoint x="514.74" y="281.57" as="sourcePoint" />
          </mxGeometry>
        </mxCell>
        <mxCell id="ZAKau98Ayw7DTdESdYOl-42" style="rounded=0;orthogonalLoop=1;jettySize=auto;elbow=vertical;html=1;entryX=0.5;entryY=0;entryDx=0;entryDy=0;startArrow=classic;startFill=1;" edge="1" parent="1" target="ZAKau98Ayw7DTdESdYOl-41">
          <mxGeometry relative="1" as="geometry">
            <mxPoint x="681" y="260" as="sourcePoint" />
          </mxGeometry>
        </mxCell>
        <mxCell id="ZAKau98Ayw7DTdESdYOl-40" value="PostgreSQL" style="shape=cylinder3;whiteSpace=wrap;html=1;boundedLbl=1;backgroundOutline=1;size=15;" vertex="1" parent="1">
          <mxGeometry x="635.5" y="460" width="101" height="50" as="geometry" />
        </mxCell>
        <mxCell id="ZAKau98Ayw7DTdESdYOl-41" value="" style="shape=image;verticalLabelPosition=bottom;labelBackgroundColor=default;verticalAlign=top;aspect=fixed;imageAspect=0;image=https://www.vectorlogo.zone/logos/supabase/supabase-ar21.svg;clipPath=inset(20% 0% 21.67% 0%);" vertex="1" parent="1">
          <mxGeometry x="617.5" y="450" width="126" height="36.75" as="geometry" />
        </mxCell>
      </root>
    </mxGraphModel>
  </diagram>
</mxfile>
